solid OpenSCAD_Model
  facet normal -0.975918 -0.218138 0
    outer loop
      vertex -13.6372 -8.34738 -2
      vertex -13.6646 -8.22476 0
      vertex -13.6646 -8.22476 -2
    endloop
  endfacet
  facet normal -0.975918 -0.218138 0
    outer loop
      vertex -13.6646 -8.22476 0
      vertex -13.6372 -8.34738 -2
      vertex -13.6372 -8.34738 0
    endloop
  endfacet
  facet normal -0.960294 -0.278991 0
    outer loop
      vertex -13.6021 -8.46803 -2
      vertex -13.6372 -8.34738 0
      vertex -13.6372 -8.34738 -2
    endloop
  endfacet
  facet normal -0.960294 -0.278991 0
    outer loop
      vertex -13.6372 -8.34738 0
      vertex -13.6021 -8.46803 -2
      vertex -13.6021 -8.46803 0
    endloop
  endfacet
  facet normal -0.790156 -0.612906 0
    outer loop
      vertex -13.241 -9.12485 -2
      vertex -13.318 -9.02557 0
      vertex -13.318 -9.02557 -2
    endloop
  endfacet
  facet normal -0.790156 -0.612906 0
    outer loop
      vertex -13.318 -9.02557 0
      vertex -13.241 -9.12485 -2
      vertex -13.241 -9.12485 0
    endloop
  endfacet
  facet normal -0.750111 -0.661312 0
    outer loop
      vertex -13.1579 -9.21909 -2
      vertex -13.241 -9.12485 0
      vertex -13.241 -9.12485 -2
    endloop
  endfacet
  facet normal -0.750111 -0.661312 0
    outer loop
      vertex -13.241 -9.12485 0
      vertex -13.1579 -9.21909 -2
      vertex -13.1579 -9.21909 0
    endloop
  endfacet
  facet normal -0.987688 -0.156437 0
    outer loop
      vertex -13.6646 -8.22476 -2
      vertex -13.6842 -8.10067 0
      vertex -13.6842 -8.10067 -2
    endloop
  endfacet
  facet normal -0.987688 -0.156437 0
    outer loop
      vertex -13.6842 -8.10067 0
      vertex -13.6646 -8.22476 -2
      vertex -13.6646 -8.22476 0
    endloop
  endfacet
  facet normal 0 0 1
    outer loop
      vertex 11.7 9.85 0
      vertex 13.7 7.85 0
      vertex 13.6961 7.97558 0
    endloop
  endfacet
  facet normal 0 0 1
    outer loop
      vertex 13.7 7.85 0
      vertex 9.7 5.85 0
      vertex 13.7 -7.85 0
    endloop
  endfacet
  facet normal 0 0 1
    outer loop
      vertex 11.7 9.85 0
      vertex 13.6961 7.97558 0
      vertex 13.6842 8.10067 0
    endloop
  endfacet
  facet normal -0 0 1
    outer loop
      vertex 9.7 -5.85 0
      vertex 13.7 -7.85 0
      vertex 9.7 5.85 0
    endloop
  endfacet
  facet normal 0 0 1
    outer loop
      vertex 11.7 9.85 0
      vertex 13.6842 8.10067 0
      vertex 13.6646 8.22476 0
    endloop
  endfacet
  facet normal 0 -0 1
    outer loop
      vertex 11.7 -9.85 0
      vertex 13.7 -7.85 0
      vertex 9.7 -5.85 0
    endloop
  endfacet
  facet normal 0 0 1
    outer loop
      vertex 11.7 9.85 0
      vertex 13.6646 8.22476 0
      vertex 13.6372 8.34738 0
    endloop
  endfacet
  facet normal 0 0 1
    outer loop
      vertex 13.7 -7.85 0
      vertex 11.7 -9.85 0
      vertex 13.6961 -7.97558 0
    endloop
  endfacet
  facet normal 0 0 1
    outer loop
      vertex 11.7 9.85 0
      vertex 13.6372 8.34738 0
      vertex 13.6021 8.46803 0
    endloop
  endfacet
  facet normal 0 0 1
    outer loop
      vertex 13.6961 -7.97558 0
      vertex 11.7 -9.85 0
      vertex 13.6842 -8.10067 0
    endloop
  endfacet
  facet normal 0 0 1
    outer loop
      vertex 11.7 9.85 0
      vertex 13.6021 8.46803 0
      vertex 13.5596 8.58625 0
    endloop
  endfacet
  facet normal 0 0 1
    outer loop
      vertex 13.6842 -8.10067 0
      vertex 11.7 -9.85 0
      vertex 13.6646 -8.22476 0
    endloop
  endfacet
  facet normal 0 0 1
    outer loop
      vertex 11.7 9.85 0
      vertex 13.5596 8.58625 0
      vertex 13.5097 8.70156 0
    endloop
  endfacet
  facet normal 0 0 1
    outer loop
      vertex 13.6646 -8.22476 0
      vertex 11.7 -9.85 0
      vertex 13.6372 -8.34738 0
    endloop
  endfacet
  facet normal 0 0 1
    outer loop
      vertex 11.7 9.85 0
      vertex 13.5097 8.70156 0
      vertex 13.4526 8.81351 0
    endloop
  endfacet
  facet normal 0 0 1
    outer loop
      vertex 13.6372 -8.34738 0
      vertex 11.7 -9.85 0
      vertex 13.6021 -8.46803 0
    endloop
  endfacet
  facet normal 0 0 1
    outer loop
      vertex 11.7 9.85 0
      vertex 13.4526 8.81351 0
      vertex 13.3887 8.92165 0
    endloop
  endfacet
  facet normal 0 0 1
    outer loop
      vertex 13.6021 -8.46803 0
      vertex 11.7 -9.85 0
      vertex 13.5596 -8.58625 0
    endloop
  endfacet
  facet normal 0 0 1
    outer loop
      vertex 11.7 9.85 0
      vertex 13.3887 8.92165 0
      vertex 13.318 9.02557 0
    endloop
  endfacet
  facet normal 0 0 1
    outer loop
      vertex 13.5596 -8.58625 0
      vertex 11.7 -9.85 0
      vertex 13.5097 -8.70156 0
    endloop
  endfacet
  facet normal 0 0 1
    outer loop
      vertex 11.7 9.85 0
      vertex 13.318 9.02557 0
      vertex 13.241 9.12485 0
    endloop
  endfacet
  facet normal 0 0 1
    outer loop
      vertex 13.5097 -8.70156 0
      vertex 11.7 -9.85 0
      vertex 13.4526 -8.81351 0
    endloop
  endfacet
  facet normal 0 0 1
    outer loop
      vertex 11.7 9.85 0
      vertex 13.241 9.12485 0
      vertex 13.1579 9.21909 0
    endloop
  endfacet
  facet normal 0 0 1
    outer loop
      vertex 13.4526 -8.81351 0
      vertex 11.7 -9.85 0
      vertex 13.3887 -8.92165 0
    endloop
  endfacet
  facet normal 0 0 1
    outer loop
      vertex 11.7 9.85 0
      vertex 13.1579 9.21909 0
      vertex 13.0691 9.30794 0
    endloop
  endfacet
  facet normal 0 0 1
    outer loop
      vertex 13.3887 -8.92165 0
      vertex 11.7 -9.85 0
      vertex 13.318 -9.02557 0
    endloop
  endfacet
  facet normal 0 0 1
    outer loop
      vertex 11.7 9.85 0
      vertex 13.0691 9.30794 0
      vertex 12.9748 9.39103 0
    endloop
  endfacet
  facet normal 0 0 1
    outer loop
      vertex 13.318 -9.02557 0
      vertex 11.7 -9.85 0
      vertex 13.241 -9.12485 0
    endloop
  endfacet
  facet normal 0 0 1
    outer loop
      vertex 11.7 9.85 0
      vertex 12.9748 9.39103 0
      vertex 12.8756 9.46803 0
    endloop
  endfacet
  facet normal 0 0 1
    outer loop
      vertex 13.241 -9.12485 0
      vertex 11.7 -9.85 0
      vertex 13.1579 -9.21909 0
    endloop
  endfacet
  facet normal 0 0 1
    outer loop
      vertex 11.7 9.85 0
      vertex 12.8756 9.46803 0
      vertex 12.7717 9.53866 0
    endloop
  endfacet
  facet normal 0 0 1
    outer loop
      vertex 13.1579 -9.21909 0
      vertex 11.7 -9.85 0
      vertex 13.0691 -9.30794 0
    endloop
  endfacet
  facet normal 0 0 1
    outer loop
      vertex 11.7 9.85 0
      vertex 12.7717 9.53866 0
      vertex 12.6635 9.60261 0
    endloop
  endfacet
  facet normal 0 0 1
    outer loop
      vertex 13.0691 -9.30794 0
      vertex 11.7 -9.85 0
      vertex 12.9748 -9.39103 0
    endloop
  endfacet
  facet normal 0 0 1
    outer loop
      vertex 11.7 9.85 0
      vertex 12.6635 9.60261 0
      vertex 12.5516 9.65965 0
    endloop
  endfacet
  facet normal 0 0 1
    outer loop
      vertex 12.9748 -9.39103 0
      vertex 11.7 -9.85 0
      vertex 12.8756 -9.46803 0
    endloop
  endfacet
  facet normal 0 0 1
    outer loop
      vertex 11.7 9.85 0
      vertex 12.5516 9.65965 0
      vertex 12.4362 9.70955 0
    endloop
  endfacet
  facet normal 0 0 1
    outer loop
      vertex 12.8756 -9.46803 0
      vertex 11.7 -9.85 0
      vertex 12.7717 -9.53866 0
    endloop
  endfacet
  facet normal 0 0 1
    outer loop
      vertex 11.7 9.85 0
      vertex 12.4362 9.70955 0
      vertex 12.318 9.75211 0
    endloop
  endfacet
  facet normal 0 0 1
    outer loop
      vertex 12.7717 -9.53866 0
      vertex 11.7 -9.85 0
      vertex 12.6635 -9.60261 0
    endloop
  endfacet
  facet normal 0 0 1
    outer loop
      vertex 11.7 9.85 0
      vertex 12.318 9.75211 0
      vertex 12.1974 9.78717 0
    endloop
  endfacet
  facet normal 0 0 1
    outer loop
      vertex 12.6635 -9.60261 0
      vertex 11.7 -9.85 0
      vertex 12.5516 -9.65965 0
    endloop
  endfacet
  facet normal 0 0 1
    outer loop
      vertex 11.7 9.85 0
      vertex 12.1974 9.78717 0
      vertex 12.0748 9.81457 0
    endloop
  endfacet
  facet normal 0 0 1
    outer loop
      vertex 12.5516 -9.65965 0
      vertex 11.7 -9.85 0
      vertex 12.4362 -9.70955 0
    endloop
  endfacet
  facet normal 0 0 1
    outer loop
      vertex 11.7 9.85 0
      vertex 12.0748 9.81457 0
      vertex 11.9507 9.83423 0
    endloop
  endfacet
  facet normal 0 0 1
    outer loop
      vertex 12.4362 -9.70955 0
      vertex 11.7 -9.85 0
      vertex 12.318 -9.75211 0
    endloop
  endfacet
  facet normal 0 0 1
    outer loop
      vertex 11.7 9.85 0
      vertex 11.9507 9.83423 0
      vertex 11.8256 9.84605 0
    endloop
  endfacet
  facet normal 0 0 1
    outer loop
      vertex 12.318 -9.75211 0
      vertex 11.7 -9.85 0
      vertex 12.1974 -9.78717 0
    endloop
  endfacet
  facet normal 0 0 1
    outer loop
      vertex 13.7 7.85 0
      vertex 11.7 9.85 0
      vertex 9.7 5.85 0
    endloop
  endfacet
  facet normal 0 0 1
    outer loop
      vertex 12.1974 -9.78717 0
      vertex 11.7 -9.85 0
      vertex 12.0748 -9.81457 0
    endloop
  endfacet
  facet normal 0 0 1
    outer loop
      vertex 12.0748 -9.81457 0
      vertex 11.7 -9.85 0
      vertex 11.9507 -9.83423 0
    endloop
  endfacet
  facet normal 0 0 1
    outer loop
      vertex 11.7 9.85 0
      vertex -9.7 5.85 0
      vertex 9.7 5.85 0
    endloop
  endfacet
  facet normal -0 0 1
    outer loop
      vertex -13.7 7.85 0
      vertex -9.7 5.85 0
      vertex -11.7 9.85 0
    endloop
  endfacet
  facet normal -0 0 1
    outer loop
      vertex -11.7 9.85 0
      vertex -9.7 5.85 0
      vertex 11.7 9.85 0
    endloop
  endfacet
  facet normal 0 0 1
    outer loop
      vertex 11.9507 -9.83423 0
      vertex 11.7 -9.85 0
      vertex 11.8256 -9.84605 0
    endloop
  endfacet
  facet normal -0 0 1
    outer loop
      vertex -9.7 -5.85 0
      vertex 11.7 -9.85 0
      vertex 9.7 -5.85 0
    endloop
  endfacet
  facet normal 0 0 1
    outer loop
      vertex -9.7 -5.85 0
      vertex -11.7 -9.85 0
      vertex 11.7 -9.85 0
    endloop
  endfacet
  facet normal 0 0 1
    outer loop
      vertex -9.7 5.85 0
      vertex -13.7 7.85 0
      vertex -9.7 -5.85 0
    endloop
  endfacet
  facet normal 0 0 1
    outer loop
      vertex -13.7 7.85 0
      vertex -11.7 9.85 0
      vertex -11.8256 9.84605 0
    endloop
  endfacet
  facet normal 0 0 1
    outer loop
      vertex -13.7 -7.85 0
      vertex -9.7 -5.85 0
      vertex -13.7 7.85 0
    endloop
  endfacet
  facet normal 0 0 1
    outer loop
      vertex -13.7 7.85 0
      vertex -11.8256 9.84605 0
      vertex -11.9507 9.83423 0
    endloop
  endfacet
  facet normal 0 0 1
    outer loop
      vertex -9.7 -5.85 0
      vertex -13.7 -7.85 0
      vertex -11.7 -9.85 0
    endloop
  endfacet
  facet normal 0 0 1
    outer loop
      vertex -13.7 7.85 0
      vertex -11.9507 9.83423 0
      vertex -12.0748 9.81457 0
    endloop
  endfacet
  facet normal 0 0 1
    outer loop
      vertex -11.7 -9.85 0
      vertex -13.7 -7.85 0
      vertex -11.8256 -9.84605 0
    endloop
  endfacet
  facet normal 0 0 1
    outer loop
      vertex -13.7 7.85 0
      vertex -12.0748 9.81457 0
      vertex -12.1974 9.78717 0
    endloop
  endfacet
  facet normal 0 0 1
    outer loop
      vertex -11.8256 -9.84605 0
      vertex -13.7 -7.85 0
      vertex -11.9507 -9.83423 0
    endloop
  endfacet
  facet normal 0 0 1
    outer loop
      vertex -13.7 7.85 0
      vertex -12.1974 9.78717 0
      vertex -12.318 9.75211 0
    endloop
  endfacet
  facet normal 0 0 1
    outer loop
      vertex -11.9507 -9.83423 0
      vertex -13.7 -7.85 0
      vertex -12.0748 -9.81457 0
    endloop
  endfacet
  facet normal 0 0 1
    outer loop
      vertex -13.7 7.85 0
      vertex -12.318 9.75211 0
      vertex -12.4362 9.70955 0
    endloop
  endfacet
  facet normal 0 0 1
    outer loop
      vertex -12.0748 -9.81457 0
      vertex -13.7 -7.85 0
      vertex -12.1974 -9.78717 0
    endloop
  endfacet
  facet normal 0 0 1
    outer loop
      vertex -13.7 7.85 0
      vertex -12.4362 9.70955 0
      vertex -12.5516 9.65965 0
    endloop
  endfacet
  facet normal 0 0 1
    outer loop
      vertex -12.1974 -9.78717 0
      vertex -13.7 -7.85 0
      vertex -12.318 -9.75211 0
    endloop
  endfacet
  facet normal 0 0 1
    outer loop
      vertex -13.7 7.85 0
      vertex -12.5516 9.65965 0
      vertex -12.6635 9.60261 0
    endloop
  endfacet
  facet normal 0 0 1
    outer loop
      vertex -12.318 -9.75211 0
      vertex -13.7 -7.85 0
      vertex -12.4362 -9.70955 0
    endloop
  endfacet
  facet normal 0 0 1
    outer loop
      vertex -13.7 7.85 0
      vertex -12.6635 9.60261 0
      vertex -12.7717 9.53866 0
    endloop
  endfacet
  facet normal 0 0 1
    outer loop
      vertex -12.4362 -9.70955 0
      vertex -13.7 -7.85 0
      vertex -12.5516 -9.65965 0
    endloop
  endfacet
  facet normal 0 0 1
    outer loop
      vertex -13.7 7.85 0
      vertex -12.7717 9.53866 0
      vertex -12.8756 9.46803 0
    endloop
  endfacet
  facet normal 0 0 1
    outer loop
      vertex -12.5516 -9.65965 0
      vertex -13.7 -7.85 0
      vertex -12.6635 -9.60261 0
    endloop
  endfacet
  facet normal 0 0 1
    outer loop
      vertex -13.7 7.85 0
      vertex -12.8756 9.46803 0
      vertex -12.9748 9.39103 0
    endloop
  endfacet
  facet normal 0 0 1
    outer loop
      vertex -12.6635 -9.60261 0
      vertex -13.7 -7.85 0
      vertex -12.7717 -9.53866 0
    endloop
  endfacet
  facet normal 0 0 1
    outer loop
      vertex -13.7 7.85 0
      vertex -12.9748 9.39103 0
      vertex -13.0691 9.30794 0
    endloop
  endfacet
  facet normal 0 0 1
    outer loop
      vertex -12.7717 -9.53866 0
      vertex -13.7 -7.85 0
      vertex -12.8756 -9.46803 0
    endloop
  endfacet
  facet normal 0 0 1
    outer loop
      vertex -13.7 7.85 0
      vertex -13.0691 9.30794 0
      vertex -13.1579 9.21909 0
    endloop
  endfacet
  facet normal 0 0 1
    outer loop
      vertex -12.8756 -9.46803 0
      vertex -13.7 -7.85 0
      vertex -12.9748 -9.39103 0
    endloop
  endfacet
  facet normal 0 0 1
    outer loop
      vertex -13.7 7.85 0
      vertex -13.1579 9.21909 0
      vertex -13.241 9.12485 0
    endloop
  endfacet
  facet normal 0 0 1
    outer loop
      vertex -12.9748 -9.39103 0
      vertex -13.7 -7.85 0
      vertex -13.0691 -9.30794 0
    endloop
  endfacet
  facet normal 0 0 1
    outer loop
      vertex -13.7 7.85 0
      vertex -13.241 9.12485 0
      vertex -13.318 9.02557 0
    endloop
  endfacet
  facet normal 0 0 1
    outer loop
      vertex -13.0691 -9.30794 0
      vertex -13.7 -7.85 0
      vertex -13.1579 -9.21909 0
    endloop
  endfacet
  facet normal 0 0 1
    outer loop
      vertex -13.7 7.85 0
      vertex -13.318 9.02557 0
      vertex -13.3887 8.92165 0
    endloop
  endfacet
  facet normal 0 0 1
    outer loop
      vertex -13.1579 -9.21909 0
      vertex -13.7 -7.85 0
      vertex -13.241 -9.12485 0
    endloop
  endfacet
  facet normal 0 0 1
    outer loop
      vertex -13.7 7.85 0
      vertex -13.3887 8.92165 0
      vertex -13.4526 8.81351 0
    endloop
  endfacet
  facet normal 0 0 1
    outer loop
      vertex -13.241 -9.12485 0
      vertex -13.7 -7.85 0
      vertex -13.318 -9.02557 0
    endloop
  endfacet
  facet normal 0 0 1
    outer loop
      vertex -13.7 7.85 0
      vertex -13.4526 8.81351 0
      vertex -13.5097 8.70156 0
    endloop
  endfacet
  facet normal 0 0 1
    outer loop
      vertex -13.318 -9.02557 0
      vertex -13.7 -7.85 0
      vertex -13.3887 -8.92165 0
    endloop
  endfacet
  facet normal 0 0 1
    outer loop
      vertex -13.7 7.85 0
      vertex -13.5097 8.70156 0
      vertex -13.5596 8.58625 0
    endloop
  endfacet
  facet normal 0 0 1
    outer loop
      vertex -13.3887 -8.92165 0
      vertex -13.7 -7.85 0
      vertex -13.4526 -8.81351 0
    endloop
  endfacet
  facet normal 0 0 1
    outer loop
      vertex -13.7 7.85 0
      vertex -13.5596 8.58625 0
      vertex -13.6021 8.46803 0
    endloop
  endfacet
  facet normal 0 0 1
    outer loop
      vertex -13.4526 -8.81351 0
      vertex -13.7 -7.85 0
      vertex -13.5097 -8.70156 0
    endloop
  endfacet
  facet normal 0 0 1
    outer loop
      vertex -13.7 7.85 0
      vertex -13.6021 8.46803 0
      vertex -13.6372 8.34738 0
    endloop
  endfacet
  facet normal 0 0 1
    outer loop
      vertex -13.5097 -8.70156 0
      vertex -13.7 -7.85 0
      vertex -13.5596 -8.58625 0
    endloop
  endfacet
  facet normal 0 0 1
    outer loop
      vertex -13.7 7.85 0
      vertex -13.6372 8.34738 0
      vertex -13.6646 8.22476 0
    endloop
  endfacet
  facet normal 0 0 1
    outer loop
      vertex -13.5596 -8.58625 0
      vertex -13.7 -7.85 0
      vertex -13.6021 -8.46803 0
    endloop
  endfacet
  facet normal 0 0 1
    outer loop
      vertex -13.7 7.85 0
      vertex -13.6646 8.22476 0
      vertex -13.6842 8.10067 0
    endloop
  endfacet
  facet normal 0 0 1
    outer loop
      vertex -13.6021 -8.46803 0
      vertex -13.7 -7.85 0
      vertex -13.6372 -8.34738 0
    endloop
  endfacet
  facet normal 0 0 1
    outer loop
      vertex -13.7 7.85 0
      vertex -13.6842 8.10067 0
      vertex -13.6961 7.97558 0
    endloop
  endfacet
  facet normal 0 0 1
    outer loop
      vertex -13.6372 -8.34738 0
      vertex -13.7 -7.85 0
      vertex -13.6646 -8.22476 0
    endloop
  endfacet
  facet normal 0 0 1
    outer loop
      vertex -13.6646 -8.22476 0
      vertex -13.7 -7.85 0
      vertex -13.6842 -8.10067 0
    endloop
  endfacet
  facet normal 0 0 1
    outer loop
      vertex -13.6842 -8.10067 0
      vertex -13.7 -7.85 0
      vertex -13.6961 -7.97558 0
    endloop
  endfacet
  facet normal -0.0314089 -0.999507 0
    outer loop
      vertex -11.8256 -9.84605 -2
      vertex -11.7 -9.85 0
      vertex -11.8256 -9.84605 0
    endloop
  endfacet
  facet normal -0.0314089 -0.999507 -0
    outer loop
      vertex -11.7 -9.85 0
      vertex -11.8256 -9.84605 -2
      vertex -11.7 -9.85 -2
    endloop
  endfacet
  facet normal -0.338734 -0.940882 0
    outer loop
      vertex -12.4362 -9.70955 -2
      vertex -12.318 -9.75211 0
      vertex -12.4362 -9.70955 0
    endloop
  endfacet
  facet normal -0.338734 -0.940882 -0
    outer loop
      vertex -12.318 -9.75211 0
      vertex -12.4362 -9.70955 -2
      vertex -12.318 -9.75211 -2
    endloop
  endfacet
  facet normal -0.827079 -0.562086 0
    outer loop
      vertex -13.318 -9.02557 -2
      vertex -13.3887 -8.92165 0
      vertex -13.3887 -8.92165 -2
    endloop
  endfacet
  facet normal -0.827079 -0.562086 0
    outer loop
      vertex -13.3887 -8.92165 0
      vertex -13.318 -9.02557 -2
      vertex -13.318 -9.02557 0
    endloop
  endfacet
  facet normal -0.917757 -0.397142 0
    outer loop
      vertex -13.5097 -8.70156 -2
      vertex -13.5596 -8.58625 0
      vertex -13.5596 -8.58625 -2
    endloop
  endfacet
  facet normal -0.917757 -0.397142 0
    outer loop
      vertex -13.5596 -8.58625 0
      vertex -13.5097 -8.70156 -2
      vertex -13.5097 -8.70156 0
    endloop
  endfacet
  facet normal -0.940879 -0.338743 0
    outer loop
      vertex -13.5596 -8.58625 -2
      vertex -13.6021 -8.46803 0
      vertex -13.6021 -8.46803 -2
    endloop
  endfacet
  facet normal -0.940879 -0.338743 0
    outer loop
      vertex -13.6021 -8.46803 0
      vertex -13.5596 -8.58625 -2
      vertex -13.5596 -8.58625 0
    endloop
  endfacet
  facet normal -0.999506 -0.0314165 0
    outer loop
      vertex -13.6961 -7.97558 -2
      vertex -13.7 -7.85 0
      vertex -13.7 -7.85 -2
    endloop
  endfacet
  facet normal -0.999506 -0.0314165 0
    outer loop
      vertex -13.7 -7.85 0
      vertex -13.6961 -7.97558 -2
      vertex -13.6961 -7.97558 0
    endloop
  endfacet
  facet normal 0 0 -1
    outer loop
      vertex 11.7 -9.85 -2
      vertex 13.7 -7.85 -2
      vertex 13.6961 -7.97558 -2
    endloop
  endfacet
  facet normal 0 0 -1
    outer loop
      vertex 13.7 -7.85 -2
      vertex 8.2 -4.35 -2
      vertex 13.7 7.85 -2
    endloop
  endfacet
  facet normal 0 0 -1
    outer loop
      vertex 11.7 -9.85 -2
      vertex 13.6961 -7.97558 -2
      vertex 13.6842 -8.10067 -2
    endloop
  endfacet
  facet normal 0 0 -1
    outer loop
      vertex 8.2 4.35 -2
      vertex 13.7 7.85 -2
      vertex 8.2 -4.35 -2
    endloop
  endfacet
  facet normal 0 0 -1
    outer loop
      vertex 11.7 -9.85 -2
      vertex 13.6842 -8.10067 -2
      vertex 13.6646 -8.22476 -2
    endloop
  endfacet
  facet normal 0 -0 -1
    outer loop
      vertex 11.7 9.85 -2
      vertex 13.7 7.85 -2
      vertex 8.2 4.35 -2
    endloop
  endfacet
  facet normal 0 0 -1
    outer loop
      vertex 11.7 -9.85 -2
      vertex 13.6646 -8.22476 -2
      vertex 13.6372 -8.34738 -2
    endloop
  endfacet
  facet normal 0 0 -1
    outer loop
      vertex 13.7 7.85 -2
      vertex 11.7 9.85 -2
      vertex 13.6961 7.97558 -2
    endloop
  endfacet
  facet normal 0 0 -1
    outer loop
      vertex 11.7 -9.85 -2
      vertex 13.6372 -8.34738 -2
      vertex 13.6021 -8.46803 -2
    endloop
  endfacet
  facet normal 0 0 -1
    outer loop
      vertex 13.6961 7.97558 -2
      vertex 11.7 9.85 -2
      vertex 13.6842 8.10067 -2
    endloop
  endfacet
  facet normal 0 0 -1
    outer loop
      vertex 11.7 -9.85 -2
      vertex 13.6021 -8.46803 -2
      vertex 13.5596 -8.58625 -2
    endloop
  endfacet
  facet normal 0 0 -1
    outer loop
      vertex 13.6842 8.10067 -2
      vertex 11.7 9.85 -2
      vertex 13.6646 8.22476 -2
    endloop
  endfacet
  facet normal 0 0 -1
    outer loop
      vertex 11.7 -9.85 -2
      vertex 13.5596 -8.58625 -2
      vertex 13.5097 -8.70156 -2
    endloop
  endfacet
  facet normal 0 0 -1
    outer loop
      vertex 13.6646 8.22476 -2
      vertex 11.7 9.85 -2
      vertex 13.6372 8.34738 -2
    endloop
  endfacet
  facet normal 0 0 -1
    outer loop
      vertex 11.7 -9.85 -2
      vertex 13.5097 -8.70156 -2
      vertex 13.4526 -8.81351 -2
    endloop
  endfacet
  facet normal 0 0 -1
    outer loop
      vertex 13.6372 8.34738 -2
      vertex 11.7 9.85 -2
      vertex 13.6021 8.46803 -2
    endloop
  endfacet
  facet normal 0 0 -1
    outer loop
      vertex 11.7 -9.85 -2
      vertex 13.4526 -8.81351 -2
      vertex 13.3887 -8.92165 -2
    endloop
  endfacet
  facet normal 0 0 -1
    outer loop
      vertex 13.6021 8.46803 -2
      vertex 11.7 9.85 -2
      vertex 13.5596 8.58625 -2
    endloop
  endfacet
  facet normal 0 0 -1
    outer loop
      vertex 11.7 -9.85 -2
      vertex 13.3887 -8.92165 -2
      vertex 13.318 -9.02557 -2
    endloop
  endfacet
  facet normal 0 0 -1
    outer loop
      vertex 13.5596 8.58625 -2
      vertex 11.7 9.85 -2
      vertex 13.5097 8.70156 -2
    endloop
  endfacet
  facet normal 0 0 -1
    outer loop
      vertex 11.7 -9.85 -2
      vertex 13.318 -9.02557 -2
      vertex 13.241 -9.12485 -2
    endloop
  endfacet
  facet normal 0 0 -1
    outer loop
      vertex 13.5097 8.70156 -2
      vertex 11.7 9.85 -2
      vertex 13.4526 8.81351 -2
    endloop
  endfacet
  facet normal 0 0 -1
    outer loop
      vertex 11.7 -9.85 -2
      vertex 13.241 -9.12485 -2
      vertex 13.1579 -9.21909 -2
    endloop
  endfacet
  facet normal 0 0 -1
    outer loop
      vertex 13.4526 8.81351 -2
      vertex 11.7 9.85 -2
      vertex 13.3887 8.92165 -2
    endloop
  endfacet
  facet normal 0 0 -1
    outer loop
      vertex 11.7 -9.85 -2
      vertex 13.1579 -9.21909 -2
      vertex 13.0691 -9.30794 -2
    endloop
  endfacet
  facet normal 0 0 -1
    outer loop
      vertex 13.3887 8.92165 -2
      vertex 11.7 9.85 -2
      vertex 13.318 9.02557 -2
    endloop
  endfacet
  facet normal 0 0 -1
    outer loop
      vertex 11.7 -9.85 -2
      vertex 13.0691 -9.30794 -2
      vertex 12.9748 -9.39103 -2
    endloop
  endfacet
  facet normal 0 0 -1
    outer loop
      vertex 13.318 9.02557 -2
      vertex 11.7 9.85 -2
      vertex 13.241 9.12485 -2
    endloop
  endfacet
  facet normal 0 0 -1
    outer loop
      vertex 11.7 -9.85 -2
      vertex 12.9748 -9.39103 -2
      vertex 12.8756 -9.46803 -2
    endloop
  endfacet
  facet normal 0 0 -1
    outer loop
      vertex 13.241 9.12485 -2
      vertex 11.7 9.85 -2
      vertex 13.1579 9.21909 -2
    endloop
  endfacet
  facet normal 0 0 -1
    outer loop
      vertex 11.7 -9.85 -2
      vertex 12.8756 -9.46803 -2
      vertex 12.7717 -9.53866 -2
    endloop
  endfacet
  facet normal 0 0 -1
    outer loop
      vertex 13.1579 9.21909 -2
      vertex 11.7 9.85 -2
      vertex 13.0691 9.30794 -2
    endloop
  endfacet
  facet normal 0 0 -1
    outer loop
      vertex 11.7 -9.85 -2
      vertex 12.7717 -9.53866 -2
      vertex 12.6635 -9.60261 -2
    endloop
  endfacet
  facet normal 0 0 -1
    outer loop
      vertex 13.0691 9.30794 -2
      vertex 11.7 9.85 -2
      vertex 12.9748 9.39103 -2
    endloop
  endfacet
  facet normal 0 0 -1
    outer loop
      vertex 11.7 -9.85 -2
      vertex 12.6635 -9.60261 -2
      vertex 12.5516 -9.65965 -2
    endloop
  endfacet
  facet normal 0 0 -1
    outer loop
      vertex 12.9748 9.39103 -2
      vertex 11.7 9.85 -2
      vertex 12.8756 9.46803 -2
    endloop
  endfacet
  facet normal 0 0 -1
    outer loop
      vertex 11.7 -9.85 -2
      vertex 12.5516 -9.65965 -2
      vertex 12.4362 -9.70955 -2
    endloop
  endfacet
  facet normal 0 0 -1
    outer loop
      vertex 12.8756 9.46803 -2
      vertex 11.7 9.85 -2
      vertex 12.7717 9.53866 -2
    endloop
  endfacet
  facet normal 0 0 -1
    outer loop
      vertex 11.7 -9.85 -2
      vertex 12.4362 -9.70955 -2
      vertex 12.318 -9.75211 -2
    endloop
  endfacet
  facet normal 0 0 -1
    outer loop
      vertex 12.7717 9.53866 -2
      vertex 11.7 9.85 -2
      vertex 12.6635 9.60261 -2
    endloop
  endfacet
  facet normal 0 0 -1
    outer loop
      vertex 11.7 -9.85 -2
      vertex 12.318 -9.75211 -2
      vertex 12.1974 -9.78717 -2
    endloop
  endfacet
  facet normal 0 0 -1
    outer loop
      vertex 12.6635 9.60261 -2
      vertex 11.7 9.85 -2
      vertex 12.5516 9.65965 -2
    endloop
  endfacet
  facet normal 0 0 -1
    outer loop
      vertex 11.7 -9.85 -2
      vertex 12.1974 -9.78717 -2
      vertex 12.0748 -9.81457 -2
    endloop
  endfacet
  facet normal 0 0 -1
    outer loop
      vertex 12.5516 9.65965 -2
      vertex 11.7 9.85 -2
      vertex 12.4362 9.70955 -2
    endloop
  endfacet
  facet normal 0 0 -1
    outer loop
      vertex 11.7 -9.85 -2
      vertex 12.0748 -9.81457 -2
      vertex 11.9507 -9.83423 -2
    endloop
  endfacet
  facet normal 0 0 -1
    outer loop
      vertex 12.4362 9.70955 -2
      vertex 11.7 9.85 -2
      vertex 12.318 9.75211 -2
    endloop
  endfacet
  facet normal 0 0 -1
    outer loop
      vertex 11.7 -9.85 -2
      vertex 11.9507 -9.83423 -2
      vertex 11.8256 -9.84605 -2
    endloop
  endfacet
  facet normal 0 0 -1
    outer loop
      vertex 12.318 9.75211 -2
      vertex 11.7 9.85 -2
      vertex 12.1974 9.78717 -2
    endloop
  endfacet
  facet normal -0 0 -1
    outer loop
      vertex 13.7 -7.85 -2
      vertex 11.7 -9.85 -2
      vertex 8.2 -4.35 -2
    endloop
  endfacet
  facet normal 0 0 -1
    outer loop
      vertex 12.1974 9.78717 -2
      vertex 11.7 9.85 -2
      vertex 12.0748 9.81457 -2
    endloop
  endfacet
  facet normal 0 0 -1
    outer loop
      vertex 12.0748 9.81457 -2
      vertex 11.7 9.85 -2
      vertex 11.9507 9.83423 -2
    endloop
  endfacet
  facet normal 0 0 -1
    outer loop
      vertex 11.7 -9.85 -2
      vertex -8.2 -4.35 -2
      vertex 8.2 -4.35 -2
    endloop
  endfacet
  facet normal 0 0 -1
    outer loop
      vertex -13.7 -7.85 -2
      vertex -8.2 -4.35 -2
      vertex -11.7 -9.85 -2
    endloop
  endfacet
  facet normal 0 0 -1
    outer loop
      vertex -11.7 -9.85 -2
      vertex -8.2 -4.35 -2
      vertex 11.7 -9.85 -2
    endloop
  endfacet
  facet normal 0 0 -1
    outer loop
      vertex 11.9507 9.83423 -2
      vertex 11.7 9.85 -2
      vertex 11.8256 9.84605 -2
    endloop
  endfacet
  facet normal 0 0 -1
    outer loop
      vertex -8.2 4.35 -2
      vertex 11.7 9.85 -2
      vertex 8.2 4.35 -2
    endloop
  endfacet
  facet normal 0 0 -1
    outer loop
      vertex -8.2 4.35 -2
      vertex -11.7 9.85 -2
      vertex 11.7 9.85 -2
    endloop
  endfacet
  facet normal -0 0 -1
    outer loop
      vertex -8.2 -4.35 -2
      vertex -13.7 -7.85 -2
      vertex -8.2 4.35 -2
    endloop
  endfacet
  facet normal 0 0 -1
    outer loop
      vertex -13.7 -7.85 -2
      vertex -11.7 -9.85 -2
      vertex -11.8256 -9.84605 -2
    endloop
  endfacet
  facet normal 0 0 -1
    outer loop
      vertex -13.7 7.85 -2
      vertex -8.2 4.35 -2
      vertex -13.7 -7.85 -2
    endloop
  endfacet
  facet normal 0 0 -1
    outer loop
      vertex -13.7 -7.85 -2
      vertex -11.8256 -9.84605 -2
      vertex -11.9507 -9.83423 -2
    endloop
  endfacet
  facet normal 0 0 -1
    outer loop
      vertex -8.2 4.35 -2
      vertex -13.7 7.85 -2
      vertex -11.7 9.85 -2
    endloop
  endfacet
  facet normal 0 0 -1
    outer loop
      vertex -13.7 -7.85 -2
      vertex -11.9507 -9.83423 -2
      vertex -12.0748 -9.81457 -2
    endloop
  endfacet
  facet normal 0 0 -1
    outer loop
      vertex -11.7 9.85 -2
      vertex -13.7 7.85 -2
      vertex -11.8256 9.84605 -2
    endloop
  endfacet
  facet normal 0 0 -1
    outer loop
      vertex -13.7 -7.85 -2
      vertex -12.0748 -9.81457 -2
      vertex -12.1974 -9.78717 -2
    endloop
  endfacet
  facet normal 0 0 -1
    outer loop
      vertex -11.8256 9.84605 -2
      vertex -13.7 7.85 -2
      vertex -11.9507 9.83423 -2
    endloop
  endfacet
  facet normal 0 0 -1
    outer loop
      vertex -13.7 -7.85 -2
      vertex -12.1974 -9.78717 -2
      vertex -12.318 -9.75211 -2
    endloop
  endfacet
  facet normal 0 0 -1
    outer loop
      vertex -11.9507 9.83423 -2
      vertex -13.7 7.85 -2
      vertex -12.0748 9.81457 -2
    endloop
  endfacet
  facet normal 0 0 -1
    outer loop
      vertex -13.7 -7.85 -2
      vertex -12.318 -9.75211 -2
      vertex -12.4362 -9.70955 -2
    endloop
  endfacet
  facet normal 0 0 -1
    outer loop
      vertex -12.0748 9.81457 -2
      vertex -13.7 7.85 -2
      vertex -12.1974 9.78717 -2
    endloop
  endfacet
  facet normal 0 0 -1
    outer loop
      vertex -13.7 -7.85 -2
      vertex -12.4362 -9.70955 -2
      vertex -12.5516 -9.65965 -2
    endloop
  endfacet
  facet normal 0 0 -1
    outer loop
      vertex -12.1974 9.78717 -2
      vertex -13.7 7.85 -2
      vertex -12.318 9.75211 -2
    endloop
  endfacet
  facet normal 0 0 -1
    outer loop
      vertex -13.7 -7.85 -2
      vertex -12.5516 -9.65965 -2
      vertex -12.6635 -9.60261 -2
    endloop
  endfacet
  facet normal 0 0 -1
    outer loop
      vertex -12.318 9.75211 -2
      vertex -13.7 7.85 -2
      vertex -12.4362 9.70955 -2
    endloop
  endfacet
  facet normal 0 0 -1
    outer loop
      vertex -13.7 -7.85 -2
      vertex -12.6635 -9.60261 -2
      vertex -12.7717 -9.53866 -2
    endloop
  endfacet
  facet normal 0 0 -1
    outer loop
      vertex -12.4362 9.70955 -2
      vertex -13.7 7.85 -2
      vertex -12.5516 9.65965 -2
    endloop
  endfacet
  facet normal 0 0 -1
    outer loop
      vertex -13.7 -7.85 -2
      vertex -12.7717 -9.53866 -2
      vertex -12.8756 -9.46803 -2
    endloop
  endfacet
  facet normal 0 0 -1
    outer loop
      vertex -12.5516 9.65965 -2
      vertex -13.7 7.85 -2
      vertex -12.6635 9.60261 -2
    endloop
  endfacet
  facet normal 0 0 -1
    outer loop
      vertex -13.7 -7.85 -2
      vertex -12.8756 -9.46803 -2
      vertex -12.9748 -9.39103 -2
    endloop
  endfacet
  facet normal 0 0 -1
    outer loop
      vertex -12.6635 9.60261 -2
      vertex -13.7 7.85 -2
      vertex -12.7717 9.53866 -2
    endloop
  endfacet
  facet normal 0 0 -1
    outer loop
      vertex -13.7 -7.85 -2
      vertex -12.9748 -9.39103 -2
      vertex -13.0691 -9.30794 -2
    endloop
  endfacet
  facet normal 0 0 -1
    outer loop
      vertex -12.7717 9.53866 -2
      vertex -13.7 7.85 -2
      vertex -12.8756 9.46803 -2
    endloop
  endfacet
  facet normal 0 0 -1
    outer loop
      vertex -13.7 -7.85 -2
      vertex -13.0691 -9.30794 -2
      vertex -13.1579 -9.21909 -2
    endloop
  endfacet
  facet normal 0 0 -1
    outer loop
      vertex -12.8756 9.46803 -2
      vertex -13.7 7.85 -2
      vertex -12.9748 9.39103 -2
    endloop
  endfacet
  facet normal 0 0 -1
    outer loop
      vertex -13.7 -7.85 -2
      vertex -13.1579 -9.21909 -2
      vertex -13.241 -9.12485 -2
    endloop
  endfacet
  facet normal 0 0 -1
    outer loop
      vertex -12.9748 9.39103 -2
      vertex -13.7 7.85 -2
      vertex -13.0691 9.30794 -2
    endloop
  endfacet
  facet normal 0 0 -1
    outer loop
      vertex -13.7 -7.85 -2
      vertex -13.241 -9.12485 -2
      vertex -13.318 -9.02557 -2
    endloop
  endfacet
  facet normal 0 0 -1
    outer loop
      vertex -13.0691 9.30794 -2
      vertex -13.7 7.85 -2
      vertex -13.1579 9.21909 -2
    endloop
  endfacet
  facet normal 0 0 -1
    outer loop
      vertex -13.7 -7.85 -2
      vertex -13.318 -9.02557 -2
      vertex -13.3887 -8.92165 -2
    endloop
  endfacet
  facet normal 0 0 -1
    outer loop
      vertex -13.1579 9.21909 -2
      vertex -13.7 7.85 -2
      vertex -13.241 9.12485 -2
    endloop
  endfacet
  facet normal 0 0 -1
    outer loop
      vertex -13.7 -7.85 -2
      vertex -13.3887 -8.92165 -2
      vertex -13.4526 -8.81351 -2
    endloop
  endfacet
  facet normal 0 0 -1
    outer loop
      vertex -13.241 9.12485 -2
      vertex -13.7 7.85 -2
      vertex -13.318 9.02557 -2
    endloop
  endfacet
  facet normal 0 0 -1
    outer loop
      vertex -13.7 -7.85 -2
      vertex -13.4526 -8.81351 -2
      vertex -13.5097 -8.70156 -2
    endloop
  endfacet
  facet normal 0 0 -1
    outer loop
      vertex -13.318 9.02557 -2
      vertex -13.7 7.85 -2
      vertex -13.3887 8.92165 -2
    endloop
  endfacet
  facet normal 0 0 -1
    outer loop
      vertex -13.7 -7.85 -2
      vertex -13.5097 -8.70156 -2
      vertex -13.5596 -8.58625 -2
    endloop
  endfacet
  facet normal 0 0 -1
    outer loop
      vertex -13.3887 8.92165 -2
      vertex -13.7 7.85 -2
      vertex -13.4526 8.81351 -2
    endloop
  endfacet
  facet normal 0 0 -1
    outer loop
      vertex -13.7 -7.85 -2
      vertex -13.5596 -8.58625 -2
      vertex -13.6021 -8.46803 -2
    endloop
  endfacet
  facet normal 0 0 -1
    outer loop
      vertex -13.4526 8.81351 -2
      vertex -13.7 7.85 -2
      vertex -13.5097 8.70156 -2
    endloop
  endfacet
  facet normal 0 0 -1
    outer loop
      vertex -13.7 -7.85 -2
      vertex -13.6021 -8.46803 -2
      vertex -13.6372 -8.34738 -2
    endloop
  endfacet
  facet normal 0 0 -1
    outer loop
      vertex -13.5097 8.70156 -2
      vertex -13.7 7.85 -2
      vertex -13.5596 8.58625 -2
    endloop
  endfacet
  facet normal 0 0 -1
    outer loop
      vertex -13.7 -7.85 -2
      vertex -13.6372 -8.34738 -2
      vertex -13.6646 -8.22476 -2
    endloop
  endfacet
  facet normal 0 0 -1
    outer loop
      vertex -13.5596 8.58625 -2
      vertex -13.7 7.85 -2
      vertex -13.6021 8.46803 -2
    endloop
  endfacet
  facet normal 0 0 -1
    outer loop
      vertex -13.7 -7.85 -2
      vertex -13.6646 -8.22476 -2
      vertex -13.6842 -8.10067 -2
    endloop
  endfacet
  facet normal 0 0 -1
    outer loop
      vertex -13.6021 8.46803 -2
      vertex -13.7 7.85 -2
      vertex -13.6372 8.34738 -2
    endloop
  endfacet
  facet normal 0 0 -1
    outer loop
      vertex -13.7 -7.85 -2
      vertex -13.6842 -8.10067 -2
      vertex -13.6961 -7.97558 -2
    endloop
  endfacet
  facet normal 0 0 -1
    outer loop
      vertex -13.6372 8.34738 -2
      vertex -13.7 7.85 -2
      vertex -13.6646 8.22476 -2
    endloop
  endfacet
  facet normal 0 0 -1
    outer loop
      vertex -13.6646 8.22476 -2
      vertex -13.7 7.85 -2
      vertex -13.6842 8.10067 -2
    endloop
  endfacet
  facet normal 0 0 -1
    outer loop
      vertex -13.6842 8.10067 -2
      vertex -13.7 7.85 -2
      vertex -13.6961 7.97558 -2
    endloop
  endfacet
  facet normal -0.995562 -0.0941049 0
    outer loop
      vertex -13.6842 -8.10067 -2
      vertex -13.6961 -7.97558 0
      vertex -13.6961 -7.97558 -2
    endloop
  endfacet
  facet normal -0.995562 -0.0941049 0
    outer loop
      vertex -13.6961 -7.97558 0
      vertex -13.6842 -8.10067 -2
      vertex -13.6842 -8.10067 0
    endloop
  endfacet
  facet normal -0.218147 -0.975916 0
    outer loop
      vertex -12.1974 -9.78717 -2
      vertex -12.0748 -9.81457 0
      vertex -12.1974 -9.78717 0
    endloop
  endfacet
  facet normal -0.218147 -0.975916 -0
    outer loop
      vertex -12.0748 -9.81457 0
      vertex -12.1974 -9.78717 -2
      vertex -12.0748 -9.81457 -2
    endloop
  endfacet
  facet normal -0.707107 -0.707107 0
    outer loop
      vertex -13.0691 -9.30794 -2
      vertex -13.1579 -9.21909 0
      vertex -13.1579 -9.21909 -2
    endloop
  endfacet
  facet normal -0.707107 -0.707107 0
    outer loop
      vertex -13.1579 -9.21909 0
      vertex -13.0691 -9.30794 -2
      vertex -13.0691 -9.30794 0
    endloop
  endfacet
  facet normal -0.0941124 -0.995562 0
    outer loop
      vertex -11.9507 -9.83423 -2
      vertex -11.8256 -9.84605 0
      vertex -11.9507 -9.83423 0
    endloop
  endfacet
  facet normal -0.0941124 -0.995562 -0
    outer loop
      vertex -11.8256 -9.84605 0
      vertex -11.9507 -9.83423 -2
      vertex -11.8256 -9.84605 -2
    endloop
  endfacet
  facet normal -0.15643 -0.987689 0
    outer loop
      vertex -12.0748 -9.81457 -2
      vertex -11.9507 -9.83423 0
      vertex -12.0748 -9.81457 0
    endloop
  endfacet
  facet normal -0.15643 -0.987689 -0
    outer loop
      vertex -11.9507 -9.83423 0
      vertex -12.0748 -9.81457 -2
      vertex -11.9507 -9.83423 -2
    endloop
  endfacet
  facet normal -0.661312 -0.750111 0
    outer loop
      vertex -13.0691 -9.30794 -2
      vertex -12.9748 -9.39103 0
      vertex -13.0691 -9.30794 0
    endloop
  endfacet
  facet normal -0.661312 -0.750111 -0
    outer loop
      vertex -12.9748 -9.39103 0
      vertex -13.0691 -9.30794 -2
      vertex -12.9748 -9.39103 -2
    endloop
  endfacet
  facet normal -0.562081 -0.827082 0
    outer loop
      vertex -12.8756 -9.46803 -2
      vertex -12.7717 -9.53866 0
      vertex -12.8756 -9.46803 0
    endloop
  endfacet
  facet normal -0.562081 -0.827082 -0
    outer loop
      vertex -12.7717 -9.53866 0
      vertex -12.8756 -9.46803 -2
      vertex -12.7717 -9.53866 -2
    endloop
  endfacet
  facet normal -0.278991 -0.960294 0
    outer loop
      vertex -12.318 -9.75211 -2
      vertex -12.1974 -9.78717 0
      vertex -12.318 -9.75211 0
    endloop
  endfacet
  facet normal -0.278991 -0.960294 -0
    outer loop
      vertex -12.1974 -9.78717 0
      vertex -12.318 -9.75211 -2
      vertex -12.1974 -9.78717 -2
    endloop
  endfacet
  facet normal -0.509038 -0.860744 0
    outer loop
      vertex -12.7717 -9.53866 -2
      vertex -12.6635 -9.60261 0
      vertex -12.7717 -9.53866 0
    endloop
  endfacet
  facet normal -0.509038 -0.860744 -0
    outer loop
      vertex -12.6635 -9.60261 0
      vertex -12.7717 -9.53866 -2
      vertex -12.6635 -9.60261 -2
    endloop
  endfacet
  facet normal -0.397149 -0.917754 0
    outer loop
      vertex -12.5516 -9.65965 -2
      vertex -12.4362 -9.70955 0
      vertex -12.5516 -9.65965 0
    endloop
  endfacet
  facet normal -0.397149 -0.917754 -0
    outer loop
      vertex -12.4362 -9.70955 0
      vertex -12.5516 -9.65965 -2
      vertex -12.4362 -9.70955 -2
    endloop
  endfacet
  facet normal -0.612911 -0.790152 0
    outer loop
      vertex -12.9748 -9.39103 -2
      vertex -12.8756 -9.46803 0
      vertex -12.9748 -9.39103 0
    endloop
  endfacet
  facet normal -0.612911 -0.790152 -0
    outer loop
      vertex -12.8756 -9.46803 0
      vertex -12.9748 -9.39103 -2
      vertex -12.8756 -9.46803 -2
    endloop
  endfacet
  facet normal -0.860742 -0.509042 0
    outer loop
      vertex -13.3887 -8.92165 -2
      vertex -13.4526 -8.81351 0
      vertex -13.4526 -8.81351 -2
    endloop
  endfacet
  facet normal -0.860742 -0.509042 0
    outer loop
      vertex -13.4526 -8.81351 0
      vertex -13.3887 -8.92165 -2
      vertex -13.3887 -8.92165 0
    endloop
  endfacet
  facet normal -0.891005 -0.453993 0
    outer loop
      vertex -13.4526 -8.81351 -2
      vertex -13.5097 -8.70156 0
      vertex -13.5097 -8.70156 -2
    endloop
  endfacet
  facet normal -0.891005 -0.453993 0
    outer loop
      vertex -13.5097 -8.70156 0
      vertex -13.4526 -8.81351 -2
      vertex -13.4526 -8.81351 0
    endloop
  endfacet
  facet normal -0.453996 -0.891004 0
    outer loop
      vertex -12.6635 -9.60261 -2
      vertex -12.5516 -9.65965 0
      vertex -12.6635 -9.60261 0
    endloop
  endfacet
  facet normal -0.453996 -0.891004 -0
    outer loop
      vertex -12.5516 -9.65965 0
      vertex -12.6635 -9.60261 -2
      vertex -12.5516 -9.65965 -2
    endloop
  endfacet
  facet normal -0.397149 0.917754 0
    outer loop
      vertex -12.4362 9.70955 -2
      vertex -12.5516 9.65965 0
      vertex -12.4362 9.70955 0
    endloop
  endfacet
  facet normal -0.397149 0.917754 0
    outer loop
      vertex -12.5516 9.65965 0
      vertex -12.4362 9.70955 -2
      vertex -12.5516 9.65965 -2
    endloop
  endfacet
  facet normal -0.917757 0.397142 0
    outer loop
      vertex -13.5596 8.58625 -2
      vertex -13.5097 8.70156 0
      vertex -13.5097 8.70156 -2
    endloop
  endfacet
  facet normal -0.917757 0.397142 0
    outer loop
      vertex -13.5097 8.70156 0
      vertex -13.5596 8.58625 -2
      vertex -13.5596 8.58625 0
    endloop
  endfacet
  facet normal -0.987688 0.156437 0
    outer loop
      vertex -13.6842 8.10067 -2
      vertex -13.6646 8.22476 0
      vertex -13.6646 8.22476 -2
    endloop
  endfacet
  facet normal -0.987688 0.156437 0
    outer loop
      vertex -13.6646 8.22476 0
      vertex -13.6842 8.10067 -2
      vertex -13.6842 8.10067 0
    endloop
  endfacet
  facet normal -0.750111 0.661312 0
    outer loop
      vertex -13.241 9.12485 -2
      vertex -13.1579 9.21909 0
      vertex -13.1579 9.21909 -2
    endloop
  endfacet
  facet normal -0.750111 0.661312 0
    outer loop
      vertex -13.1579 9.21909 0
      vertex -13.241 9.12485 -2
      vertex -13.241 9.12485 0
    endloop
  endfacet
  facet normal -0.218147 0.975916 0
    outer loop
      vertex -12.0748 9.81457 -2
      vertex -12.1974 9.78717 0
      vertex -12.0748 9.81457 0
    endloop
  endfacet
  facet normal -0.218147 0.975916 0
    outer loop
      vertex -12.1974 9.78717 0
      vertex -12.0748 9.81457 -2
      vertex -12.1974 9.78717 -2
    endloop
  endfacet
  facet normal -0.0314089 0.999507 0
    outer loop
      vertex -11.7 9.85 -2
      vertex -11.8256 9.84605 0
      vertex -11.7 9.85 0
    endloop
  endfacet
  facet normal -0.0314089 0.999507 0
    outer loop
      vertex -11.8256 9.84605 0
      vertex -11.7 9.85 -2
      vertex -11.8256 9.84605 -2
    endloop
  endfacet
  facet normal -0.999506 0.0314165 0
    outer loop
      vertex -13.7 7.85 -2
      vertex -13.6961 7.97558 0
      vertex -13.6961 7.97558 -2
    endloop
  endfacet
  facet normal -0.999506 0.0314165 0
    outer loop
      vertex -13.6961 7.97558 0
      vertex -13.7 7.85 -2
      vertex -13.7 7.85 0
    endloop
  endfacet
  facet normal -0.975918 0.218138 0
    outer loop
      vertex -13.6646 8.22476 -2
      vertex -13.6372 8.34738 0
      vertex -13.6372 8.34738 -2
    endloop
  endfacet
  facet normal -0.975918 0.218138 0
    outer loop
      vertex -13.6372 8.34738 0
      vertex -13.6646 8.22476 -2
      vertex -13.6646 8.22476 0
    endloop
  endfacet
  facet normal -0.827079 0.562086 0
    outer loop
      vertex -13.3887 8.92165 -2
      vertex -13.318 9.02557 0
      vertex -13.318 9.02557 -2
    endloop
  endfacet
  facet normal -0.827079 0.562086 0
    outer loop
      vertex -13.318 9.02557 0
      vertex -13.3887 8.92165 -2
      vertex -13.3887 8.92165 0
    endloop
  endfacet
  facet normal -0.15643 0.987689 0
    outer loop
      vertex -11.9507 9.83423 -2
      vertex -12.0748 9.81457 0
      vertex -11.9507 9.83423 0
    endloop
  endfacet
  facet normal -0.15643 0.987689 0
    outer loop
      vertex -12.0748 9.81457 0
      vertex -11.9507 9.83423 -2
      vertex -12.0748 9.81457 -2
    endloop
  endfacet
  facet normal -0.562081 0.827082 0
    outer loop
      vertex -12.7717 9.53866 -2
      vertex -12.8756 9.46803 0
      vertex -12.7717 9.53866 0
    endloop
  endfacet
  facet normal -0.562081 0.827082 0
    outer loop
      vertex -12.8756 9.46803 0
      vertex -12.7717 9.53866 -2
      vertex -12.8756 9.46803 -2
    endloop
  endfacet
  facet normal -0.509038 0.860744 0
    outer loop
      vertex -12.6635 9.60261 -2
      vertex -12.7717 9.53866 0
      vertex -12.6635 9.60261 0
    endloop
  endfacet
  facet normal -0.509038 0.860744 0
    outer loop
      vertex -12.7717 9.53866 0
      vertex -12.6635 9.60261 -2
      vertex -12.7717 9.53866 -2
    endloop
  endfacet
  facet normal -0.707107 0.707107 0
    outer loop
      vertex -13.1579 9.21909 -2
      vertex -13.0691 9.30794 0
      vertex -13.0691 9.30794 -2
    endloop
  endfacet
  facet normal -0.707107 0.707107 0
    outer loop
      vertex -13.0691 9.30794 0
      vertex -13.1579 9.21909 -2
      vertex -13.1579 9.21909 0
    endloop
  endfacet
  facet normal -0.960294 0.278991 0
    outer loop
      vertex -13.6372 8.34738 -2
      vertex -13.6021 8.46803 0
      vertex -13.6021 8.46803 -2
    endloop
  endfacet
  facet normal -0.960294 0.278991 0
    outer loop
      vertex -13.6021 8.46803 0
      vertex -13.6372 8.34738 -2
      vertex -13.6372 8.34738 0
    endloop
  endfacet
  facet normal -0.940879 0.338743 0
    outer loop
      vertex -13.6021 8.46803 -2
      vertex -13.5596 8.58625 0
      vertex -13.5596 8.58625 -2
    endloop
  endfacet
  facet normal -0.940879 0.338743 0
    outer loop
      vertex -13.5596 8.58625 0
      vertex -13.6021 8.46803 -2
      vertex -13.6021 8.46803 0
    endloop
  endfacet
  facet normal -0.995562 0.0941049 0
    outer loop
      vertex -13.6961 7.97558 -2
      vertex -13.6842 8.10067 0
      vertex -13.6842 8.10067 -2
    endloop
  endfacet
  facet normal -0.995562 0.0941049 0
    outer loop
      vertex -13.6842 8.10067 0
      vertex -13.6961 7.97558 -2
      vertex -13.6961 7.97558 0
    endloop
  endfacet
  facet normal -0.860742 0.509042 0
    outer loop
      vertex -13.4526 8.81351 -2
      vertex -13.3887 8.92165 0
      vertex -13.3887 8.92165 -2
    endloop
  endfacet
  facet normal -0.860742 0.509042 0
    outer loop
      vertex -13.3887 8.92165 0
      vertex -13.4526 8.81351 -2
      vertex -13.4526 8.81351 0
    endloop
  endfacet
  facet normal -0.891005 0.453993 0
    outer loop
      vertex -13.5097 8.70156 -2
      vertex -13.4526 8.81351 0
      vertex -13.4526 8.81351 -2
    endloop
  endfacet
  facet normal -0.891005 0.453993 0
    outer loop
      vertex -13.4526 8.81351 0
      vertex -13.5097 8.70156 -2
      vertex -13.5097 8.70156 0
    endloop
  endfacet
  facet normal -0.790156 0.612906 0
    outer loop
      vertex -13.318 9.02557 -2
      vertex -13.241 9.12485 0
      vertex -13.241 9.12485 -2
    endloop
  endfacet
  facet normal -0.790156 0.612906 0
    outer loop
      vertex -13.241 9.12485 0
      vertex -13.318 9.02557 -2
      vertex -13.318 9.02557 0
    endloop
  endfacet
  facet normal -0.278991 0.960294 0
    outer loop
      vertex -12.1974 9.78717 -2
      vertex -12.318 9.75211 0
      vertex -12.1974 9.78717 0
    endloop
  endfacet
  facet normal -0.278991 0.960294 0
    outer loop
      vertex -12.318 9.75211 0
      vertex -12.1974 9.78717 -2
      vertex -12.318 9.75211 -2
    endloop
  endfacet
  facet normal -0.338734 0.940882 0
    outer loop
      vertex -12.318 9.75211 -2
      vertex -12.4362 9.70955 0
      vertex -12.318 9.75211 0
    endloop
  endfacet
  facet normal -0.338734 0.940882 0
    outer loop
      vertex -12.4362 9.70955 0
      vertex -12.318 9.75211 -2
      vertex -12.4362 9.70955 -2
    endloop
  endfacet
  facet normal -0.0941124 0.995562 0
    outer loop
      vertex -11.8256 9.84605 -2
      vertex -11.9507 9.83423 0
      vertex -11.8256 9.84605 0
    endloop
  endfacet
  facet normal -0.0941124 0.995562 0
    outer loop
      vertex -11.9507 9.83423 0
      vertex -11.8256 9.84605 -2
      vertex -11.9507 9.83423 -2
    endloop
  endfacet
  facet normal -0.453996 0.891004 0
    outer loop
      vertex -12.5516 9.65965 -2
      vertex -12.6635 9.60261 0
      vertex -12.5516 9.65965 0
    endloop
  endfacet
  facet normal -0.453996 0.891004 0
    outer loop
      vertex -12.6635 9.60261 0
      vertex -12.5516 9.65965 -2
      vertex -12.6635 9.60261 -2
    endloop
  endfacet
  facet normal -0.661312 0.750111 0
    outer loop
      vertex -12.9748 9.39103 -2
      vertex -13.0691 9.30794 0
      vertex -12.9748 9.39103 0
    endloop
  endfacet
  facet normal -0.661312 0.750111 0
    outer loop
      vertex -13.0691 9.30794 0
      vertex -12.9748 9.39103 -2
      vertex -13.0691 9.30794 -2
    endloop
  endfacet
  facet normal -0.612911 0.790152 0
    outer loop
      vertex -12.8756 9.46803 -2
      vertex -12.9748 9.39103 0
      vertex -12.8756 9.46803 0
    endloop
  endfacet
  facet normal -0.612911 0.790152 0
    outer loop
      vertex -12.9748 9.39103 0
      vertex -12.8756 9.46803 -2
      vertex -12.9748 9.39103 -2
    endloop
  endfacet
  facet normal 0.999506 -0.0314165 0
    outer loop
      vertex 13.6961 -7.97558 0
      vertex 13.7 -7.85 -2
      vertex 13.7 -7.85 0
    endloop
  endfacet
  facet normal 0.999506 -0.0314165 0
    outer loop
      vertex 13.7 -7.85 -2
      vertex 13.6961 -7.97558 0
      vertex 13.6961 -7.97558 -2
    endloop
  endfacet
  facet normal 0.278991 -0.960294 0
    outer loop
      vertex 12.1974 -9.78717 -2
      vertex 12.318 -9.75211 0
      vertex 12.1974 -9.78717 0
    endloop
  endfacet
  facet normal 0.278991 -0.960294 0
    outer loop
      vertex 12.318 -9.75211 0
      vertex 12.1974 -9.78717 -2
      vertex 12.318 -9.75211 -2
    endloop
  endfacet
  facet normal 0.707107 -0.707107 0
    outer loop
      vertex 13.0691 -9.30794 0
      vertex 13.1579 -9.21909 -2
      vertex 13.1579 -9.21909 0
    endloop
  endfacet
  facet normal 0.707107 -0.707107 0
    outer loop
      vertex 13.1579 -9.21909 -2
      vertex 13.0691 -9.30794 0
      vertex 13.0691 -9.30794 -2
    endloop
  endfacet
  facet normal 0.0314089 -0.999507 0
    outer loop
      vertex 11.7 -9.85 -2
      vertex 11.8256 -9.84605 0
      vertex 11.7 -9.85 0
    endloop
  endfacet
  facet normal 0.0314089 -0.999507 0
    outer loop
      vertex 11.8256 -9.84605 0
      vertex 11.7 -9.85 -2
      vertex 11.8256 -9.84605 -2
    endloop
  endfacet
  facet normal 0.218147 -0.975916 0
    outer loop
      vertex 12.0748 -9.81457 -2
      vertex 12.1974 -9.78717 0
      vertex 12.0748 -9.81457 0
    endloop
  endfacet
  facet normal 0.218147 -0.975916 0
    outer loop
      vertex 12.1974 -9.78717 0
      vertex 12.0748 -9.81457 -2
      vertex 12.1974 -9.78717 -2
    endloop
  endfacet
  facet normal 0.0941124 -0.995562 0
    outer loop
      vertex 11.8256 -9.84605 -2
      vertex 11.9507 -9.83423 0
      vertex 11.8256 -9.84605 0
    endloop
  endfacet
  facet normal 0.0941124 -0.995562 0
    outer loop
      vertex 11.9507 -9.83423 0
      vertex 11.8256 -9.84605 -2
      vertex 11.9507 -9.83423 -2
    endloop
  endfacet
  facet normal 0.995562 -0.0941049 0
    outer loop
      vertex 13.6842 -8.10067 0
      vertex 13.6961 -7.97558 -2
      vertex 13.6961 -7.97558 0
    endloop
  endfacet
  facet normal 0.995562 -0.0941049 0
    outer loop
      vertex 13.6961 -7.97558 -2
      vertex 13.6842 -8.10067 0
      vertex 13.6842 -8.10067 -2
    endloop
  endfacet
  facet normal 0.960294 -0.278991 0
    outer loop
      vertex 13.6021 -8.46803 0
      vertex 13.6372 -8.34738 -2
      vertex 13.6372 -8.34738 0
    endloop
  endfacet
  facet normal 0.960294 -0.278991 0
    outer loop
      vertex 13.6372 -8.34738 -2
      vertex 13.6021 -8.46803 0
      vertex 13.6021 -8.46803 -2
    endloop
  endfacet
  facet normal 0.917757 -0.397142 0
    outer loop
      vertex 13.5097 -8.70156 0
      vertex 13.5596 -8.58625 -2
      vertex 13.5596 -8.58625 0
    endloop
  endfacet
  facet normal 0.917757 -0.397142 0
    outer loop
      vertex 13.5596 -8.58625 -2
      vertex 13.5097 -8.70156 0
      vertex 13.5097 -8.70156 -2
    endloop
  endfacet
  facet normal 0.750111 -0.661312 0
    outer loop
      vertex 13.1579 -9.21909 0
      vertex 13.241 -9.12485 -2
      vertex 13.241 -9.12485 0
    endloop
  endfacet
  facet normal 0.750111 -0.661312 0
    outer loop
      vertex 13.241 -9.12485 -2
      vertex 13.1579 -9.21909 0
      vertex 13.1579 -9.21909 -2
    endloop
  endfacet
  facet normal 0.15643 -0.987689 0
    outer loop
      vertex 11.9507 -9.83423 -2
      vertex 12.0748 -9.81457 0
      vertex 11.9507 -9.83423 0
    endloop
  endfacet
  facet normal 0.15643 -0.987689 0
    outer loop
      vertex 12.0748 -9.81457 0
      vertex 11.9507 -9.83423 -2
      vertex 12.0748 -9.81457 -2
    endloop
  endfacet
  facet normal 0.397149 -0.917754 0
    outer loop
      vertex 12.4362 -9.70955 -2
      vertex 12.5516 -9.65965 0
      vertex 12.4362 -9.70955 0
    endloop
  endfacet
  facet normal 0.397149 -0.917754 0
    outer loop
      vertex 12.5516 -9.65965 0
      vertex 12.4362 -9.70955 -2
      vertex 12.5516 -9.65965 -2
    endloop
  endfacet
  facet normal 0.338734 -0.940882 0
    outer loop
      vertex 12.318 -9.75211 -2
      vertex 12.4362 -9.70955 0
      vertex 12.318 -9.75211 0
    endloop
  endfacet
  facet normal 0.338734 -0.940882 0
    outer loop
      vertex 12.4362 -9.70955 0
      vertex 12.318 -9.75211 -2
      vertex 12.4362 -9.70955 -2
    endloop
  endfacet
  facet normal 0.612911 -0.790152 0
    outer loop
      vertex 12.8756 -9.46803 -2
      vertex 12.9748 -9.39103 0
      vertex 12.8756 -9.46803 0
    endloop
  endfacet
  facet normal 0.612911 -0.790152 0
    outer loop
      vertex 12.9748 -9.39103 0
      vertex 12.8756 -9.46803 -2
      vertex 12.9748 -9.39103 -2
    endloop
  endfacet
  facet normal 0.453996 -0.891004 0
    outer loop
      vertex 12.5516 -9.65965 -2
      vertex 12.6635 -9.60261 0
      vertex 12.5516 -9.65965 0
    endloop
  endfacet
  facet normal 0.453996 -0.891004 0
    outer loop
      vertex 12.6635 -9.60261 0
      vertex 12.5516 -9.65965 -2
      vertex 12.6635 -9.60261 -2
    endloop
  endfacet
  facet normal 0.562081 -0.827082 0
    outer loop
      vertex 12.7717 -9.53866 -2
      vertex 12.8756 -9.46803 0
      vertex 12.7717 -9.53866 0
    endloop
  endfacet
  facet normal 0.562081 -0.827082 0
    outer loop
      vertex 12.8756 -9.46803 0
      vertex 12.7717 -9.53866 -2
      vertex 12.8756 -9.46803 -2
    endloop
  endfacet
  facet normal 0.975918 -0.218138 0
    outer loop
      vertex 13.6372 -8.34738 0
      vertex 13.6646 -8.22476 -2
      vertex 13.6646 -8.22476 0
    endloop
  endfacet
  facet normal 0.975918 -0.218138 0
    outer loop
      vertex 13.6646 -8.22476 -2
      vertex 13.6372 -8.34738 0
      vertex 13.6372 -8.34738 -2
    endloop
  endfacet
  facet normal 0.940879 -0.338743 0
    outer loop
      vertex 13.5596 -8.58625 0
      vertex 13.6021 -8.46803 -2
      vertex 13.6021 -8.46803 0
    endloop
  endfacet
  facet normal 0.940879 -0.338743 0
    outer loop
      vertex 13.6021 -8.46803 -2
      vertex 13.5596 -8.58625 0
      vertex 13.5596 -8.58625 -2
    endloop
  endfacet
  facet normal 0.661312 -0.750111 0
    outer loop
      vertex 12.9748 -9.39103 -2
      vertex 13.0691 -9.30794 0
      vertex 12.9748 -9.39103 0
    endloop
  endfacet
  facet normal 0.661312 -0.750111 0
    outer loop
      vertex 13.0691 -9.30794 0
      vertex 12.9748 -9.39103 -2
      vertex 13.0691 -9.30794 -2
    endloop
  endfacet
  facet normal 0.509038 -0.860744 0
    outer loop
      vertex 12.6635 -9.60261 -2
      vertex 12.7717 -9.53866 0
      vertex 12.6635 -9.60261 0
    endloop
  endfacet
  facet normal 0.509038 -0.860744 0
    outer loop
      vertex 12.7717 -9.53866 0
      vertex 12.6635 -9.60261 -2
      vertex 12.7717 -9.53866 -2
    endloop
  endfacet
  facet normal 0.987688 -0.156437 0
    outer loop
      vertex 13.6646 -8.22476 0
      vertex 13.6842 -8.10067 -2
      vertex 13.6842 -8.10067 0
    endloop
  endfacet
  facet normal 0.987688 -0.156437 0
    outer loop
      vertex 13.6842 -8.10067 -2
      vertex 13.6646 -8.22476 0
      vertex 13.6646 -8.22476 -2
    endloop
  endfacet
  facet normal 0.860742 -0.509042 0
    outer loop
      vertex 13.3887 -8.92165 0
      vertex 13.4526 -8.81351 -2
      vertex 13.4526 -8.81351 0
    endloop
  endfacet
  facet normal 0.860742 -0.509042 0
    outer loop
      vertex 13.4526 -8.81351 -2
      vertex 13.3887 -8.92165 0
      vertex 13.3887 -8.92165 -2
    endloop
  endfacet
  facet normal 0.827079 -0.562086 0
    outer loop
      vertex 13.318 -9.02557 0
      vertex 13.3887 -8.92165 -2
      vertex 13.3887 -8.92165 0
    endloop
  endfacet
  facet normal 0.827079 -0.562086 0
    outer loop
      vertex 13.3887 -8.92165 -2
      vertex 13.318 -9.02557 0
      vertex 13.318 -9.02557 -2
    endloop
  endfacet
  facet normal 0.790156 -0.612906 0
    outer loop
      vertex 13.241 -9.12485 0
      vertex 13.318 -9.02557 -2
      vertex 13.318 -9.02557 0
    endloop
  endfacet
  facet normal 0.790156 -0.612906 0
    outer loop
      vertex 13.318 -9.02557 -2
      vertex 13.241 -9.12485 0
      vertex 13.241 -9.12485 -2
    endloop
  endfacet
  facet normal 0.891005 -0.453993 0
    outer loop
      vertex 13.4526 -8.81351 0
      vertex 13.5097 -8.70156 -2
      vertex 13.5097 -8.70156 0
    endloop
  endfacet
  facet normal 0.891005 -0.453993 0
    outer loop
      vertex 13.5097 -8.70156 -2
      vertex 13.4526 -8.81351 0
      vertex 13.4526 -8.81351 -2
    endloop
  endfacet
  facet normal 0.661312 0.750111 -0
    outer loop
      vertex 13.0691 9.30794 -2
      vertex 12.9748 9.39103 0
      vertex 13.0691 9.30794 0
    endloop
  endfacet
  facet normal 0.661312 0.750111 0
    outer loop
      vertex 12.9748 9.39103 0
      vertex 13.0691 9.30794 -2
      vertex 12.9748 9.39103 -2
    endloop
  endfacet
  facet normal 0.891005 0.453993 0
    outer loop
      vertex 13.5097 8.70156 0
      vertex 13.4526 8.81351 -2
      vertex 13.4526 8.81351 0
    endloop
  endfacet
  facet normal 0.891005 0.453993 0
    outer loop
      vertex 13.4526 8.81351 -2
      vertex 13.5097 8.70156 0
      vertex 13.5097 8.70156 -2
    endloop
  endfacet
  facet normal 0.397149 0.917754 -0
    outer loop
      vertex 12.5516 9.65965 -2
      vertex 12.4362 9.70955 0
      vertex 12.5516 9.65965 0
    endloop
  endfacet
  facet normal 0.397149 0.917754 0
    outer loop
      vertex 12.4362 9.70955 0
      vertex 12.5516 9.65965 -2
      vertex 12.4362 9.70955 -2
    endloop
  endfacet
  facet normal 0.995562 0.0941049 0
    outer loop
      vertex 13.6961 7.97558 0
      vertex 13.6842 8.10067 -2
      vertex 13.6842 8.10067 0
    endloop
  endfacet
  facet normal 0.995562 0.0941049 0
    outer loop
      vertex 13.6842 8.10067 -2
      vertex 13.6961 7.97558 0
      vertex 13.6961 7.97558 -2
    endloop
  endfacet
  facet normal 0.975918 0.218138 0
    outer loop
      vertex 13.6646 8.22476 0
      vertex 13.6372 8.34738 -2
      vertex 13.6372 8.34738 0
    endloop
  endfacet
  facet normal 0.975918 0.218138 0
    outer loop
      vertex 13.6372 8.34738 -2
      vertex 13.6646 8.22476 0
      vertex 13.6646 8.22476 -2
    endloop
  endfacet
  facet normal 0.960294 0.278991 0
    outer loop
      vertex 13.6372 8.34738 0
      vertex 13.6021 8.46803 -2
      vertex 13.6021 8.46803 0
    endloop
  endfacet
  facet normal 0.960294 0.278991 0
    outer loop
      vertex 13.6021 8.46803 -2
      vertex 13.6372 8.34738 0
      vertex 13.6372 8.34738 -2
    endloop
  endfacet
  facet normal 0.790156 0.612906 0
    outer loop
      vertex 13.318 9.02557 0
      vertex 13.241 9.12485 -2
      vertex 13.241 9.12485 0
    endloop
  endfacet
  facet normal 0.790156 0.612906 0
    outer loop
      vertex 13.241 9.12485 -2
      vertex 13.318 9.02557 0
      vertex 13.318 9.02557 -2
    endloop
  endfacet
  facet normal 0.827079 0.562086 0
    outer loop
      vertex 13.3887 8.92165 0
      vertex 13.318 9.02557 -2
      vertex 13.318 9.02557 0
    endloop
  endfacet
  facet normal 0.827079 0.562086 0
    outer loop
      vertex 13.318 9.02557 -2
      vertex 13.3887 8.92165 0
      vertex 13.3887 8.92165 -2
    endloop
  endfacet
  facet normal 0.562081 0.827082 -0
    outer loop
      vertex 12.8756 9.46803 -2
      vertex 12.7717 9.53866 0
      vertex 12.8756 9.46803 0
    endloop
  endfacet
  facet normal 0.562081 0.827082 0
    outer loop
      vertex 12.7717 9.53866 0
      vertex 12.8756 9.46803 -2
      vertex 12.7717 9.53866 -2
    endloop
  endfacet
  facet normal 0.218147 0.975916 -0
    outer loop
      vertex 12.1974 9.78717 -2
      vertex 12.0748 9.81457 0
      vertex 12.1974 9.78717 0
    endloop
  endfacet
  facet normal 0.218147 0.975916 0
    outer loop
      vertex 12.0748 9.81457 0
      vertex 12.1974 9.78717 -2
      vertex 12.0748 9.81457 -2
    endloop
  endfacet
  facet normal 0.999506 0.0314165 0
    outer loop
      vertex 13.7 7.85 0
      vertex 13.6961 7.97558 -2
      vertex 13.6961 7.97558 0
    endloop
  endfacet
  facet normal 0.999506 0.0314165 0
    outer loop
      vertex 13.6961 7.97558 -2
      vertex 13.7 7.85 0
      vertex 13.7 7.85 -2
    endloop
  endfacet
  facet normal 0.987688 0.156437 0
    outer loop
      vertex 13.6842 8.10067 0
      vertex 13.6646 8.22476 -2
      vertex 13.6646 8.22476 0
    endloop
  endfacet
  facet normal 0.987688 0.156437 0
    outer loop
      vertex 13.6646 8.22476 -2
      vertex 13.6842 8.10067 0
      vertex 13.6842 8.10067 -2
    endloop
  endfacet
  facet normal 0.917757 0.397142 0
    outer loop
      vertex 13.5596 8.58625 0
      vertex 13.5097 8.70156 -2
      vertex 13.5097 8.70156 0
    endloop
  endfacet
  facet normal 0.917757 0.397142 0
    outer loop
      vertex 13.5097 8.70156 -2
      vertex 13.5596 8.58625 0
      vertex 13.5596 8.58625 -2
    endloop
  endfacet
  facet normal 0.940879 0.338743 0
    outer loop
      vertex 13.6021 8.46803 0
      vertex 13.5596 8.58625 -2
      vertex 13.5596 8.58625 0
    endloop
  endfacet
  facet normal 0.940879 0.338743 0
    outer loop
      vertex 13.5596 8.58625 -2
      vertex 13.6021 8.46803 0
      vertex 13.6021 8.46803 -2
    endloop
  endfacet
  facet normal 0.860742 0.509042 0
    outer loop
      vertex 13.4526 8.81351 0
      vertex 13.3887 8.92165 -2
      vertex 13.3887 8.92165 0
    endloop
  endfacet
  facet normal 0.860742 0.509042 0
    outer loop
      vertex 13.3887 8.92165 -2
      vertex 13.4526 8.81351 0
      vertex 13.4526 8.81351 -2
    endloop
  endfacet
  facet normal 0.750111 0.661312 0
    outer loop
      vertex 13.241 9.12485 0
      vertex 13.1579 9.21909 -2
      vertex 13.1579 9.21909 0
    endloop
  endfacet
  facet normal 0.750111 0.661312 0
    outer loop
      vertex 13.1579 9.21909 -2
      vertex 13.241 9.12485 0
      vertex 13.241 9.12485 -2
    endloop
  endfacet
  facet normal 0.707107 0.707107 0
    outer loop
      vertex 13.1579 9.21909 0
      vertex 13.0691 9.30794 -2
      vertex 13.0691 9.30794 0
    endloop
  endfacet
  facet normal 0.707107 0.707107 0
    outer loop
      vertex 13.0691 9.30794 -2
      vertex 13.1579 9.21909 0
      vertex 13.1579 9.21909 -2
    endloop
  endfacet
  facet normal 0.612911 0.790152 -0
    outer loop
      vertex 12.9748 9.39103 -2
      vertex 12.8756 9.46803 0
      vertex 12.9748 9.39103 0
    endloop
  endfacet
  facet normal 0.612911 0.790152 0
    outer loop
      vertex 12.8756 9.46803 0
      vertex 12.9748 9.39103 -2
      vertex 12.8756 9.46803 -2
    endloop
  endfacet
  facet normal 0.453996 0.891004 -0
    outer loop
      vertex 12.6635 9.60261 -2
      vertex 12.5516 9.65965 0
      vertex 12.6635 9.60261 0
    endloop
  endfacet
  facet normal 0.453996 0.891004 0
    outer loop
      vertex 12.5516 9.65965 0
      vertex 12.6635 9.60261 -2
      vertex 12.5516 9.65965 -2
    endloop
  endfacet
  facet normal 0.509038 0.860744 -0
    outer loop
      vertex 12.7717 9.53866 -2
      vertex 12.6635 9.60261 0
      vertex 12.7717 9.53866 0
    endloop
  endfacet
  facet normal 0.509038 0.860744 0
    outer loop
      vertex 12.6635 9.60261 0
      vertex 12.7717 9.53866 -2
      vertex 12.6635 9.60261 -2
    endloop
  endfacet
  facet normal 0.278991 0.960294 -0
    outer loop
      vertex 12.318 9.75211 -2
      vertex 12.1974 9.78717 0
      vertex 12.318 9.75211 0
    endloop
  endfacet
  facet normal 0.278991 0.960294 0
    outer loop
      vertex 12.1974 9.78717 0
      vertex 12.318 9.75211 -2
      vertex 12.1974 9.78717 -2
    endloop
  endfacet
  facet normal 0.338734 0.940882 -0
    outer loop
      vertex 12.4362 9.70955 -2
      vertex 12.318 9.75211 0
      vertex 12.4362 9.70955 0
    endloop
  endfacet
  facet normal 0.338734 0.940882 0
    outer loop
      vertex 12.318 9.75211 0
      vertex 12.4362 9.70955 -2
      vertex 12.318 9.75211 -2
    endloop
  endfacet
  facet normal 0.0941124 0.995562 -0
    outer loop
      vertex 11.9507 9.83423 -2
      vertex 11.8256 9.84605 0
      vertex 11.9507 9.83423 0
    endloop
  endfacet
  facet normal 0.0941124 0.995562 0
    outer loop
      vertex 11.8256 9.84605 0
      vertex 11.9507 9.83423 -2
      vertex 11.8256 9.84605 -2
    endloop
  endfacet
  facet normal 0.0314089 0.999507 -0
    outer loop
      vertex 11.8256 9.84605 -2
      vertex 11.7 9.85 0
      vertex 11.8256 9.84605 0
    endloop
  endfacet
  facet normal 0.0314089 0.999507 0
    outer loop
      vertex 11.7 9.85 0
      vertex 11.8256 9.84605 -2
      vertex 11.7 9.85 -2
    endloop
  endfacet
  facet normal 0.15643 0.987689 -0
    outer loop
      vertex 12.0748 9.81457 -2
      vertex 11.9507 9.83423 0
      vertex 12.0748 9.81457 0
    endloop
  endfacet
  facet normal 0.15643 0.987689 0
    outer loop
      vertex 11.9507 9.83423 0
      vertex 12.0748 9.81457 -2
      vertex 11.9507 9.83423 -2
    endloop
  endfacet
  facet normal 0 -1 0
    outer loop
      vertex -11.7 -9.85 -2
      vertex 11.7 -9.85 0
      vertex -11.7 -9.85 0
    endloop
  endfacet
  facet normal 0 -1 -0
    outer loop
      vertex 11.7 -9.85 0
      vertex -11.7 -9.85 -2
      vertex 11.7 -9.85 -2
    endloop
  endfacet
  facet normal 0 1 -0
    outer loop
      vertex 11.7 9.85 -2
      vertex -11.7 9.85 0
      vertex 11.7 9.85 0
    endloop
  endfacet
  facet normal 0 1 0
    outer loop
      vertex -11.7 9.85 0
      vertex 11.7 9.85 -2
      vertex -11.7 9.85 -2
    endloop
  endfacet
  facet normal -1 0 0
    outer loop
      vertex -13.7 -7.85 -2
      vertex -13.7 7.85 0
      vertex -13.7 7.85 -2
    endloop
  endfacet
  facet normal -1 -0 0
    outer loop
      vertex -13.7 7.85 0
      vertex -13.7 -7.85 -2
      vertex -13.7 -7.85 0
    endloop
  endfacet
  facet normal 1 -0 0
    outer loop
      vertex 13.7 -7.85 0
      vertex 13.7 7.85 -2
      vertex 13.7 7.85 0
    endloop
  endfacet
  facet normal 1 0 0
    outer loop
      vertex 13.7 7.85 -2
      vertex 13.7 -7.85 0
      vertex 13.7 -7.85 -2
    endloop
  endfacet
  facet normal -1 0 0
    outer loop
      vertex -9.7 -5.85 0
      vertex -9.7 5.85 17.5
      vertex -9.7 5.85 0
    endloop
  endfacet
  facet normal -1 -0 0
    outer loop
      vertex -9.7 5.85 17.5
      vertex -9.7 -5.85 0
      vertex -9.7 -5.85 17.5
    endloop
  endfacet
  facet normal 0 0 1
    outer loop
      vertex 4 -3.1 17.5
      vertex -4 -3.1 17.5
      vertex 4 -3.85 17.5
    endloop
  endfacet
  facet normal 0 0 1
    outer loop
      vertex 9.7 5.85 17.5
      vertex 7.7 3.85 17.5
      vertex 9.7 -5.85 17.5
    endloop
  endfacet
  facet normal 0 0 1
    outer loop
      vertex 9.7 5.85 17.5
      vertex 4 3.85 17.5
      vertex 7.7 3.85 17.5
    endloop
  endfacet
  facet normal 0 0 1
    outer loop
      vertex 4 3.85 17.5
      vertex -4 3.85 17.5
      vertex 4 3.1 17.5
    endloop
  endfacet
  facet normal 0 0 1
    outer loop
      vertex 9.7 5.85 17.5
      vertex -4 3.85 17.5
      vertex 4 3.85 17.5
    endloop
  endfacet
  facet normal -0 0 1
    outer loop
      vertex -9.7 5.85 17.5
      vertex -4 3.85 17.5
      vertex 9.7 5.85 17.5
    endloop
  endfacet
  facet normal 0 0 1
    outer loop
      vertex -7.7 3.85 17.5
      vertex -9.7 5.85 17.5
      vertex -7.7 -3.85 17.5
    endloop
  endfacet
  facet normal 0 0 1
    outer loop
      vertex -4 3.85 17.5
      vertex -9.7 5.85 17.5
      vertex -7.7 3.85 17.5
    endloop
  endfacet
  facet normal -0 0 1
    outer loop
      vertex 7.7 -3.85 17.5
      vertex 9.7 -5.85 17.5
      vertex 7.7 3.85 17.5
    endloop
  endfacet
  facet normal -0 0 1
    outer loop
      vertex 4 -3.85 17.5
      vertex 9.7 -5.85 17.5
      vertex 7.7 -3.85 17.5
    endloop
  endfacet
  facet normal 0 0 1
    outer loop
      vertex -4 -3.85 17.5
      vertex 4 -3.85 17.5
      vertex -4 -3.1 17.5
    endloop
  endfacet
  facet normal 0 0 1
    outer loop
      vertex 4 -3.85 17.5
      vertex -4 -3.85 17.5
      vertex 9.7 -5.85 17.5
    endloop
  endfacet
  facet normal 0 0 1
    outer loop
      vertex -9.7 -5.85 17.5
      vertex -4 -3.85 17.5
      vertex -7.7 -3.85 17.5
    endloop
  endfacet
  facet normal 0 0 1
    outer loop
      vertex -4 -3.85 17.5
      vertex -9.7 -5.85 17.5
      vertex 9.7 -5.85 17.5
    endloop
  endfacet
  facet normal 0 0 1
    outer loop
      vertex -9.7 -5.85 17.5
      vertex -7.7 -3.85 17.5
      vertex -9.7 5.85 17.5
    endloop
  endfacet
  facet normal 0 0 1
    outer loop
      vertex 4 3.1 17.5
      vertex -4 3.85 17.5
      vertex -4 3.1 17.5
    endloop
  endfacet
  facet normal 1 -0 0
    outer loop
      vertex 9.7 -5.85 17.5
      vertex 9.7 5.85 0
      vertex 9.7 5.85 17.5
    endloop
  endfacet
  facet normal 1 0 0
    outer loop
      vertex 9.7 5.85 0
      vertex 9.7 -5.85 17.5
      vertex 9.7 -5.85 0
    endloop
  endfacet
  facet normal 0 1 -0
    outer loop
      vertex 9.7 5.85 0
      vertex -9.7 5.85 17.5
      vertex 9.7 5.85 17.5
    endloop
  endfacet
  facet normal 0 1 0
    outer loop
      vertex -9.7 5.85 17.5
      vertex 9.7 5.85 0
      vertex -9.7 5.85 0
    endloop
  endfacet
  facet normal 0 -1 0
    outer loop
      vertex -9.7 -5.85 0
      vertex 9.7 -5.85 17.5
      vertex -9.7 -5.85 17.5
    endloop
  endfacet
  facet normal 0 -1 -0
    outer loop
      vertex 9.7 -5.85 17.5
      vertex -9.7 -5.85 0
      vertex 9.7 -5.85 0
    endloop
  endfacet
  facet normal 1 -0 0
    outer loop
      vertex -7.7 -3.85 17.5
      vertex -7.7 3.85 8.5
      vertex -7.7 3.85 17.5
    endloop
  endfacet
  facet normal 1 0 0
    outer loop
      vertex -7.7 3.85 8.5
      vertex -7.7 -3.85 17.5
      vertex -7.7 -3.85 8.5
    endloop
  endfacet
  facet normal -1 0 0
    outer loop
      vertex 7.7 -3.85 8.5
      vertex 7.7 3.85 17.5
      vertex 7.7 3.85 8.5
    endloop
  endfacet
  facet normal -1 -0 0
    outer loop
      vertex 7.7 3.85 17.5
      vertex 7.7 -3.85 8.5
      vertex 7.7 -3.85 17.5
    endloop
  endfacet
  facet normal 0 -1 0
    outer loop
      vertex -7.7 3.85 17.5
      vertex -4 3.85 16
      vertex -4 3.85 17.5
    endloop
  endfacet
  facet normal 0 -1 0
    outer loop
      vertex -4 3.85 16
      vertex -3.75 3.85 15.995
      vertex 4 3.85 16
    endloop
  endfacet
  facet normal 0 -1 0
    outer loop
      vertex -7.7 3.85 8.5
      vertex -4 3.85 16
      vertex -7.7 3.85 17.5
    endloop
  endfacet
  facet normal 0 -1 0
    outer loop
      vertex -3.75 3.85 8.5
      vertex -4 3.85 16
      vertex -7.7 3.85 8.5
    endloop
  endfacet
  facet normal 0 -1 0
    outer loop
      vertex -4 3.85 16
      vertex -3.75 3.85 8.5
      vertex -3.75 3.85 15.995
    endloop
  endfacet
  facet normal 0 -1 0
    outer loop
      vertex 4 3.85 16
      vertex 7.7 3.85 17.5
      vertex 4 3.85 17.5
    endloop
  endfacet
  facet normal 0 -1 0
    outer loop
      vertex 3.75 3.85 15.995
      vertex 4 3.85 16
      vertex -3.75 3.85 15.995
    endloop
  endfacet
  facet normal 0 -1 0
    outer loop
      vertex 3.75 3.85 8.5
      vertex 4 3.85 16
      vertex 3.75 3.85 15.995
    endloop
  endfacet
  facet normal 0 -1 0
    outer loop
      vertex 7.7 3.85 8.5
      vertex 4 3.85 16
      vertex 3.75 3.85 8.5
    endloop
  endfacet
  facet normal 0 -1 0
    outer loop
      vertex 4 3.85 16
      vertex 7.7 3.85 8.5
      vertex 7.7 3.85 17.5
    endloop
  endfacet
  facet normal 0 1 0
    outer loop
      vertex 7.7 -3.85 17.5
      vertex 4 -3.85 16
      vertex 4 -3.85 17.5
    endloop
  endfacet
  facet normal 0 1 0
    outer loop
      vertex 4 -3.85 16
      vertex 3.75 -3.85 15.995
      vertex -4 -3.85 16
    endloop
  endfacet
  facet normal 0 1 -0
    outer loop
      vertex 7.7 -3.85 8.5
      vertex 4 -3.85 16
      vertex 7.7 -3.85 17.5
    endloop
  endfacet
  facet normal 0 1 0
    outer loop
      vertex 3.75 -3.85 8.5
      vertex 4 -3.85 16
      vertex 7.7 -3.85 8.5
    endloop
  endfacet
  facet normal 0 1 0
    outer loop
      vertex 4 -3.85 16
      vertex 3.75 -3.85 8.5
      vertex 3.75 -3.85 15.995
    endloop
  endfacet
  facet normal 0 1 -0
    outer loop
      vertex -4 -3.85 16
      vertex -7.7 -3.85 17.5
      vertex -4 -3.85 17.5
    endloop
  endfacet
  facet normal 0 1 -0
    outer loop
      vertex -3.75 -3.85 15.995
      vertex -4 -3.85 16
      vertex 3.75 -3.85 15.995
    endloop
  endfacet
  facet normal 0 1 -0
    outer loop
      vertex -3.75 -3.85 8.5
      vertex -4 -3.85 16
      vertex -3.75 -3.85 15.995
    endloop
  endfacet
  facet normal 0 1 0
    outer loop
      vertex -7.7 -3.85 8.5
      vertex -4 -3.85 16
      vertex -3.75 -3.85 8.5
    endloop
  endfacet
  facet normal 0 1 0
    outer loop
      vertex -4 -3.85 16
      vertex -7.7 -3.85 8.5
      vertex -7.7 -3.85 17.5
    endloop
  endfacet
  facet normal 1 -0 0
    outer loop
      vertex -8.2 -4.35 8.5
      vertex -8.2 4.35 -2
      vertex -8.2 4.35 8.5
    endloop
  endfacet
  facet normal 1 0 0
    outer loop
      vertex -8.2 4.35 -2
      vertex -8.2 -4.35 8.5
      vertex -8.2 -4.35 -2
    endloop
  endfacet
  facet normal 0 0 -1
    outer loop
      vertex -3.75 -4.35 8.5
      vertex -7.7 -3.85 8.5
      vertex -3.75 -3.85 8.5
    endloop
  endfacet
  facet normal -0 0 -1
    outer loop
      vertex -7.7 -3.85 8.5
      vertex -8.2 -4.35 8.5
      vertex -7.7 3.85 8.5
    endloop
  endfacet
  facet normal 0 0 -1
    outer loop
      vertex -8.2 -4.35 8.5
      vertex -7.7 -3.85 8.5
      vertex -3.75 -4.35 8.5
    endloop
  endfacet
  facet normal 0 0 -1
    outer loop
      vertex -7.7 3.85 8.5
      vertex -3.75 4.35 8.5
      vertex -3.75 3.85 8.5
    endloop
  endfacet
  facet normal 0 0 -1
    outer loop
      vertex -7.7 3.85 8.5
      vertex -8.2 4.35 8.5
      vertex -3.75 4.35 8.5
    endloop
  endfacet
  facet normal 0 0 -1
    outer loop
      vertex -8.2 4.35 8.5
      vertex -7.7 3.85 8.5
      vertex -8.2 -4.35 8.5
    endloop
  endfacet
  facet normal 0 0 -1
    outer loop
      vertex 8.2 -4.35 8.5
      vertex 7.7 -3.85 8.5
      vertex 8.2 4.35 8.5
    endloop
  endfacet
  facet normal 0 0 -1
    outer loop
      vertex 3.75 -4.35 8.5
      vertex 7.7 -3.85 8.5
      vertex 8.2 -4.35 8.5
    endloop
  endfacet
  facet normal -0 0 -1
    outer loop
      vertex 7.7 -3.85 8.5
      vertex 3.75 -4.35 8.5
      vertex 3.75 -3.85 8.5
    endloop
  endfacet
  facet normal 0 0 -1
    outer loop
      vertex 7.7 3.85 8.5
      vertex 8.2 4.35 8.5
      vertex 7.7 -3.85 8.5
    endloop
  endfacet
  facet normal 0 0 -1
    outer loop
      vertex 3.75 4.35 8.5
      vertex 7.7 3.85 8.5
      vertex 3.75 3.85 8.5
    endloop
  endfacet
  facet normal 0 0 -1
    outer loop
      vertex 7.7 3.85 8.5
      vertex 3.75 4.35 8.5
      vertex 8.2 4.35 8.5
    endloop
  endfacet
  facet normal -1 0 0
    outer loop
      vertex 8.2 -4.35 -2
      vertex 8.2 4.35 8.5
      vertex 8.2 4.35 -2
    endloop
  endfacet
  facet normal -1 -0 0
    outer loop
      vertex 8.2 4.35 8.5
      vertex 8.2 -4.35 -2
      vertex 8.2 -4.35 8.5
    endloop
  endfacet
  facet normal 0 -1 0
    outer loop
      vertex -8.2 4.35 -2
      vertex -3.75 4.35 8.5
      vertex -8.2 4.35 8.5
    endloop
  endfacet
  facet normal 0 -1 -0
    outer loop
      vertex -3.75 4.35 8.5
      vertex -8.2 4.35 -2
      vertex 3.75 4.35 8.5
    endloop
  endfacet
  facet normal 0 -1 0
    outer loop
      vertex 8.2 4.35 -2
      vertex 3.75 4.35 8.5
      vertex -8.2 4.35 -2
    endloop
  endfacet
  facet normal 0 -1 0
    outer loop
      vertex 3.75 4.35 8.5
      vertex 8.2 4.35 -2
      vertex 8.2 4.35 8.5
    endloop
  endfacet
  facet normal 0 -1 0
    outer loop
      vertex -3.75 4.35 8.5
      vertex 3.75 4.35 15.995
      vertex -3.75 4.35 15.995
    endloop
  endfacet
  facet normal 0 -1 -0
    outer loop
      vertex 3.75 4.35 15.995
      vertex -3.75 4.35 8.5
      vertex 3.75 4.35 8.5
    endloop
  endfacet
  facet normal 0 1 -0
    outer loop
      vertex 8.2 -4.35 -2
      vertex 3.75 -4.35 8.5
      vertex 8.2 -4.35 8.5
    endloop
  endfacet
  facet normal 0 1 0
    outer loop
      vertex 3.75 -4.35 8.5
      vertex 8.2 -4.35 -2
      vertex -3.75 -4.35 8.5
    endloop
  endfacet
  facet normal 0 1 0
    outer loop
      vertex -8.2 -4.35 -2
      vertex -3.75 -4.35 8.5
      vertex 8.2 -4.35 -2
    endloop
  endfacet
  facet normal 0 1 0
    outer loop
      vertex -3.75 -4.35 8.5
      vertex -8.2 -4.35 -2
      vertex -8.2 -4.35 8.5
    endloop
  endfacet
  facet normal 0 1 -0
    outer loop
      vertex 3.75 -4.35 8.5
      vertex -3.75 -4.35 15.995
      vertex 3.75 -4.35 15.995
    endloop
  endfacet
  facet normal 0 1 0
    outer loop
      vertex -3.75 -4.35 15.995
      vertex 3.75 -4.35 8.5
      vertex -3.75 -4.35 8.5
    endloop
  endfacet
  facet normal 1 -0 0
    outer loop
      vertex -3.75 -4.35 15.995
      vertex -3.75 -3.85 8.5
      vertex -3.75 -3.85 15.995
    endloop
  endfacet
  facet normal 1 0 0
    outer loop
      vertex -3.75 -3.85 8.5
      vertex -3.75 -4.35 15.995
      vertex -3.75 -4.35 8.5
    endloop
  endfacet
  facet normal 1 -0 0
    outer loop
      vertex -3.75 3.85 15.995
      vertex -3.75 4.35 8.5
      vertex -3.75 4.35 15.995
    endloop
  endfacet
  facet normal 1 0 0
    outer loop
      vertex -3.75 4.35 8.5
      vertex -3.75 3.85 15.995
      vertex -3.75 3.85 8.5
    endloop
  endfacet
  facet normal 0 0 -1
    outer loop
      vertex -3.75 -4.35 15.995
      vertex 3.75 -3.85 15.995
      vertex 3.75 -4.35 15.995
    endloop
  endfacet
  facet normal -0 0 -1
    outer loop
      vertex 3.75 -3.85 15.995
      vertex -3.75 -4.35 15.995
      vertex -3.75 -3.85 15.995
    endloop
  endfacet
  facet normal 0 0 -1
    outer loop
      vertex -3.75 3.85 15.995
      vertex 3.75 4.35 15.995
      vertex 3.75 3.85 15.995
    endloop
  endfacet
  facet normal -0 0 -1
    outer loop
      vertex 3.75 4.35 15.995
      vertex -3.75 3.85 15.995
      vertex -3.75 4.35 15.995
    endloop
  endfacet
  facet normal -1 0 0
    outer loop
      vertex 3.75 -4.35 8.5
      vertex 3.75 -3.85 15.995
      vertex 3.75 -3.85 8.5
    endloop
  endfacet
  facet normal -1 -0 0
    outer loop
      vertex 3.75 -3.85 15.995
      vertex 3.75 -4.35 8.5
      vertex 3.75 -4.35 15.995
    endloop
  endfacet
  facet normal -1 0 0
    outer loop
      vertex 3.75 3.85 8.5
      vertex 3.75 4.35 15.995
      vertex 3.75 4.35 8.5
    endloop
  endfacet
  facet normal -1 -0 0
    outer loop
      vertex 3.75 4.35 15.995
      vertex 3.75 3.85 8.5
      vertex 3.75 3.85 15.995
    endloop
  endfacet
  facet normal -1 0 0
    outer loop
      vertex -4 -3.85 16
      vertex -4 -3.1 17.5
      vertex -4 -3.1 16
    endloop
  endfacet
  facet normal -1 -0 0
    outer loop
      vertex -4 -3.1 17.5
      vertex -4 -3.85 16
      vertex -4 -3.85 17.5
    endloop
  endfacet
  facet normal -1 0 0
    outer loop
      vertex -4 3.1 16
      vertex -4 3.85 17.5
      vertex -4 3.85 16
    endloop
  endfacet
  facet normal -1 -0 0
    outer loop
      vertex -4 3.85 17.5
      vertex -4 3.1 16
      vertex -4 3.1 17.5
    endloop
  endfacet
  facet normal 1 -0 0
    outer loop
      vertex 4 -3.85 17.5
      vertex 4 -3.1 16
      vertex 4 -3.1 17.5
    endloop
  endfacet
  facet normal 1 0 0
    outer loop
      vertex 4 -3.1 16
      vertex 4 -3.85 17.5
      vertex 4 -3.85 16
    endloop
  endfacet
  facet normal 1 -0 0
    outer loop
      vertex 4 3.1 17.5
      vertex 4 3.85 16
      vertex 4 3.85 17.5
    endloop
  endfacet
  facet normal 1 0 0
    outer loop
      vertex 4 3.85 16
      vertex 4 3.1 17.5
      vertex 4 3.1 16
    endloop
  endfacet
  facet normal 0 0 -1
    outer loop
      vertex -4 3.1 16
      vertex 4 3.85 16
      vertex 4 3.1 16
    endloop
  endfacet
  facet normal -0 0 -1
    outer loop
      vertex 4 3.85 16
      vertex -4 3.1 16
      vertex -4 3.85 16
    endloop
  endfacet
  facet normal 0 0 -1
    outer loop
      vertex -4 -3.85 16
      vertex 4 -3.1 16
      vertex 4 -3.85 16
    endloop
  endfacet
  facet normal -0 0 -1
    outer loop
      vertex 4 -3.1 16
      vertex -4 -3.85 16
      vertex -4 -3.1 16
    endloop
  endfacet
  facet normal 0 -1 0
    outer loop
      vertex -4 3.1 16
      vertex 4 3.1 17.5
      vertex -4 3.1 17.5
    endloop
  endfacet
  facet normal 0 -1 -0
    outer loop
      vertex 4 3.1 17.5
      vertex -4 3.1 16
      vertex 4 3.1 16
    endloop
  endfacet
  facet normal 0 1 -0
    outer loop
      vertex 4 -3.1 16
      vertex -4 -3.1 17.5
      vertex 4 -3.1 17.5
    endloop
  endfacet
  facet normal 0 1 0
    outer loop
      vertex -4 -3.1 17.5
      vertex 4 -3.1 16
      vertex -4 -3.1 16
    endloop
  endfacet
endsolid OpenSCAD_Model
