solid OpenSCAD_Model
  facet normal -0.0314165 -0.999506 0
    outer loop
      vertex -14.4756 -10.8711 -2
      vertex -14.35 -10.875 0
      vertex -14.4756 -10.8711 0
    endloop
  endfacet
  facet normal -0.0314165 -0.999506 -0
    outer loop
      vertex -14.35 -10.875 0
      vertex -14.4756 -10.8711 -2
      vertex -14.35 -10.875 -2
    endloop
  endfacet
  facet normal -0.750115 -0.661308 0
    outer loop
      vertex -15.8079 -10.2441 -2
      vertex -15.891 -10.1498 0
      vertex -15.891 -10.1498 -2
    endloop
  endfacet
  facet normal -0.750115 -0.661308 0
    outer loop
      vertex -15.891 -10.1498 0
      vertex -15.8079 -10.2441 -2
      vertex -15.8079 -10.2441 0
    endloop
  endfacet
  facet normal -0.98769 -0.156421 0
    outer loop
      vertex -16.3146 -9.24976 -2
      vertex -16.3342 -9.12567 0
      vertex -16.3342 -9.12567 -2
    endloop
  endfacet
  facet normal -0.98769 -0.156421 0
    outer loop
      vertex -16.3342 -9.12567 0
      vertex -16.3146 -9.24976 -2
      vertex -16.3146 -9.24976 0
    endloop
  endfacet
  facet normal 0 0 -1
    outer loop
      vertex 14.35 -10.875 -2
      vertex 16.35 -8.875 -2
      vertex 16.3461 -9.00058 -2
    endloop
  endfacet
  facet normal 0 0 -1
    outer loop
      vertex 16.35 -8.875 -2
      vertex 10.85 -5.375 -2
      vertex 16.35 8.875 -2
    endloop
  endfacet
  facet normal 0 0 -1
    outer loop
      vertex 14.35 -10.875 -2
      vertex 16.3461 -9.00058 -2
      vertex 16.3342 -9.12567 -2
    endloop
  endfacet
  facet normal 0 0 -1
    outer loop
      vertex 10.85 5.375 -2
      vertex 16.35 8.875 -2
      vertex 10.85 -5.375 -2
    endloop
  endfacet
  facet normal 0 0 -1
    outer loop
      vertex 14.35 -10.875 -2
      vertex 16.3342 -9.12567 -2
      vertex 16.3146 -9.24976 -2
    endloop
  endfacet
  facet normal 0 -0 -1
    outer loop
      vertex 14.35 10.875 -2
      vertex 16.35 8.875 -2
      vertex 10.85 5.375 -2
    endloop
  endfacet
  facet normal 0 0 -1
    outer loop
      vertex 14.35 -10.875 -2
      vertex 16.3146 -9.24976 -2
      vertex 16.2872 -9.37238 -2
    endloop
  endfacet
  facet normal 0 0 -1
    outer loop
      vertex 16.35 8.875 -2
      vertex 14.35 10.875 -2
      vertex 16.3461 9.00058 -2
    endloop
  endfacet
  facet normal 0 0 -1
    outer loop
      vertex 14.35 -10.875 -2
      vertex 16.2872 -9.37238 -2
      vertex 16.2521 -9.49303 -2
    endloop
  endfacet
  facet normal 0 0 -1
    outer loop
      vertex 16.3461 9.00058 -2
      vertex 14.35 10.875 -2
      vertex 16.3342 9.12567 -2
    endloop
  endfacet
  facet normal 0 0 -1
    outer loop
      vertex 14.35 -10.875 -2
      vertex 16.2521 -9.49303 -2
      vertex 16.2096 -9.61125 -2
    endloop
  endfacet
  facet normal 0 0 -1
    outer loop
      vertex 16.3342 9.12567 -2
      vertex 14.35 10.875 -2
      vertex 16.3146 9.24976 -2
    endloop
  endfacet
  facet normal 0 0 -1
    outer loop
      vertex 14.35 -10.875 -2
      vertex 16.2096 -9.61125 -2
      vertex 16.1597 -9.72656 -2
    endloop
  endfacet
  facet normal 0 0 -1
    outer loop
      vertex 16.3146 9.24976 -2
      vertex 14.35 10.875 -2
      vertex 16.2872 9.37238 -2
    endloop
  endfacet
  facet normal 0 0 -1
    outer loop
      vertex 14.35 -10.875 -2
      vertex 16.1597 -9.72656 -2
      vertex 16.1026 -9.83851 -2
    endloop
  endfacet
  facet normal 0 0 -1
    outer loop
      vertex 16.2872 9.37238 -2
      vertex 14.35 10.875 -2
      vertex 16.2521 9.49303 -2
    endloop
  endfacet
  facet normal 0 0 -1
    outer loop
      vertex 14.35 -10.875 -2
      vertex 16.1026 -9.83851 -2
      vertex 16.0387 -9.94665 -2
    endloop
  endfacet
  facet normal 0 0 -1
    outer loop
      vertex 16.2521 9.49303 -2
      vertex 14.35 10.875 -2
      vertex 16.2096 9.61125 -2
    endloop
  endfacet
  facet normal 0 0 -1
    outer loop
      vertex 14.35 -10.875 -2
      vertex 16.0387 -9.94665 -2
      vertex 15.968 -10.0506 -2
    endloop
  endfacet
  facet normal 0 0 -1
    outer loop
      vertex 16.2096 9.61125 -2
      vertex 14.35 10.875 -2
      vertex 16.1597 9.72656 -2
    endloop
  endfacet
  facet normal 0 0 -1
    outer loop
      vertex 14.35 -10.875 -2
      vertex 15.968 -10.0506 -2
      vertex 15.891 -10.1498 -2
    endloop
  endfacet
  facet normal 0 0 -1
    outer loop
      vertex 16.1597 9.72656 -2
      vertex 14.35 10.875 -2
      vertex 16.1026 9.83851 -2
    endloop
  endfacet
  facet normal 0 0 -1
    outer loop
      vertex 14.35 -10.875 -2
      vertex 15.891 -10.1498 -2
      vertex 15.8079 -10.2441 -2
    endloop
  endfacet
  facet normal 0 0 -1
    outer loop
      vertex 16.1026 9.83851 -2
      vertex 14.35 10.875 -2
      vertex 16.0387 9.94665 -2
    endloop
  endfacet
  facet normal 0 0 -1
    outer loop
      vertex 14.35 -10.875 -2
      vertex 15.8079 -10.2441 -2
      vertex 15.7191 -10.3329 -2
    endloop
  endfacet
  facet normal 0 0 -1
    outer loop
      vertex 16.0387 9.94665 -2
      vertex 14.35 10.875 -2
      vertex 15.968 10.0506 -2
    endloop
  endfacet
  facet normal 0 0 -1
    outer loop
      vertex 14.35 -10.875 -2
      vertex 15.7191 -10.3329 -2
      vertex 15.6248 -10.416 -2
    endloop
  endfacet
  facet normal 0 0 -1
    outer loop
      vertex 15.968 10.0506 -2
      vertex 14.35 10.875 -2
      vertex 15.891 10.1498 -2
    endloop
  endfacet
  facet normal 0 0 -1
    outer loop
      vertex 14.35 -10.875 -2
      vertex 15.6248 -10.416 -2
      vertex 15.5256 -10.493 -2
    endloop
  endfacet
  facet normal 0 0 -1
    outer loop
      vertex 15.891 10.1498 -2
      vertex 14.35 10.875 -2
      vertex 15.8079 10.2441 -2
    endloop
  endfacet
  facet normal 0 0 -1
    outer loop
      vertex 14.35 -10.875 -2
      vertex 15.5256 -10.493 -2
      vertex 15.4217 -10.5637 -2
    endloop
  endfacet
  facet normal 0 0 -1
    outer loop
      vertex 15.8079 10.2441 -2
      vertex 14.35 10.875 -2
      vertex 15.7191 10.3329 -2
    endloop
  endfacet
  facet normal 0 0 -1
    outer loop
      vertex 14.35 -10.875 -2
      vertex 15.4217 -10.5637 -2
      vertex 15.3135 -10.6276 -2
    endloop
  endfacet
  facet normal 0 0 -1
    outer loop
      vertex 15.7191 10.3329 -2
      vertex 14.35 10.875 -2
      vertex 15.6248 10.416 -2
    endloop
  endfacet
  facet normal 0 0 -1
    outer loop
      vertex 14.35 -10.875 -2
      vertex 15.3135 -10.6276 -2
      vertex 15.2016 -10.6847 -2
    endloop
  endfacet
  facet normal 0 0 -1
    outer loop
      vertex 15.6248 10.416 -2
      vertex 14.35 10.875 -2
      vertex 15.5256 10.493 -2
    endloop
  endfacet
  facet normal 0 0 -1
    outer loop
      vertex 14.35 -10.875 -2
      vertex 15.2016 -10.6847 -2
      vertex 15.0862 -10.7346 -2
    endloop
  endfacet
  facet normal 0 0 -1
    outer loop
      vertex 15.5256 10.493 -2
      vertex 14.35 10.875 -2
      vertex 15.4217 10.5637 -2
    endloop
  endfacet
  facet normal 0 0 -1
    outer loop
      vertex 14.35 -10.875 -2
      vertex 15.0862 -10.7346 -2
      vertex 14.968 -10.7771 -2
    endloop
  endfacet
  facet normal 0 0 -1
    outer loop
      vertex 15.4217 10.5637 -2
      vertex 14.35 10.875 -2
      vertex 15.3135 10.6276 -2
    endloop
  endfacet
  facet normal 0 0 -1
    outer loop
      vertex 14.35 -10.875 -2
      vertex 14.968 -10.7771 -2
      vertex 14.8474 -10.8122 -2
    endloop
  endfacet
  facet normal 0 0 -1
    outer loop
      vertex 15.3135 10.6276 -2
      vertex 14.35 10.875 -2
      vertex 15.2016 10.6847 -2
    endloop
  endfacet
  facet normal 0 0 -1
    outer loop
      vertex 14.35 -10.875 -2
      vertex 14.8474 -10.8122 -2
      vertex 14.7248 -10.8396 -2
    endloop
  endfacet
  facet normal 0 0 -1
    outer loop
      vertex 15.2016 10.6847 -2
      vertex 14.35 10.875 -2
      vertex 15.0862 10.7346 -2
    endloop
  endfacet
  facet normal 0 0 -1
    outer loop
      vertex 14.35 -10.875 -2
      vertex 14.7248 -10.8396 -2
      vertex 14.6007 -10.8592 -2
    endloop
  endfacet
  facet normal 0 0 -1
    outer loop
      vertex 15.0862 10.7346 -2
      vertex 14.35 10.875 -2
      vertex 14.968 10.7771 -2
    endloop
  endfacet
  facet normal 0 0 -1
    outer loop
      vertex 14.35 -10.875 -2
      vertex 14.6007 -10.8592 -2
      vertex 14.4756 -10.8711 -2
    endloop
  endfacet
  facet normal 0 0 -1
    outer loop
      vertex 14.968 10.7771 -2
      vertex 14.35 10.875 -2
      vertex 14.8474 10.8122 -2
    endloop
  endfacet
  facet normal -0 0 -1
    outer loop
      vertex 16.35 -8.875 -2
      vertex 14.35 -10.875 -2
      vertex 10.85 -5.375 -2
    endloop
  endfacet
  facet normal 0 0 -1
    outer loop
      vertex 14.8474 10.8122 -2
      vertex 14.35 10.875 -2
      vertex 14.7248 10.8396 -2
    endloop
  endfacet
  facet normal 0 0 -1
    outer loop
      vertex 14.7248 10.8396 -2
      vertex 14.35 10.875 -2
      vertex 14.6007 10.8592 -2
    endloop
  endfacet
  facet normal 0 0 -1
    outer loop
      vertex 14.35 -10.875 -2
      vertex -10.85 -5.375 -2
      vertex 10.85 -5.375 -2
    endloop
  endfacet
  facet normal 0 0 -1
    outer loop
      vertex -16.35 -8.875 -2
      vertex -10.85 -5.375 -2
      vertex -14.35 -10.875 -2
    endloop
  endfacet
  facet normal 0 0 -1
    outer loop
      vertex -14.35 -10.875 -2
      vertex -10.85 -5.375 -2
      vertex 14.35 -10.875 -2
    endloop
  endfacet
  facet normal 0 0 -1
    outer loop
      vertex 14.6007 10.8592 -2
      vertex 14.35 10.875 -2
      vertex 14.4756 10.8711 -2
    endloop
  endfacet
  facet normal 0 0 -1
    outer loop
      vertex -10.85 5.375 -2
      vertex 14.35 10.875 -2
      vertex 10.85 5.375 -2
    endloop
  endfacet
  facet normal 0 0 -1
    outer loop
      vertex -10.85 5.375 -2
      vertex -14.35 10.875 -2
      vertex 14.35 10.875 -2
    endloop
  endfacet
  facet normal -0 0 -1
    outer loop
      vertex -10.85 -5.375 -2
      vertex -16.35 -8.875 -2
      vertex -10.85 5.375 -2
    endloop
  endfacet
  facet normal 0 0 -1
    outer loop
      vertex -16.35 -8.875 -2
      vertex -14.35 -10.875 -2
      vertex -14.4756 -10.8711 -2
    endloop
  endfacet
  facet normal 0 0 -1
    outer loop
      vertex -16.35 8.875 -2
      vertex -10.85 5.375 -2
      vertex -16.35 -8.875 -2
    endloop
  endfacet
  facet normal 0 0 -1
    outer loop
      vertex -16.35 -8.875 -2
      vertex -14.4756 -10.8711 -2
      vertex -14.6007 -10.8592 -2
    endloop
  endfacet
  facet normal 0 0 -1
    outer loop
      vertex -10.85 5.375 -2
      vertex -16.35 8.875 -2
      vertex -14.35 10.875 -2
    endloop
  endfacet
  facet normal 0 0 -1
    outer loop
      vertex -16.35 -8.875 -2
      vertex -14.6007 -10.8592 -2
      vertex -14.7248 -10.8396 -2
    endloop
  endfacet
  facet normal 0 0 -1
    outer loop
      vertex -14.35 10.875 -2
      vertex -16.35 8.875 -2
      vertex -14.4756 10.8711 -2
    endloop
  endfacet
  facet normal 0 0 -1
    outer loop
      vertex -16.35 -8.875 -2
      vertex -14.7248 -10.8396 -2
      vertex -14.8474 -10.8122 -2
    endloop
  endfacet
  facet normal 0 0 -1
    outer loop
      vertex -14.4756 10.8711 -2
      vertex -16.35 8.875 -2
      vertex -14.6007 10.8592 -2
    endloop
  endfacet
  facet normal 0 0 -1
    outer loop
      vertex -16.35 -8.875 -2
      vertex -14.8474 -10.8122 -2
      vertex -14.968 -10.7771 -2
    endloop
  endfacet
  facet normal 0 0 -1
    outer loop
      vertex -14.6007 10.8592 -2
      vertex -16.35 8.875 -2
      vertex -14.7248 10.8396 -2
    endloop
  endfacet
  facet normal 0 0 -1
    outer loop
      vertex -16.35 -8.875 -2
      vertex -14.968 -10.7771 -2
      vertex -15.0862 -10.7346 -2
    endloop
  endfacet
  facet normal 0 0 -1
    outer loop
      vertex -14.7248 10.8396 -2
      vertex -16.35 8.875 -2
      vertex -14.8474 10.8122 -2
    endloop
  endfacet
  facet normal 0 0 -1
    outer loop
      vertex -16.35 -8.875 -2
      vertex -15.0862 -10.7346 -2
      vertex -15.2016 -10.6847 -2
    endloop
  endfacet
  facet normal 0 0 -1
    outer loop
      vertex -14.8474 10.8122 -2
      vertex -16.35 8.875 -2
      vertex -14.968 10.7771 -2
    endloop
  endfacet
  facet normal 0 0 -1
    outer loop
      vertex -16.35 -8.875 -2
      vertex -15.2016 -10.6847 -2
      vertex -15.3135 -10.6276 -2
    endloop
  endfacet
  facet normal 0 0 -1
    outer loop
      vertex -14.968 10.7771 -2
      vertex -16.35 8.875 -2
      vertex -15.0862 10.7346 -2
    endloop
  endfacet
  facet normal 0 0 -1
    outer loop
      vertex -16.35 -8.875 -2
      vertex -15.3135 -10.6276 -2
      vertex -15.4217 -10.5637 -2
    endloop
  endfacet
  facet normal 0 0 -1
    outer loop
      vertex -15.0862 10.7346 -2
      vertex -16.35 8.875 -2
      vertex -15.2016 10.6847 -2
    endloop
  endfacet
  facet normal 0 0 -1
    outer loop
      vertex -16.35 -8.875 -2
      vertex -15.4217 -10.5637 -2
      vertex -15.5256 -10.493 -2
    endloop
  endfacet
  facet normal 0 0 -1
    outer loop
      vertex -15.2016 10.6847 -2
      vertex -16.35 8.875 -2
      vertex -15.3135 10.6276 -2
    endloop
  endfacet
  facet normal 0 0 -1
    outer loop
      vertex -16.35 -8.875 -2
      vertex -15.5256 -10.493 -2
      vertex -15.6248 -10.416 -2
    endloop
  endfacet
  facet normal 0 0 -1
    outer loop
      vertex -15.3135 10.6276 -2
      vertex -16.35 8.875 -2
      vertex -15.4217 10.5637 -2
    endloop
  endfacet
  facet normal 0 0 -1
    outer loop
      vertex -16.35 -8.875 -2
      vertex -15.6248 -10.416 -2
      vertex -15.7191 -10.3329 -2
    endloop
  endfacet
  facet normal 0 0 -1
    outer loop
      vertex -15.4217 10.5637 -2
      vertex -16.35 8.875 -2
      vertex -15.5256 10.493 -2
    endloop
  endfacet
  facet normal 0 0 -1
    outer loop
      vertex -16.35 -8.875 -2
      vertex -15.7191 -10.3329 -2
      vertex -15.8079 -10.2441 -2
    endloop
  endfacet
  facet normal 0 0 -1
    outer loop
      vertex -15.5256 10.493 -2
      vertex -16.35 8.875 -2
      vertex -15.6248 10.416 -2
    endloop
  endfacet
  facet normal 0 0 -1
    outer loop
      vertex -16.35 -8.875 -2
      vertex -15.8079 -10.2441 -2
      vertex -15.891 -10.1498 -2
    endloop
  endfacet
  facet normal 0 0 -1
    outer loop
      vertex -15.6248 10.416 -2
      vertex -16.35 8.875 -2
      vertex -15.7191 10.3329 -2
    endloop
  endfacet
  facet normal 0 0 -1
    outer loop
      vertex -16.35 -8.875 -2
      vertex -15.891 -10.1498 -2
      vertex -15.968 -10.0506 -2
    endloop
  endfacet
  facet normal 0 0 -1
    outer loop
      vertex -15.7191 10.3329 -2
      vertex -16.35 8.875 -2
      vertex -15.8079 10.2441 -2
    endloop
  endfacet
  facet normal 0 0 -1
    outer loop
      vertex -16.35 -8.875 -2
      vertex -15.968 -10.0506 -2
      vertex -16.0387 -9.94665 -2
    endloop
  endfacet
  facet normal 0 0 -1
    outer loop
      vertex -15.8079 10.2441 -2
      vertex -16.35 8.875 -2
      vertex -15.891 10.1498 -2
    endloop
  endfacet
  facet normal 0 0 -1
    outer loop
      vertex -16.35 -8.875 -2
      vertex -16.0387 -9.94665 -2
      vertex -16.1026 -9.83851 -2
    endloop
  endfacet
  facet normal 0 0 -1
    outer loop
      vertex -15.891 10.1498 -2
      vertex -16.35 8.875 -2
      vertex -15.968 10.0506 -2
    endloop
  endfacet
  facet normal 0 0 -1
    outer loop
      vertex -16.35 -8.875 -2
      vertex -16.1026 -9.83851 -2
      vertex -16.1597 -9.72656 -2
    endloop
  endfacet
  facet normal 0 0 -1
    outer loop
      vertex -15.968 10.0506 -2
      vertex -16.35 8.875 -2
      vertex -16.0387 9.94665 -2
    endloop
  endfacet
  facet normal 0 0 -1
    outer loop
      vertex -16.35 -8.875 -2
      vertex -16.1597 -9.72656 -2
      vertex -16.2096 -9.61125 -2
    endloop
  endfacet
  facet normal 0 0 -1
    outer loop
      vertex -16.0387 9.94665 -2
      vertex -16.35 8.875 -2
      vertex -16.1026 9.83851 -2
    endloop
  endfacet
  facet normal 0 0 -1
    outer loop
      vertex -16.35 -8.875 -2
      vertex -16.2096 -9.61125 -2
      vertex -16.2521 -9.49303 -2
    endloop
  endfacet
  facet normal 0 0 -1
    outer loop
      vertex -16.1026 9.83851 -2
      vertex -16.35 8.875 -2
      vertex -16.1597 9.72656 -2
    endloop
  endfacet
  facet normal 0 0 -1
    outer loop
      vertex -16.35 -8.875 -2
      vertex -16.2521 -9.49303 -2
      vertex -16.2872 -9.37238 -2
    endloop
  endfacet
  facet normal 0 0 -1
    outer loop
      vertex -16.1597 9.72656 -2
      vertex -16.35 8.875 -2
      vertex -16.2096 9.61125 -2
    endloop
  endfacet
  facet normal 0 0 -1
    outer loop
      vertex -16.35 -8.875 -2
      vertex -16.2872 -9.37238 -2
      vertex -16.3146 -9.24976 -2
    endloop
  endfacet
  facet normal 0 0 -1
    outer loop
      vertex -16.2096 9.61125 -2
      vertex -16.35 8.875 -2
      vertex -16.2521 9.49303 -2
    endloop
  endfacet
  facet normal 0 0 -1
    outer loop
      vertex -16.35 -8.875 -2
      vertex -16.3146 -9.24976 -2
      vertex -16.3342 -9.12567 -2
    endloop
  endfacet
  facet normal 0 0 -1
    outer loop
      vertex -16.2521 9.49303 -2
      vertex -16.35 8.875 -2
      vertex -16.2872 9.37238 -2
    endloop
  endfacet
  facet normal 0 0 -1
    outer loop
      vertex -16.35 -8.875 -2
      vertex -16.3342 -9.12567 -2
      vertex -16.3461 -9.00058 -2
    endloop
  endfacet
  facet normal 0 0 -1
    outer loop
      vertex -16.2872 9.37238 -2
      vertex -16.35 8.875 -2
      vertex -16.3146 9.24976 -2
    endloop
  endfacet
  facet normal 0 0 -1
    outer loop
      vertex -16.3146 9.24976 -2
      vertex -16.35 8.875 -2
      vertex -16.3342 9.12567 -2
    endloop
  endfacet
  facet normal 0 0 -1
    outer loop
      vertex -16.3342 9.12567 -2
      vertex -16.35 8.875 -2
      vertex -16.3461 9.00058 -2
    endloop
  endfacet
  facet normal 0 0 1
    outer loop
      vertex 14.35 10.875 0
      vertex 16.35 8.875 0
      vertex 16.3461 9.00058 0
    endloop
  endfacet
  facet normal 0 0 1
    outer loop
      vertex 16.35 8.875 0
      vertex 12.35 6.875 0
      vertex 16.35 -8.875 0
    endloop
  endfacet
  facet normal 0 0 1
    outer loop
      vertex 14.35 10.875 0
      vertex 16.3461 9.00058 0
      vertex 16.3342 9.12567 0
    endloop
  endfacet
  facet normal -0 0 1
    outer loop
      vertex 12.35 -6.875 0
      vertex 16.35 -8.875 0
      vertex 12.35 6.875 0
    endloop
  endfacet
  facet normal 0 0 1
    outer loop
      vertex 14.35 10.875 0
      vertex 16.3342 9.12567 0
      vertex 16.3146 9.24976 0
    endloop
  endfacet
  facet normal 0 -0 1
    outer loop
      vertex 14.35 -10.875 0
      vertex 16.35 -8.875 0
      vertex 12.35 -6.875 0
    endloop
  endfacet
  facet normal 0 0 1
    outer loop
      vertex 14.35 10.875 0
      vertex 16.3146 9.24976 0
      vertex 16.2872 9.37238 0
    endloop
  endfacet
  facet normal 0 0 1
    outer loop
      vertex 16.35 -8.875 0
      vertex 14.35 -10.875 0
      vertex 16.3461 -9.00058 0
    endloop
  endfacet
  facet normal 0 0 1
    outer loop
      vertex 14.35 10.875 0
      vertex 16.2872 9.37238 0
      vertex 16.2521 9.49303 0
    endloop
  endfacet
  facet normal 0 0 1
    outer loop
      vertex 16.3461 -9.00058 0
      vertex 14.35 -10.875 0
      vertex 16.3342 -9.12567 0
    endloop
  endfacet
  facet normal 0 0 1
    outer loop
      vertex 14.35 10.875 0
      vertex 16.2521 9.49303 0
      vertex 16.2096 9.61125 0
    endloop
  endfacet
  facet normal 0 0 1
    outer loop
      vertex 16.3342 -9.12567 0
      vertex 14.35 -10.875 0
      vertex 16.3146 -9.24976 0
    endloop
  endfacet
  facet normal 0 0 1
    outer loop
      vertex 14.35 10.875 0
      vertex 16.2096 9.61125 0
      vertex 16.1597 9.72656 0
    endloop
  endfacet
  facet normal 0 0 1
    outer loop
      vertex 16.3146 -9.24976 0
      vertex 14.35 -10.875 0
      vertex 16.2872 -9.37238 0
    endloop
  endfacet
  facet normal 0 0 1
    outer loop
      vertex 14.35 10.875 0
      vertex 16.1597 9.72656 0
      vertex 16.1026 9.83851 0
    endloop
  endfacet
  facet normal 0 0 1
    outer loop
      vertex 16.2872 -9.37238 0
      vertex 14.35 -10.875 0
      vertex 16.2521 -9.49303 0
    endloop
  endfacet
  facet normal 0 0 1
    outer loop
      vertex 14.35 10.875 0
      vertex 16.1026 9.83851 0
      vertex 16.0387 9.94665 0
    endloop
  endfacet
  facet normal 0 0 1
    outer loop
      vertex 16.2521 -9.49303 0
      vertex 14.35 -10.875 0
      vertex 16.2096 -9.61125 0
    endloop
  endfacet
  facet normal 0 0 1
    outer loop
      vertex 14.35 10.875 0
      vertex 16.0387 9.94665 0
      vertex 15.968 10.0506 0
    endloop
  endfacet
  facet normal 0 0 1
    outer loop
      vertex 16.2096 -9.61125 0
      vertex 14.35 -10.875 0
      vertex 16.1597 -9.72656 0
    endloop
  endfacet
  facet normal 0 0 1
    outer loop
      vertex 14.35 10.875 0
      vertex 15.968 10.0506 0
      vertex 15.891 10.1498 0
    endloop
  endfacet
  facet normal 0 0 1
    outer loop
      vertex 16.1597 -9.72656 0
      vertex 14.35 -10.875 0
      vertex 16.1026 -9.83851 0
    endloop
  endfacet
  facet normal 0 0 1
    outer loop
      vertex 14.35 10.875 0
      vertex 15.891 10.1498 0
      vertex 15.8079 10.2441 0
    endloop
  endfacet
  facet normal 0 0 1
    outer loop
      vertex 16.1026 -9.83851 0
      vertex 14.35 -10.875 0
      vertex 16.0387 -9.94665 0
    endloop
  endfacet
  facet normal 0 0 1
    outer loop
      vertex 14.35 10.875 0
      vertex 15.8079 10.2441 0
      vertex 15.7191 10.3329 0
    endloop
  endfacet
  facet normal 0 0 1
    outer loop
      vertex 16.0387 -9.94665 0
      vertex 14.35 -10.875 0
      vertex 15.968 -10.0506 0
    endloop
  endfacet
  facet normal 0 0 1
    outer loop
      vertex 14.35 10.875 0
      vertex 15.7191 10.3329 0
      vertex 15.6248 10.416 0
    endloop
  endfacet
  facet normal 0 0 1
    outer loop
      vertex 15.968 -10.0506 0
      vertex 14.35 -10.875 0
      vertex 15.891 -10.1498 0
    endloop
  endfacet
  facet normal 0 0 1
    outer loop
      vertex 14.35 10.875 0
      vertex 15.6248 10.416 0
      vertex 15.5256 10.493 0
    endloop
  endfacet
  facet normal 0 0 1
    outer loop
      vertex 15.891 -10.1498 0
      vertex 14.35 -10.875 0
      vertex 15.8079 -10.2441 0
    endloop
  endfacet
  facet normal 0 0 1
    outer loop
      vertex 14.35 10.875 0
      vertex 15.5256 10.493 0
      vertex 15.4217 10.5637 0
    endloop
  endfacet
  facet normal 0 0 1
    outer loop
      vertex 15.8079 -10.2441 0
      vertex 14.35 -10.875 0
      vertex 15.7191 -10.3329 0
    endloop
  endfacet
  facet normal 0 0 1
    outer loop
      vertex 14.35 10.875 0
      vertex 15.4217 10.5637 0
      vertex 15.3135 10.6276 0
    endloop
  endfacet
  facet normal 0 0 1
    outer loop
      vertex 15.7191 -10.3329 0
      vertex 14.35 -10.875 0
      vertex 15.6248 -10.416 0
    endloop
  endfacet
  facet normal 0 0 1
    outer loop
      vertex 14.35 10.875 0
      vertex 15.3135 10.6276 0
      vertex 15.2016 10.6847 0
    endloop
  endfacet
  facet normal 0 0 1
    outer loop
      vertex 15.6248 -10.416 0
      vertex 14.35 -10.875 0
      vertex 15.5256 -10.493 0
    endloop
  endfacet
  facet normal 0 0 1
    outer loop
      vertex 14.35 10.875 0
      vertex 15.2016 10.6847 0
      vertex 15.0862 10.7346 0
    endloop
  endfacet
  facet normal 0 0 1
    outer loop
      vertex 15.5256 -10.493 0
      vertex 14.35 -10.875 0
      vertex 15.4217 -10.5637 0
    endloop
  endfacet
  facet normal 0 0 1
    outer loop
      vertex 14.35 10.875 0
      vertex 15.0862 10.7346 0
      vertex 14.968 10.7771 0
    endloop
  endfacet
  facet normal 0 0 1
    outer loop
      vertex 15.4217 -10.5637 0
      vertex 14.35 -10.875 0
      vertex 15.3135 -10.6276 0
    endloop
  endfacet
  facet normal 0 0 1
    outer loop
      vertex 14.35 10.875 0
      vertex 14.968 10.7771 0
      vertex 14.8474 10.8122 0
    endloop
  endfacet
  facet normal 0 0 1
    outer loop
      vertex 15.3135 -10.6276 0
      vertex 14.35 -10.875 0
      vertex 15.2016 -10.6847 0
    endloop
  endfacet
  facet normal 0 0 1
    outer loop
      vertex 14.35 10.875 0
      vertex 14.8474 10.8122 0
      vertex 14.7248 10.8396 0
    endloop
  endfacet
  facet normal 0 0 1
    outer loop
      vertex 15.2016 -10.6847 0
      vertex 14.35 -10.875 0
      vertex 15.0862 -10.7346 0
    endloop
  endfacet
  facet normal 0 0 1
    outer loop
      vertex 14.35 10.875 0
      vertex 14.7248 10.8396 0
      vertex 14.6007 10.8592 0
    endloop
  endfacet
  facet normal 0 0 1
    outer loop
      vertex 15.0862 -10.7346 0
      vertex 14.35 -10.875 0
      vertex 14.968 -10.7771 0
    endloop
  endfacet
  facet normal 0 0 1
    outer loop
      vertex 14.35 10.875 0
      vertex 14.6007 10.8592 0
      vertex 14.4756 10.8711 0
    endloop
  endfacet
  facet normal 0 0 1
    outer loop
      vertex 14.968 -10.7771 0
      vertex 14.35 -10.875 0
      vertex 14.8474 -10.8122 0
    endloop
  endfacet
  facet normal 0 0 1
    outer loop
      vertex 16.35 8.875 0
      vertex 14.35 10.875 0
      vertex 12.35 6.875 0
    endloop
  endfacet
  facet normal 0 0 1
    outer loop
      vertex 14.8474 -10.8122 0
      vertex 14.35 -10.875 0
      vertex 14.7248 -10.8396 0
    endloop
  endfacet
  facet normal 0 0 1
    outer loop
      vertex 14.7248 -10.8396 0
      vertex 14.35 -10.875 0
      vertex 14.6007 -10.8592 0
    endloop
  endfacet
  facet normal 0 0 1
    outer loop
      vertex 14.35 10.875 0
      vertex -12.35 6.875 0
      vertex 12.35 6.875 0
    endloop
  endfacet
  facet normal -0 0 1
    outer loop
      vertex -16.35 8.875 0
      vertex -12.35 6.875 0
      vertex -14.35 10.875 0
    endloop
  endfacet
  facet normal -0 0 1
    outer loop
      vertex -14.35 10.875 0
      vertex -12.35 6.875 0
      vertex 14.35 10.875 0
    endloop
  endfacet
  facet normal 0 0 1
    outer loop
      vertex 14.6007 -10.8592 0
      vertex 14.35 -10.875 0
      vertex 14.4756 -10.8711 0
    endloop
  endfacet
  facet normal -0 0 1
    outer loop
      vertex -12.35 -6.875 0
      vertex 14.35 -10.875 0
      vertex 12.35 -6.875 0
    endloop
  endfacet
  facet normal 0 0 1
    outer loop
      vertex -12.35 -6.875 0
      vertex -14.35 -10.875 0
      vertex 14.35 -10.875 0
    endloop
  endfacet
  facet normal 0 0 1
    outer loop
      vertex -12.35 6.875 0
      vertex -16.35 8.875 0
      vertex -12.35 -6.875 0
    endloop
  endfacet
  facet normal 0 0 1
    outer loop
      vertex -16.35 8.875 0
      vertex -14.35 10.875 0
      vertex -14.4756 10.8711 0
    endloop
  endfacet
  facet normal 0 0 1
    outer loop
      vertex -16.35 -8.875 0
      vertex -12.35 -6.875 0
      vertex -16.35 8.875 0
    endloop
  endfacet
  facet normal 0 0 1
    outer loop
      vertex -16.35 8.875 0
      vertex -14.4756 10.8711 0
      vertex -14.6007 10.8592 0
    endloop
  endfacet
  facet normal 0 0 1
    outer loop
      vertex -12.35 -6.875 0
      vertex -16.35 -8.875 0
      vertex -14.35 -10.875 0
    endloop
  endfacet
  facet normal 0 0 1
    outer loop
      vertex -16.35 8.875 0
      vertex -14.6007 10.8592 0
      vertex -14.7248 10.8396 0
    endloop
  endfacet
  facet normal 0 0 1
    outer loop
      vertex -14.35 -10.875 0
      vertex -16.35 -8.875 0
      vertex -14.4756 -10.8711 0
    endloop
  endfacet
  facet normal 0 0 1
    outer loop
      vertex -16.35 8.875 0
      vertex -14.7248 10.8396 0
      vertex -14.8474 10.8122 0
    endloop
  endfacet
  facet normal 0 0 1
    outer loop
      vertex -14.4756 -10.8711 0
      vertex -16.35 -8.875 0
      vertex -14.6007 -10.8592 0
    endloop
  endfacet
  facet normal 0 0 1
    outer loop
      vertex -16.35 8.875 0
      vertex -14.8474 10.8122 0
      vertex -14.968 10.7771 0
    endloop
  endfacet
  facet normal 0 0 1
    outer loop
      vertex -14.6007 -10.8592 0
      vertex -16.35 -8.875 0
      vertex -14.7248 -10.8396 0
    endloop
  endfacet
  facet normal 0 0 1
    outer loop
      vertex -16.35 8.875 0
      vertex -14.968 10.7771 0
      vertex -15.0862 10.7346 0
    endloop
  endfacet
  facet normal 0 0 1
    outer loop
      vertex -14.7248 -10.8396 0
      vertex -16.35 -8.875 0
      vertex -14.8474 -10.8122 0
    endloop
  endfacet
  facet normal 0 0 1
    outer loop
      vertex -16.35 8.875 0
      vertex -15.0862 10.7346 0
      vertex -15.2016 10.6847 0
    endloop
  endfacet
  facet normal 0 0 1
    outer loop
      vertex -14.8474 -10.8122 0
      vertex -16.35 -8.875 0
      vertex -14.968 -10.7771 0
    endloop
  endfacet
  facet normal 0 0 1
    outer loop
      vertex -16.35 8.875 0
      vertex -15.2016 10.6847 0
      vertex -15.3135 10.6276 0
    endloop
  endfacet
  facet normal 0 0 1
    outer loop
      vertex -14.968 -10.7771 0
      vertex -16.35 -8.875 0
      vertex -15.0862 -10.7346 0
    endloop
  endfacet
  facet normal 0 0 1
    outer loop
      vertex -16.35 8.875 0
      vertex -15.3135 10.6276 0
      vertex -15.4217 10.5637 0
    endloop
  endfacet
  facet normal 0 0 1
    outer loop
      vertex -15.0862 -10.7346 0
      vertex -16.35 -8.875 0
      vertex -15.2016 -10.6847 0
    endloop
  endfacet
  facet normal 0 0 1
    outer loop
      vertex -16.35 8.875 0
      vertex -15.4217 10.5637 0
      vertex -15.5256 10.493 0
    endloop
  endfacet
  facet normal 0 0 1
    outer loop
      vertex -15.2016 -10.6847 0
      vertex -16.35 -8.875 0
      vertex -15.3135 -10.6276 0
    endloop
  endfacet
  facet normal 0 0 1
    outer loop
      vertex -16.35 8.875 0
      vertex -15.5256 10.493 0
      vertex -15.6248 10.416 0
    endloop
  endfacet
  facet normal 0 0 1
    outer loop
      vertex -15.3135 -10.6276 0
      vertex -16.35 -8.875 0
      vertex -15.4217 -10.5637 0
    endloop
  endfacet
  facet normal 0 0 1
    outer loop
      vertex -16.35 8.875 0
      vertex -15.6248 10.416 0
      vertex -15.7191 10.3329 0
    endloop
  endfacet
  facet normal 0 0 1
    outer loop
      vertex -15.4217 -10.5637 0
      vertex -16.35 -8.875 0
      vertex -15.5256 -10.493 0
    endloop
  endfacet
  facet normal 0 0 1
    outer loop
      vertex -16.35 8.875 0
      vertex -15.7191 10.3329 0
      vertex -15.8079 10.2441 0
    endloop
  endfacet
  facet normal 0 0 1
    outer loop
      vertex -15.5256 -10.493 0
      vertex -16.35 -8.875 0
      vertex -15.6248 -10.416 0
    endloop
  endfacet
  facet normal 0 0 1
    outer loop
      vertex -16.35 8.875 0
      vertex -15.8079 10.2441 0
      vertex -15.891 10.1498 0
    endloop
  endfacet
  facet normal 0 0 1
    outer loop
      vertex -15.6248 -10.416 0
      vertex -16.35 -8.875 0
      vertex -15.7191 -10.3329 0
    endloop
  endfacet
  facet normal 0 0 1
    outer loop
      vertex -16.35 8.875 0
      vertex -15.891 10.1498 0
      vertex -15.968 10.0506 0
    endloop
  endfacet
  facet normal 0 0 1
    outer loop
      vertex -15.7191 -10.3329 0
      vertex -16.35 -8.875 0
      vertex -15.8079 -10.2441 0
    endloop
  endfacet
  facet normal 0 0 1
    outer loop
      vertex -16.35 8.875 0
      vertex -15.968 10.0506 0
      vertex -16.0387 9.94665 0
    endloop
  endfacet
  facet normal 0 0 1
    outer loop
      vertex -15.8079 -10.2441 0
      vertex -16.35 -8.875 0
      vertex -15.891 -10.1498 0
    endloop
  endfacet
  facet normal 0 0 1
    outer loop
      vertex -16.35 8.875 0
      vertex -16.0387 9.94665 0
      vertex -16.1026 9.83851 0
    endloop
  endfacet
  facet normal 0 0 1
    outer loop
      vertex -15.891 -10.1498 0
      vertex -16.35 -8.875 0
      vertex -15.968 -10.0506 0
    endloop
  endfacet
  facet normal 0 0 1
    outer loop
      vertex -16.35 8.875 0
      vertex -16.1026 9.83851 0
      vertex -16.1597 9.72656 0
    endloop
  endfacet
  facet normal 0 0 1
    outer loop
      vertex -15.968 -10.0506 0
      vertex -16.35 -8.875 0
      vertex -16.0387 -9.94665 0
    endloop
  endfacet
  facet normal 0 0 1
    outer loop
      vertex -16.35 8.875 0
      vertex -16.1597 9.72656 0
      vertex -16.2096 9.61125 0
    endloop
  endfacet
  facet normal 0 0 1
    outer loop
      vertex -16.0387 -9.94665 0
      vertex -16.35 -8.875 0
      vertex -16.1026 -9.83851 0
    endloop
  endfacet
  facet normal 0 0 1
    outer loop
      vertex -16.35 8.875 0
      vertex -16.2096 9.61125 0
      vertex -16.2521 9.49303 0
    endloop
  endfacet
  facet normal 0 0 1
    outer loop
      vertex -16.1026 -9.83851 0
      vertex -16.35 -8.875 0
      vertex -16.1597 -9.72656 0
    endloop
  endfacet
  facet normal 0 0 1
    outer loop
      vertex -16.35 8.875 0
      vertex -16.2521 9.49303 0
      vertex -16.2872 9.37238 0
    endloop
  endfacet
  facet normal 0 0 1
    outer loop
      vertex -16.1597 -9.72656 0
      vertex -16.35 -8.875 0
      vertex -16.2096 -9.61125 0
    endloop
  endfacet
  facet normal 0 0 1
    outer loop
      vertex -16.35 8.875 0
      vertex -16.2872 9.37238 0
      vertex -16.3146 9.24976 0
    endloop
  endfacet
  facet normal 0 0 1
    outer loop
      vertex -16.2096 -9.61125 0
      vertex -16.35 -8.875 0
      vertex -16.2521 -9.49303 0
    endloop
  endfacet
  facet normal 0 0 1
    outer loop
      vertex -16.35 8.875 0
      vertex -16.3146 9.24976 0
      vertex -16.3342 9.12567 0
    endloop
  endfacet
  facet normal 0 0 1
    outer loop
      vertex -16.2521 -9.49303 0
      vertex -16.35 -8.875 0
      vertex -16.2872 -9.37238 0
    endloop
  endfacet
  facet normal 0 0 1
    outer loop
      vertex -16.35 8.875 0
      vertex -16.3342 9.12567 0
      vertex -16.3461 9.00058 0
    endloop
  endfacet
  facet normal 0 0 1
    outer loop
      vertex -16.2872 -9.37238 0
      vertex -16.35 -8.875 0
      vertex -16.3146 -9.24976 0
    endloop
  endfacet
  facet normal 0 0 1
    outer loop
      vertex -16.3146 -9.24976 0
      vertex -16.35 -8.875 0
      vertex -16.3342 -9.12567 0
    endloop
  endfacet
  facet normal 0 0 1
    outer loop
      vertex -16.3342 -9.12567 0
      vertex -16.35 -8.875 0
      vertex -16.3461 -9.00058 0
    endloop
  endfacet
  facet normal -0.156437 -0.987688 0
    outer loop
      vertex -14.7248 -10.8396 -2
      vertex -14.6007 -10.8592 0
      vertex -14.7248 -10.8396 0
    endloop
  endfacet
  facet normal -0.156437 -0.987688 -0
    outer loop
      vertex -14.6007 -10.8592 0
      vertex -14.7248 -10.8396 -2
      vertex -14.6007 -10.8592 -2
    endloop
  endfacet
  facet normal -0.91775 -0.397158 0
    outer loop
      vertex -16.1597 -9.72656 -2
      vertex -16.2096 -9.61125 0
      vertex -16.2096 -9.61125 -2
    endloop
  endfacet
  facet normal -0.91775 -0.397158 0
    outer loop
      vertex -16.2096 -9.61125 0
      vertex -16.1597 -9.72656 -2
      vertex -16.1597 -9.72656 0
    endloop
  endfacet
  facet normal -0.827086 -0.562075 0
    outer loop
      vertex -15.968 -10.0506 -2
      vertex -16.0387 -9.94665 0
      vertex -16.0387 -9.94665 -2
    endloop
  endfacet
  facet normal -0.827086 -0.562075 0
    outer loop
      vertex -16.0387 -9.94665 0
      vertex -15.968 -10.0506 -2
      vertex -15.968 -10.0506 0
    endloop
  endfacet
  facet normal -0.975916 -0.218147 0
    outer loop
      vertex -16.2872 -9.37238 -2
      vertex -16.3146 -9.24976 0
      vertex -16.3146 -9.24976 -2
    endloop
  endfacet
  facet normal -0.975916 -0.218147 0
    outer loop
      vertex -16.3146 -9.24976 0
      vertex -16.2872 -9.37238 -2
      vertex -16.2872 -9.37238 0
    endloop
  endfacet
  facet normal -0.999507 -0.0313938 0
    outer loop
      vertex -16.3461 -9.00058 -2
      vertex -16.35 -8.875 0
      vertex -16.35 -8.875 -2
    endloop
  endfacet
  facet normal -0.999507 -0.0313938 0
    outer loop
      vertex -16.35 -8.875 0
      vertex -16.3461 -9.00058 -2
      vertex -16.3461 -9.00058 0
    endloop
  endfacet
  facet normal -0.707107 -0.707107 0
    outer loop
      vertex -15.7191 -10.3329 -2
      vertex -15.8079 -10.2441 0
      vertex -15.8079 -10.2441 -2
    endloop
  endfacet
  facet normal -0.707107 -0.707107 0
    outer loop
      vertex -15.8079 -10.2441 0
      vertex -15.7191 -10.3329 -2
      vertex -15.7191 -10.3329 0
    endloop
  endfacet
  facet normal -0.612906 -0.790156 0
    outer loop
      vertex -15.6248 -10.416 -2
      vertex -15.5256 -10.493 0
      vertex -15.6248 -10.416 0
    endloop
  endfacet
  facet normal -0.612906 -0.790156 -0
    outer loop
      vertex -15.5256 -10.493 0
      vertex -15.6248 -10.416 -2
      vertex -15.5256 -10.493 -2
    endloop
  endfacet
  facet normal -0.453986 -0.891009 0
    outer loop
      vertex -15.3135 -10.6276 -2
      vertex -15.2016 -10.6847 0
      vertex -15.3135 -10.6276 0
    endloop
  endfacet
  facet normal -0.453986 -0.891009 -0
    outer loop
      vertex -15.2016 -10.6847 0
      vertex -15.3135 -10.6276 -2
      vertex -15.2016 -10.6847 -2
    endloop
  endfacet
  facet normal -0.562081 -0.827082 0
    outer loop
      vertex -15.5256 -10.493 -2
      vertex -15.4217 -10.5637 0
      vertex -15.5256 -10.493 0
    endloop
  endfacet
  facet normal -0.562081 -0.827082 -0
    outer loop
      vertex -15.4217 -10.5637 0
      vertex -15.5256 -10.493 -2
      vertex -15.4217 -10.5637 -2
    endloop
  endfacet
  facet normal -0.338743 -0.940879 0
    outer loop
      vertex -15.0862 -10.7346 -2
      vertex -14.968 -10.7771 0
      vertex -15.0862 -10.7346 0
    endloop
  endfacet
  facet normal -0.338743 -0.940879 -0
    outer loop
      vertex -14.968 -10.7771 0
      vertex -15.0862 -10.7346 -2
      vertex -14.968 -10.7771 -2
    endloop
  endfacet
  facet normal -0.218138 -0.975918 0
    outer loop
      vertex -14.8474 -10.8122 -2
      vertex -14.7248 -10.8396 0
      vertex -14.8474 -10.8122 0
    endloop
  endfacet
  facet normal -0.218138 -0.975918 -0
    outer loop
      vertex -14.7248 -10.8396 0
      vertex -14.8474 -10.8122 -2
      vertex -14.7248 -10.8396 -2
    endloop
  endfacet
  facet normal -0.0941049 -0.995562 0
    outer loop
      vertex -14.6007 -10.8592 -2
      vertex -14.4756 -10.8711 0
      vertex -14.6007 -10.8592 0
    endloop
  endfacet
  facet normal -0.0941049 -0.995562 -0
    outer loop
      vertex -14.4756 -10.8711 0
      vertex -14.6007 -10.8592 -2
      vertex -14.4756 -10.8711 -2
    endloop
  endfacet
  facet normal -0.891005 -0.453993 0
    outer loop
      vertex -16.1026 -9.83851 -2
      vertex -16.1597 -9.72656 0
      vertex -16.1597 -9.72656 -2
    endloop
  endfacet
  facet normal -0.891005 -0.453993 0
    outer loop
      vertex -16.1597 -9.72656 0
      vertex -16.1026 -9.83851 -2
      vertex -16.1026 -9.83851 0
    endloop
  endfacet
  facet normal -0.790149 -0.612914 0
    outer loop
      vertex -15.891 -10.1498 -2
      vertex -15.968 -10.0506 0
      vertex -15.968 -10.0506 -2
    endloop
  endfacet
  facet normal -0.790149 -0.612914 0
    outer loop
      vertex -15.968 -10.0506 0
      vertex -15.891 -10.1498 -2
      vertex -15.891 -10.1498 0
    endloop
  endfacet
  facet normal -0.960294 -0.278991 0
    outer loop
      vertex -16.2521 -9.49303 -2
      vertex -16.2872 -9.37238 0
      vertex -16.2872 -9.37238 -2
    endloop
  endfacet
  facet normal -0.960294 -0.278991 0
    outer loop
      vertex -16.2872 -9.37238 0
      vertex -16.2521 -9.49303 -2
      vertex -16.2521 -9.49303 0
    endloop
  endfacet
  facet normal -0.995561 -0.0941206 0
    outer loop
      vertex -16.3342 -9.12567 -2
      vertex -16.3461 -9.00058 0
      vertex -16.3461 -9.00058 -2
    endloop
  endfacet
  facet normal -0.995561 -0.0941206 0
    outer loop
      vertex -16.3461 -9.00058 0
      vertex -16.3342 -9.12567 -2
      vertex -16.3342 -9.12567 0
    endloop
  endfacet
  facet normal -0.661312 -0.750111 0
    outer loop
      vertex -15.7191 -10.3329 -2
      vertex -15.6248 -10.416 0
      vertex -15.7191 -10.3329 0
    endloop
  endfacet
  facet normal -0.661312 -0.750111 -0
    outer loop
      vertex -15.6248 -10.416 0
      vertex -15.7191 -10.3329 -2
      vertex -15.6248 -10.416 -2
    endloop
  endfacet
  facet normal -0.397149 -0.917754 0
    outer loop
      vertex -15.2016 -10.6847 -2
      vertex -15.0862 -10.7346 0
      vertex -15.2016 -10.6847 0
    endloop
  endfacet
  facet normal -0.397149 -0.917754 -0
    outer loop
      vertex -15.0862 -10.7346 0
      vertex -15.2016 -10.6847 -2
      vertex -15.0862 -10.7346 -2
    endloop
  endfacet
  facet normal -0.509047 -0.860739 0
    outer loop
      vertex -15.4217 -10.5637 -2
      vertex -15.3135 -10.6276 0
      vertex -15.4217 -10.5637 0
    endloop
  endfacet
  facet normal -0.509047 -0.860739 -0
    outer loop
      vertex -15.3135 -10.6276 0
      vertex -15.4217 -10.5637 -2
      vertex -15.3135 -10.6276 -2
    endloop
  endfacet
  facet normal -0.278991 -0.960294 0
    outer loop
      vertex -14.968 -10.7771 -2
      vertex -14.8474 -10.8122 0
      vertex -14.968 -10.7771 0
    endloop
  endfacet
  facet normal -0.278991 -0.960294 -0
    outer loop
      vertex -14.8474 -10.8122 0
      vertex -14.968 -10.7771 -2
      vertex -14.8474 -10.8122 -2
    endloop
  endfacet
  facet normal -0.860744 -0.509038 0
    outer loop
      vertex -16.0387 -9.94665 -2
      vertex -16.1026 -9.83851 0
      vertex -16.1026 -9.83851 -2
    endloop
  endfacet
  facet normal -0.860744 -0.509038 0
    outer loop
      vertex -16.1026 -9.83851 0
      vertex -16.0387 -9.94665 -2
      vertex -16.0387 -9.94665 0
    endloop
  endfacet
  facet normal -0.94088 -0.33874 0
    outer loop
      vertex -16.2096 -9.61125 -2
      vertex -16.2521 -9.49303 0
      vertex -16.2521 -9.49303 -2
    endloop
  endfacet
  facet normal -0.94088 -0.33874 0
    outer loop
      vertex -16.2521 -9.49303 0
      vertex -16.2096 -9.61125 -2
      vertex -16.2096 -9.61125 0
    endloop
  endfacet
  facet normal -0.0314165 0.999506 0
    outer loop
      vertex -14.35 10.875 -2
      vertex -14.4756 10.8711 0
      vertex -14.35 10.875 0
    endloop
  endfacet
  facet normal -0.0314165 0.999506 0
    outer loop
      vertex -14.4756 10.8711 0
      vertex -14.35 10.875 -2
      vertex -14.4756 10.8711 -2
    endloop
  endfacet
  facet normal -0.707107 0.707107 0
    outer loop
      vertex -15.8079 10.2441 -2
      vertex -15.7191 10.3329 0
      vertex -15.7191 10.3329 -2
    endloop
  endfacet
  facet normal -0.707107 0.707107 0
    outer loop
      vertex -15.7191 10.3329 0
      vertex -15.8079 10.2441 -2
      vertex -15.8079 10.2441 0
    endloop
  endfacet
  facet normal -0.397149 0.917754 0
    outer loop
      vertex -15.0862 10.7346 -2
      vertex -15.2016 10.6847 0
      vertex -15.0862 10.7346 0
    endloop
  endfacet
  facet normal -0.397149 0.917754 0
    outer loop
      vertex -15.2016 10.6847 0
      vertex -15.0862 10.7346 -2
      vertex -15.2016 10.6847 -2
    endloop
  endfacet
  facet normal -0.91775 0.397158 0
    outer loop
      vertex -16.2096 9.61125 -2
      vertex -16.1597 9.72656 0
      vertex -16.1597 9.72656 -2
    endloop
  endfacet
  facet normal -0.91775 0.397158 0
    outer loop
      vertex -16.1597 9.72656 0
      vertex -16.2096 9.61125 -2
      vertex -16.2096 9.61125 0
    endloop
  endfacet
  facet normal -0.218138 0.975918 0
    outer loop
      vertex -14.7248 10.8396 -2
      vertex -14.8474 10.8122 0
      vertex -14.7248 10.8396 0
    endloop
  endfacet
  facet normal -0.218138 0.975918 0
    outer loop
      vertex -14.8474 10.8122 0
      vertex -14.7248 10.8396 -2
      vertex -14.8474 10.8122 -2
    endloop
  endfacet
  facet normal -0.975916 0.218147 0
    outer loop
      vertex -16.3146 9.24976 -2
      vertex -16.2872 9.37238 0
      vertex -16.2872 9.37238 -2
    endloop
  endfacet
  facet normal -0.975916 0.218147 0
    outer loop
      vertex -16.2872 9.37238 0
      vertex -16.3146 9.24976 -2
      vertex -16.3146 9.24976 0
    endloop
  endfacet
  facet normal -0.827086 0.562075 0
    outer loop
      vertex -16.0387 9.94665 -2
      vertex -15.968 10.0506 0
      vertex -15.968 10.0506 -2
    endloop
  endfacet
  facet normal -0.827086 0.562075 0
    outer loop
      vertex -15.968 10.0506 0
      vertex -16.0387 9.94665 -2
      vertex -16.0387 9.94665 0
    endloop
  endfacet
  facet normal -0.562081 0.827082 0
    outer loop
      vertex -15.4217 10.5637 -2
      vertex -15.5256 10.493 0
      vertex -15.4217 10.5637 0
    endloop
  endfacet
  facet normal -0.562081 0.827082 0
    outer loop
      vertex -15.5256 10.493 0
      vertex -15.4217 10.5637 -2
      vertex -15.5256 10.493 -2
    endloop
  endfacet
  facet normal -0.453986 0.891009 0
    outer loop
      vertex -15.2016 10.6847 -2
      vertex -15.3135 10.6276 0
      vertex -15.2016 10.6847 0
    endloop
  endfacet
  facet normal -0.453986 0.891009 0
    outer loop
      vertex -15.3135 10.6276 0
      vertex -15.2016 10.6847 -2
      vertex -15.3135 10.6276 -2
    endloop
  endfacet
  facet normal -0.612906 0.790156 0
    outer loop
      vertex -15.5256 10.493 -2
      vertex -15.6248 10.416 0
      vertex -15.5256 10.493 0
    endloop
  endfacet
  facet normal -0.612906 0.790156 0
    outer loop
      vertex -15.6248 10.416 0
      vertex -15.5256 10.493 -2
      vertex -15.6248 10.416 -2
    endloop
  endfacet
  facet normal -0.278991 0.960294 0
    outer loop
      vertex -14.8474 10.8122 -2
      vertex -14.968 10.7771 0
      vertex -14.8474 10.8122 0
    endloop
  endfacet
  facet normal -0.278991 0.960294 0
    outer loop
      vertex -14.968 10.7771 0
      vertex -14.8474 10.8122 -2
      vertex -14.968 10.7771 -2
    endloop
  endfacet
  facet normal -0.0941049 0.995562 0
    outer loop
      vertex -14.4756 10.8711 -2
      vertex -14.6007 10.8592 0
      vertex -14.4756 10.8711 0
    endloop
  endfacet
  facet normal -0.0941049 0.995562 0
    outer loop
      vertex -14.6007 10.8592 0
      vertex -14.4756 10.8711 -2
      vertex -14.6007 10.8592 -2
    endloop
  endfacet
  facet normal -0.995561 0.0941206 0
    outer loop
      vertex -16.3461 9.00058 -2
      vertex -16.3342 9.12567 0
      vertex -16.3342 9.12567 -2
    endloop
  endfacet
  facet normal -0.995561 0.0941206 0
    outer loop
      vertex -16.3342 9.12567 0
      vertex -16.3461 9.00058 -2
      vertex -16.3461 9.00058 0
    endloop
  endfacet
  facet normal -0.790149 0.612914 0
    outer loop
      vertex -15.968 10.0506 -2
      vertex -15.891 10.1498 0
      vertex -15.891 10.1498 -2
    endloop
  endfacet
  facet normal -0.790149 0.612914 0
    outer loop
      vertex -15.891 10.1498 0
      vertex -15.968 10.0506 -2
      vertex -15.968 10.0506 0
    endloop
  endfacet
  facet normal -0.750115 0.661308 0
    outer loop
      vertex -15.891 10.1498 -2
      vertex -15.8079 10.2441 0
      vertex -15.8079 10.2441 -2
    endloop
  endfacet
  facet normal -0.750115 0.661308 0
    outer loop
      vertex -15.8079 10.2441 0
      vertex -15.891 10.1498 -2
      vertex -15.891 10.1498 0
    endloop
  endfacet
  facet normal -0.891005 0.453993 0
    outer loop
      vertex -16.1597 9.72656 -2
      vertex -16.1026 9.83851 0
      vertex -16.1026 9.83851 -2
    endloop
  endfacet
  facet normal -0.891005 0.453993 0
    outer loop
      vertex -16.1026 9.83851 0
      vertex -16.1597 9.72656 -2
      vertex -16.1597 9.72656 0
    endloop
  endfacet
  facet normal -0.860744 0.509038 0
    outer loop
      vertex -16.1026 9.83851 -2
      vertex -16.0387 9.94665 0
      vertex -16.0387 9.94665 -2
    endloop
  endfacet
  facet normal -0.860744 0.509038 0
    outer loop
      vertex -16.0387 9.94665 0
      vertex -16.1026 9.83851 -2
      vertex -16.1026 9.83851 0
    endloop
  endfacet
  facet normal -0.960294 0.278991 0
    outer loop
      vertex -16.2872 9.37238 -2
      vertex -16.2521 9.49303 0
      vertex -16.2521 9.49303 -2
    endloop
  endfacet
  facet normal -0.960294 0.278991 0
    outer loop
      vertex -16.2521 9.49303 0
      vertex -16.2872 9.37238 -2
      vertex -16.2872 9.37238 0
    endloop
  endfacet
  facet normal -0.94088 0.33874 0
    outer loop
      vertex -16.2521 9.49303 -2
      vertex -16.2096 9.61125 0
      vertex -16.2096 9.61125 -2
    endloop
  endfacet
  facet normal -0.94088 0.33874 0
    outer loop
      vertex -16.2096 9.61125 0
      vertex -16.2521 9.49303 -2
      vertex -16.2521 9.49303 0
    endloop
  endfacet
  facet normal -0.999507 0.0313938 0
    outer loop
      vertex -16.35 8.875 -2
      vertex -16.3461 9.00058 0
      vertex -16.3461 9.00058 -2
    endloop
  endfacet
  facet normal -0.999507 0.0313938 0
    outer loop
      vertex -16.3461 9.00058 0
      vertex -16.35 8.875 -2
      vertex -16.35 8.875 0
    endloop
  endfacet
  facet normal -0.509047 0.860739 0
    outer loop
      vertex -15.3135 10.6276 -2
      vertex -15.4217 10.5637 0
      vertex -15.3135 10.6276 0
    endloop
  endfacet
  facet normal -0.509047 0.860739 0
    outer loop
      vertex -15.4217 10.5637 0
      vertex -15.3135 10.6276 -2
      vertex -15.4217 10.5637 -2
    endloop
  endfacet
  facet normal -0.661312 0.750111 0
    outer loop
      vertex -15.6248 10.416 -2
      vertex -15.7191 10.3329 0
      vertex -15.6248 10.416 0
    endloop
  endfacet
  facet normal -0.661312 0.750111 0
    outer loop
      vertex -15.7191 10.3329 0
      vertex -15.6248 10.416 -2
      vertex -15.7191 10.3329 -2
    endloop
  endfacet
  facet normal -0.338743 0.940879 0
    outer loop
      vertex -14.968 10.7771 -2
      vertex -15.0862 10.7346 0
      vertex -14.968 10.7771 0
    endloop
  endfacet
  facet normal -0.338743 0.940879 0
    outer loop
      vertex -15.0862 10.7346 0
      vertex -14.968 10.7771 -2
      vertex -15.0862 10.7346 -2
    endloop
  endfacet
  facet normal -0.156437 0.987688 0
    outer loop
      vertex -14.6007 10.8592 -2
      vertex -14.7248 10.8396 0
      vertex -14.6007 10.8592 0
    endloop
  endfacet
  facet normal -0.156437 0.987688 0
    outer loop
      vertex -14.7248 10.8396 0
      vertex -14.6007 10.8592 -2
      vertex -14.7248 10.8396 -2
    endloop
  endfacet
  facet normal -0.98769 0.156421 0
    outer loop
      vertex -16.3342 9.12567 -2
      vertex -16.3146 9.24976 0
      vertex -16.3146 9.24976 -2
    endloop
  endfacet
  facet normal -0.98769 0.156421 0
    outer loop
      vertex -16.3146 9.24976 0
      vertex -16.3342 9.12567 -2
      vertex -16.3342 9.12567 0
    endloop
  endfacet
  facet normal 0.218138 -0.975918 0
    outer loop
      vertex 14.7248 -10.8396 -2
      vertex 14.8474 -10.8122 0
      vertex 14.7248 -10.8396 0
    endloop
  endfacet
  facet normal 0.218138 -0.975918 0
    outer loop
      vertex 14.8474 -10.8122 0
      vertex 14.7248 -10.8396 -2
      vertex 14.8474 -10.8122 -2
    endloop
  endfacet
  facet normal 0.612906 -0.790156 0
    outer loop
      vertex 15.5256 -10.493 -2
      vertex 15.6248 -10.416 0
      vertex 15.5256 -10.493 0
    endloop
  endfacet
  facet normal 0.612906 -0.790156 0
    outer loop
      vertex 15.6248 -10.416 0
      vertex 15.5256 -10.493 -2
      vertex 15.6248 -10.416 -2
    endloop
  endfacet
  facet normal 0.98769 -0.156421 0
    outer loop
      vertex 16.3146 -9.24976 0
      vertex 16.3342 -9.12567 -2
      vertex 16.3342 -9.12567 0
    endloop
  endfacet
  facet normal 0.98769 -0.156421 0
    outer loop
      vertex 16.3342 -9.12567 -2
      vertex 16.3146 -9.24976 0
      vertex 16.3146 -9.24976 -2
    endloop
  endfacet
  facet normal 0.0314165 -0.999506 0
    outer loop
      vertex 14.35 -10.875 -2
      vertex 14.4756 -10.8711 0
      vertex 14.35 -10.875 0
    endloop
  endfacet
  facet normal 0.0314165 -0.999506 0
    outer loop
      vertex 14.4756 -10.8711 0
      vertex 14.35 -10.875 -2
      vertex 14.4756 -10.8711 -2
    endloop
  endfacet
  facet normal 0.156437 -0.987688 0
    outer loop
      vertex 14.6007 -10.8592 -2
      vertex 14.7248 -10.8396 0
      vertex 14.6007 -10.8592 0
    endloop
  endfacet
  facet normal 0.156437 -0.987688 0
    outer loop
      vertex 14.7248 -10.8396 0
      vertex 14.6007 -10.8592 -2
      vertex 14.7248 -10.8396 -2
    endloop
  endfacet
  facet normal 0.278991 -0.960294 0
    outer loop
      vertex 14.8474 -10.8122 -2
      vertex 14.968 -10.7771 0
      vertex 14.8474 -10.8122 0
    endloop
  endfacet
  facet normal 0.278991 -0.960294 0
    outer loop
      vertex 14.968 -10.7771 0
      vertex 14.8474 -10.8122 -2
      vertex 14.968 -10.7771 -2
    endloop
  endfacet
  facet normal 0.661312 -0.750111 0
    outer loop
      vertex 15.6248 -10.416 -2
      vertex 15.7191 -10.3329 0
      vertex 15.6248 -10.416 0
    endloop
  endfacet
  facet normal 0.661312 -0.750111 0
    outer loop
      vertex 15.7191 -10.3329 0
      vertex 15.6248 -10.416 -2
      vertex 15.7191 -10.3329 -2
    endloop
  endfacet
  facet normal 0.509047 -0.860739 0
    outer loop
      vertex 15.3135 -10.6276 -2
      vertex 15.4217 -10.5637 0
      vertex 15.3135 -10.6276 0
    endloop
  endfacet
  facet normal 0.509047 -0.860739 0
    outer loop
      vertex 15.4217 -10.5637 0
      vertex 15.3135 -10.6276 -2
      vertex 15.4217 -10.5637 -2
    endloop
  endfacet
  facet normal 0.562081 -0.827082 0
    outer loop
      vertex 15.4217 -10.5637 -2
      vertex 15.5256 -10.493 0
      vertex 15.4217 -10.5637 0
    endloop
  endfacet
  facet normal 0.562081 -0.827082 0
    outer loop
      vertex 15.5256 -10.493 0
      vertex 15.4217 -10.5637 -2
      vertex 15.5256 -10.493 -2
    endloop
  endfacet
  facet normal 0.397149 -0.917754 0
    outer loop
      vertex 15.0862 -10.7346 -2
      vertex 15.2016 -10.6847 0
      vertex 15.0862 -10.7346 0
    endloop
  endfacet
  facet normal 0.397149 -0.917754 0
    outer loop
      vertex 15.2016 -10.6847 0
      vertex 15.0862 -10.7346 -2
      vertex 15.2016 -10.6847 -2
    endloop
  endfacet
  facet normal 0.750115 -0.661308 0
    outer loop
      vertex 15.8079 -10.2441 0
      vertex 15.891 -10.1498 -2
      vertex 15.891 -10.1498 0
    endloop
  endfacet
  facet normal 0.750115 -0.661308 0
    outer loop
      vertex 15.891 -10.1498 -2
      vertex 15.8079 -10.2441 0
      vertex 15.8079 -10.2441 -2
    endloop
  endfacet
  facet normal 0.827086 -0.562075 0
    outer loop
      vertex 15.968 -10.0506 0
      vertex 16.0387 -9.94665 -2
      vertex 16.0387 -9.94665 0
    endloop
  endfacet
  facet normal 0.827086 -0.562075 0
    outer loop
      vertex 16.0387 -9.94665 -2
      vertex 15.968 -10.0506 0
      vertex 15.968 -10.0506 -2
    endloop
  endfacet
  facet normal 0.91775 -0.397158 0
    outer loop
      vertex 16.1597 -9.72656 0
      vertex 16.2096 -9.61125 -2
      vertex 16.2096 -9.61125 0
    endloop
  endfacet
  facet normal 0.91775 -0.397158 0
    outer loop
      vertex 16.2096 -9.61125 -2
      vertex 16.1597 -9.72656 0
      vertex 16.1597 -9.72656 -2
    endloop
  endfacet
  facet normal 0.860744 -0.509038 0
    outer loop
      vertex 16.0387 -9.94665 0
      vertex 16.1026 -9.83851 -2
      vertex 16.1026 -9.83851 0
    endloop
  endfacet
  facet normal 0.860744 -0.509038 0
    outer loop
      vertex 16.1026 -9.83851 -2
      vertex 16.0387 -9.94665 0
      vertex 16.0387 -9.94665 -2
    endloop
  endfacet
  facet normal 0.94088 -0.33874 0
    outer loop
      vertex 16.2096 -9.61125 0
      vertex 16.2521 -9.49303 -2
      vertex 16.2521 -9.49303 0
    endloop
  endfacet
  facet normal 0.94088 -0.33874 0
    outer loop
      vertex 16.2521 -9.49303 -2
      vertex 16.2096 -9.61125 0
      vertex 16.2096 -9.61125 -2
    endloop
  endfacet
  facet normal 0.975916 -0.218147 0
    outer loop
      vertex 16.2872 -9.37238 0
      vertex 16.3146 -9.24976 -2
      vertex 16.3146 -9.24976 0
    endloop
  endfacet
  facet normal 0.975916 -0.218147 0
    outer loop
      vertex 16.3146 -9.24976 -2
      vertex 16.2872 -9.37238 0
      vertex 16.2872 -9.37238 -2
    endloop
  endfacet
  facet normal 0.0941049 -0.995562 0
    outer loop
      vertex 14.4756 -10.8711 -2
      vertex 14.6007 -10.8592 0
      vertex 14.4756 -10.8711 0
    endloop
  endfacet
  facet normal 0.0941049 -0.995562 0
    outer loop
      vertex 14.6007 -10.8592 0
      vertex 14.4756 -10.8711 -2
      vertex 14.6007 -10.8592 -2
    endloop
  endfacet
  facet normal 0.338743 -0.940879 0
    outer loop
      vertex 14.968 -10.7771 -2
      vertex 15.0862 -10.7346 0
      vertex 14.968 -10.7771 0
    endloop
  endfacet
  facet normal 0.338743 -0.940879 0
    outer loop
      vertex 15.0862 -10.7346 0
      vertex 14.968 -10.7771 -2
      vertex 15.0862 -10.7346 -2
    endloop
  endfacet
  facet normal 0.707107 -0.707107 0
    outer loop
      vertex 15.7191 -10.3329 0
      vertex 15.8079 -10.2441 -2
      vertex 15.8079 -10.2441 0
    endloop
  endfacet
  facet normal 0.707107 -0.707107 0
    outer loop
      vertex 15.8079 -10.2441 -2
      vertex 15.7191 -10.3329 0
      vertex 15.7191 -10.3329 -2
    endloop
  endfacet
  facet normal 0.453986 -0.891009 0
    outer loop
      vertex 15.2016 -10.6847 -2
      vertex 15.3135 -10.6276 0
      vertex 15.2016 -10.6847 0
    endloop
  endfacet
  facet normal 0.453986 -0.891009 0
    outer loop
      vertex 15.3135 -10.6276 0
      vertex 15.2016 -10.6847 -2
      vertex 15.3135 -10.6276 -2
    endloop
  endfacet
  facet normal 0.790149 -0.612914 0
    outer loop
      vertex 15.891 -10.1498 0
      vertex 15.968 -10.0506 -2
      vertex 15.968 -10.0506 0
    endloop
  endfacet
  facet normal 0.790149 -0.612914 0
    outer loop
      vertex 15.968 -10.0506 -2
      vertex 15.891 -10.1498 0
      vertex 15.891 -10.1498 -2
    endloop
  endfacet
  facet normal 0.891005 -0.453993 0
    outer loop
      vertex 16.1026 -9.83851 0
      vertex 16.1597 -9.72656 -2
      vertex 16.1597 -9.72656 0
    endloop
  endfacet
  facet normal 0.891005 -0.453993 0
    outer loop
      vertex 16.1597 -9.72656 -2
      vertex 16.1026 -9.83851 0
      vertex 16.1026 -9.83851 -2
    endloop
  endfacet
  facet normal 0.960294 -0.278991 0
    outer loop
      vertex 16.2521 -9.49303 0
      vertex 16.2872 -9.37238 -2
      vertex 16.2872 -9.37238 0
    endloop
  endfacet
  facet normal 0.960294 -0.278991 0
    outer loop
      vertex 16.2872 -9.37238 -2
      vertex 16.2521 -9.49303 0
      vertex 16.2521 -9.49303 -2
    endloop
  endfacet
  facet normal 0.995561 -0.0941206 0
    outer loop
      vertex 16.3342 -9.12567 0
      vertex 16.3461 -9.00058 -2
      vertex 16.3461 -9.00058 0
    endloop
  endfacet
  facet normal 0.995561 -0.0941206 0
    outer loop
      vertex 16.3461 -9.00058 -2
      vertex 16.3342 -9.12567 0
      vertex 16.3342 -9.12567 -2
    endloop
  endfacet
  facet normal 0.999507 -0.0313938 0
    outer loop
      vertex 16.3461 -9.00058 0
      vertex 16.35 -8.875 -2
      vertex 16.35 -8.875 0
    endloop
  endfacet
  facet normal 0.999507 -0.0313938 0
    outer loop
      vertex 16.35 -8.875 -2
      vertex 16.3461 -9.00058 0
      vertex 16.3461 -9.00058 -2
    endloop
  endfacet
  facet normal 0.661312 0.750111 -0
    outer loop
      vertex 15.7191 10.3329 -2
      vertex 15.6248 10.416 0
      vertex 15.7191 10.3329 0
    endloop
  endfacet
  facet normal 0.661312 0.750111 0
    outer loop
      vertex 15.6248 10.416 0
      vertex 15.7191 10.3329 -2
      vertex 15.6248 10.416 -2
    endloop
  endfacet
  facet normal 0.612906 0.790156 -0
    outer loop
      vertex 15.6248 10.416 -2
      vertex 15.5256 10.493 0
      vertex 15.6248 10.416 0
    endloop
  endfacet
  facet normal 0.612906 0.790156 0
    outer loop
      vertex 15.5256 10.493 0
      vertex 15.6248 10.416 -2
      vertex 15.5256 10.493 -2
    endloop
  endfacet
  facet normal 0.91775 0.397158 0
    outer loop
      vertex 16.2096 9.61125 0
      vertex 16.1597 9.72656 -2
      vertex 16.1597 9.72656 0
    endloop
  endfacet
  facet normal 0.91775 0.397158 0
    outer loop
      vertex 16.1597 9.72656 -2
      vertex 16.2096 9.61125 0
      vertex 16.2096 9.61125 -2
    endloop
  endfacet
  facet normal 0.338743 0.940879 -0
    outer loop
      vertex 15.0862 10.7346 -2
      vertex 14.968 10.7771 0
      vertex 15.0862 10.7346 0
    endloop
  endfacet
  facet normal 0.338743 0.940879 0
    outer loop
      vertex 14.968 10.7771 0
      vertex 15.0862 10.7346 -2
      vertex 14.968 10.7771 -2
    endloop
  endfacet
  facet normal 0.98769 0.156421 0
    outer loop
      vertex 16.3342 9.12567 0
      vertex 16.3146 9.24976 -2
      vertex 16.3146 9.24976 0
    endloop
  endfacet
  facet normal 0.98769 0.156421 0
    outer loop
      vertex 16.3146 9.24976 -2
      vertex 16.3342 9.12567 0
      vertex 16.3342 9.12567 -2
    endloop
  endfacet
  facet normal 0.975916 0.218147 0
    outer loop
      vertex 16.3146 9.24976 0
      vertex 16.2872 9.37238 -2
      vertex 16.2872 9.37238 0
    endloop
  endfacet
  facet normal 0.975916 0.218147 0
    outer loop
      vertex 16.2872 9.37238 -2
      vertex 16.3146 9.24976 0
      vertex 16.3146 9.24976 -2
    endloop
  endfacet
  facet normal 0.827086 0.562075 0
    outer loop
      vertex 16.0387 9.94665 0
      vertex 15.968 10.0506 -2
      vertex 15.968 10.0506 0
    endloop
  endfacet
  facet normal 0.827086 0.562075 0
    outer loop
      vertex 15.968 10.0506 -2
      vertex 16.0387 9.94665 0
      vertex 16.0387 9.94665 -2
    endloop
  endfacet
  facet normal 0.860744 0.509038 0
    outer loop
      vertex 16.1026 9.83851 0
      vertex 16.0387 9.94665 -2
      vertex 16.0387 9.94665 0
    endloop
  endfacet
  facet normal 0.860744 0.509038 0
    outer loop
      vertex 16.0387 9.94665 -2
      vertex 16.1026 9.83851 0
      vertex 16.1026 9.83851 -2
    endloop
  endfacet
  facet normal 0.707107 0.707107 0
    outer loop
      vertex 15.8079 10.2441 0
      vertex 15.7191 10.3329 -2
      vertex 15.7191 10.3329 0
    endloop
  endfacet
  facet normal 0.707107 0.707107 0
    outer loop
      vertex 15.7191 10.3329 -2
      vertex 15.8079 10.2441 0
      vertex 15.8079 10.2441 -2
    endloop
  endfacet
  facet normal 0.562081 0.827082 -0
    outer loop
      vertex 15.5256 10.493 -2
      vertex 15.4217 10.5637 0
      vertex 15.5256 10.493 0
    endloop
  endfacet
  facet normal 0.562081 0.827082 0
    outer loop
      vertex 15.4217 10.5637 0
      vertex 15.5256 10.493 -2
      vertex 15.4217 10.5637 -2
    endloop
  endfacet
  facet normal 0.0314165 0.999506 -0
    outer loop
      vertex 14.4756 10.8711 -2
      vertex 14.35 10.875 0
      vertex 14.4756 10.8711 0
    endloop
  endfacet
  facet normal 0.0314165 0.999506 0
    outer loop
      vertex 14.35 10.875 0
      vertex 14.4756 10.8711 -2
      vertex 14.35 10.875 -2
    endloop
  endfacet
  facet normal 0.278991 0.960294 -0
    outer loop
      vertex 14.968 10.7771 -2
      vertex 14.8474 10.8122 0
      vertex 14.968 10.7771 0
    endloop
  endfacet
  facet normal 0.278991 0.960294 0
    outer loop
      vertex 14.8474 10.8122 0
      vertex 14.968 10.7771 -2
      vertex 14.8474 10.8122 -2
    endloop
  endfacet
  facet normal 0.218138 0.975918 -0
    outer loop
      vertex 14.8474 10.8122 -2
      vertex 14.7248 10.8396 0
      vertex 14.8474 10.8122 0
    endloop
  endfacet
  facet normal 0.218138 0.975918 0
    outer loop
      vertex 14.7248 10.8396 0
      vertex 14.8474 10.8122 -2
      vertex 14.7248 10.8396 -2
    endloop
  endfacet
  facet normal 0.999507 0.0313938 0
    outer loop
      vertex 16.35 8.875 0
      vertex 16.3461 9.00058 -2
      vertex 16.3461 9.00058 0
    endloop
  endfacet
  facet normal 0.999507 0.0313938 0
    outer loop
      vertex 16.3461 9.00058 -2
      vertex 16.35 8.875 0
      vertex 16.35 8.875 -2
    endloop
  endfacet
  facet normal 0.995561 0.0941206 0
    outer loop
      vertex 16.3461 9.00058 0
      vertex 16.3342 9.12567 -2
      vertex 16.3342 9.12567 0
    endloop
  endfacet
  facet normal 0.995561 0.0941206 0
    outer loop
      vertex 16.3342 9.12567 -2
      vertex 16.3461 9.00058 0
      vertex 16.3461 9.00058 -2
    endloop
  endfacet
  facet normal 0.960294 0.278991 0
    outer loop
      vertex 16.2872 9.37238 0
      vertex 16.2521 9.49303 -2
      vertex 16.2521 9.49303 0
    endloop
  endfacet
  facet normal 0.960294 0.278991 0
    outer loop
      vertex 16.2521 9.49303 -2
      vertex 16.2872 9.37238 0
      vertex 16.2872 9.37238 -2
    endloop
  endfacet
  facet normal 0.94088 0.33874 0
    outer loop
      vertex 16.2521 9.49303 0
      vertex 16.2096 9.61125 -2
      vertex 16.2096 9.61125 0
    endloop
  endfacet
  facet normal 0.94088 0.33874 0
    outer loop
      vertex 16.2096 9.61125 -2
      vertex 16.2521 9.49303 0
      vertex 16.2521 9.49303 -2
    endloop
  endfacet
  facet normal 0.790149 0.612914 0
    outer loop
      vertex 15.968 10.0506 0
      vertex 15.891 10.1498 -2
      vertex 15.891 10.1498 0
    endloop
  endfacet
  facet normal 0.790149 0.612914 0
    outer loop
      vertex 15.891 10.1498 -2
      vertex 15.968 10.0506 0
      vertex 15.968 10.0506 -2
    endloop
  endfacet
  facet normal 0.750115 0.661308 0
    outer loop
      vertex 15.891 10.1498 0
      vertex 15.8079 10.2441 -2
      vertex 15.8079 10.2441 0
    endloop
  endfacet
  facet normal 0.750115 0.661308 0
    outer loop
      vertex 15.8079 10.2441 -2
      vertex 15.891 10.1498 0
      vertex 15.891 10.1498 -2
    endloop
  endfacet
  facet normal 0.509047 0.860739 -0
    outer loop
      vertex 15.4217 10.5637 -2
      vertex 15.3135 10.6276 0
      vertex 15.4217 10.5637 0
    endloop
  endfacet
  facet normal 0.509047 0.860739 0
    outer loop
      vertex 15.3135 10.6276 0
      vertex 15.4217 10.5637 -2
      vertex 15.3135 10.6276 -2
    endloop
  endfacet
  facet normal 0.453986 0.891009 -0
    outer loop
      vertex 15.3135 10.6276 -2
      vertex 15.2016 10.6847 0
      vertex 15.3135 10.6276 0
    endloop
  endfacet
  facet normal 0.453986 0.891009 0
    outer loop
      vertex 15.2016 10.6847 0
      vertex 15.3135 10.6276 -2
      vertex 15.2016 10.6847 -2
    endloop
  endfacet
  facet normal 0.397149 0.917754 -0
    outer loop
      vertex 15.2016 10.6847 -2
      vertex 15.0862 10.7346 0
      vertex 15.2016 10.6847 0
    endloop
  endfacet
  facet normal 0.397149 0.917754 0
    outer loop
      vertex 15.0862 10.7346 0
      vertex 15.2016 10.6847 -2
      vertex 15.0862 10.7346 -2
    endloop
  endfacet
  facet normal 0.156437 0.987688 -0
    outer loop
      vertex 14.7248 10.8396 -2
      vertex 14.6007 10.8592 0
      vertex 14.7248 10.8396 0
    endloop
  endfacet
  facet normal 0.156437 0.987688 0
    outer loop
      vertex 14.6007 10.8592 0
      vertex 14.7248 10.8396 -2
      vertex 14.6007 10.8592 -2
    endloop
  endfacet
  facet normal 0.891005 0.453993 0
    outer loop
      vertex 16.1597 9.72656 0
      vertex 16.1026 9.83851 -2
      vertex 16.1026 9.83851 0
    endloop
  endfacet
  facet normal 0.891005 0.453993 0
    outer loop
      vertex 16.1026 9.83851 -2
      vertex 16.1597 9.72656 0
      vertex 16.1597 9.72656 -2
    endloop
  endfacet
  facet normal 0.0941049 0.995562 -0
    outer loop
      vertex 14.6007 10.8592 -2
      vertex 14.4756 10.8711 0
      vertex 14.6007 10.8592 0
    endloop
  endfacet
  facet normal 0.0941049 0.995562 0
    outer loop
      vertex 14.4756 10.8711 0
      vertex 14.6007 10.8592 -2
      vertex 14.4756 10.8711 -2
    endloop
  endfacet
  facet normal 0 1 -0
    outer loop
      vertex 14.35 10.875 -2
      vertex -14.35 10.875 0
      vertex 14.35 10.875 0
    endloop
  endfacet
  facet normal 0 1 0
    outer loop
      vertex -14.35 10.875 0
      vertex 14.35 10.875 -2
      vertex -14.35 10.875 -2
    endloop
  endfacet
  facet normal 0 -1 0
    outer loop
      vertex -14.35 -10.875 -2
      vertex 14.35 -10.875 0
      vertex -14.35 -10.875 0
    endloop
  endfacet
  facet normal 0 -1 -0
    outer loop
      vertex 14.35 -10.875 0
      vertex -14.35 -10.875 -2
      vertex 14.35 -10.875 -2
    endloop
  endfacet
  facet normal -1 0 0
    outer loop
      vertex -16.35 -8.875 -2
      vertex -16.35 8.875 0
      vertex -16.35 8.875 -2
    endloop
  endfacet
  facet normal -1 -0 0
    outer loop
      vertex -16.35 8.875 0
      vertex -16.35 -8.875 -2
      vertex -16.35 -8.875 0
    endloop
  endfacet
  facet normal 1 -0 0
    outer loop
      vertex 16.35 -8.875 0
      vertex 16.35 8.875 -2
      vertex 16.35 8.875 0
    endloop
  endfacet
  facet normal 1 0 0
    outer loop
      vertex 16.35 8.875 -2
      vertex 16.35 -8.875 0
      vertex 16.35 -8.875 -2
    endloop
  endfacet
  facet normal -1 0 0
    outer loop
      vertex -12.35 -6.875 0
      vertex -12.35 6.875 12.6
      vertex -12.35 6.875 0
    endloop
  endfacet
  facet normal -1 -0 0
    outer loop
      vertex -12.35 6.875 12.6
      vertex -12.35 -6.875 0
      vertex -12.35 -6.875 12.6
    endloop
  endfacet
  facet normal 0 0 1
    outer loop
      vertex 4 -4.125 12.6
      vertex -4 -4.125 12.6
      vertex 4 -4.875 12.6
    endloop
  endfacet
  facet normal 0 0 1
    outer loop
      vertex 12.35 6.875 12.6
      vertex 10.35 4.875 12.6
      vertex 12.35 -6.875 12.6
    endloop
  endfacet
  facet normal 0 0 1
    outer loop
      vertex 12.35 6.875 12.6
      vertex 4 4.875 12.6
      vertex 10.35 4.875 12.6
    endloop
  endfacet
  facet normal 0 0 1
    outer loop
      vertex 4 4.875 12.6
      vertex -4 4.875 12.6
      vertex 4 4.125 12.6
    endloop
  endfacet
  facet normal 0 0 1
    outer loop
      vertex 12.35 6.875 12.6
      vertex -4 4.875 12.6
      vertex 4 4.875 12.6
    endloop
  endfacet
  facet normal -0 0 1
    outer loop
      vertex -12.35 6.875 12.6
      vertex -4 4.875 12.6
      vertex 12.35 6.875 12.6
    endloop
  endfacet
  facet normal 0 0 1
    outer loop
      vertex -10.35 4.875 12.6
      vertex -12.35 6.875 12.6
      vertex -10.35 -4.875 12.6
    endloop
  endfacet
  facet normal 0 0 1
    outer loop
      vertex -4 4.875 12.6
      vertex -12.35 6.875 12.6
      vertex -10.35 4.875 12.6
    endloop
  endfacet
  facet normal -0 0 1
    outer loop
      vertex 10.35 -4.875 12.6
      vertex 12.35 -6.875 12.6
      vertex 10.35 4.875 12.6
    endloop
  endfacet
  facet normal -0 0 1
    outer loop
      vertex 4 -4.875 12.6
      vertex 12.35 -6.875 12.6
      vertex 10.35 -4.875 12.6
    endloop
  endfacet
  facet normal 0 0 1
    outer loop
      vertex -4 -4.875 12.6
      vertex 4 -4.875 12.6
      vertex -4 -4.125 12.6
    endloop
  endfacet
  facet normal 0 0 1
    outer loop
      vertex 4 -4.875 12.6
      vertex -4 -4.875 12.6
      vertex 12.35 -6.875 12.6
    endloop
  endfacet
  facet normal 0 0 1
    outer loop
      vertex -12.35 -6.875 12.6
      vertex -4 -4.875 12.6
      vertex -10.35 -4.875 12.6
    endloop
  endfacet
  facet normal 0 0 1
    outer loop
      vertex -4 -4.875 12.6
      vertex -12.35 -6.875 12.6
      vertex 12.35 -6.875 12.6
    endloop
  endfacet
  facet normal 0 0 1
    outer loop
      vertex -12.35 -6.875 12.6
      vertex -10.35 -4.875 12.6
      vertex -12.35 6.875 12.6
    endloop
  endfacet
  facet normal 0 0 1
    outer loop
      vertex 4 4.125 12.6
      vertex -4 4.875 12.6
      vertex -4 4.125 12.6
    endloop
  endfacet
  facet normal 1 -0 0
    outer loop
      vertex 12.35 -6.875 12.6
      vertex 12.35 6.875 0
      vertex 12.35 6.875 12.6
    endloop
  endfacet
  facet normal 1 0 0
    outer loop
      vertex 12.35 6.875 0
      vertex 12.35 -6.875 12.6
      vertex 12.35 -6.875 0
    endloop
  endfacet
  facet normal 0 -1 0
    outer loop
      vertex -12.35 -6.875 0
      vertex 12.35 -6.875 12.6
      vertex -12.35 -6.875 12.6
    endloop
  endfacet
  facet normal 0 -1 -0
    outer loop
      vertex 12.35 -6.875 12.6
      vertex -12.35 -6.875 0
      vertex 12.35 -6.875 0
    endloop
  endfacet
  facet normal 0 1 -0
    outer loop
      vertex 12.35 6.875 0
      vertex -12.35 6.875 12.6
      vertex 12.35 6.875 12.6
    endloop
  endfacet
  facet normal 0 1 0
    outer loop
      vertex -12.35 6.875 12.6
      vertex 12.35 6.875 0
      vertex -12.35 6.875 0
    endloop
  endfacet
  facet normal 1 -0 0
    outer loop
      vertex -10.35 -4.875 12.6
      vertex -10.35 4.875 3.6
      vertex -10.35 4.875 12.6
    endloop
  endfacet
  facet normal 1 0 0
    outer loop
      vertex -10.35 4.875 3.6
      vertex -10.35 -4.875 12.6
      vertex -10.35 -4.875 3.6
    endloop
  endfacet
  facet normal -1 0 0
    outer loop
      vertex 10.35 -4.875 3.6
      vertex 10.35 4.875 12.6
      vertex 10.35 4.875 3.6
    endloop
  endfacet
  facet normal -1 -0 0
    outer loop
      vertex 10.35 4.875 12.6
      vertex 10.35 -4.875 3.6
      vertex 10.35 -4.875 12.6
    endloop
  endfacet
  facet normal 0 1 0
    outer loop
      vertex 10.35 -4.875 12.6
      vertex 4 -4.875 11.1
      vertex 4 -4.875 12.6
    endloop
  endfacet
  facet normal 0 1 0
    outer loop
      vertex 4 -4.875 11.1
      vertex 3.75 -4.875 11.095
      vertex -4 -4.875 11.1
    endloop
  endfacet
  facet normal 0 1 -0
    outer loop
      vertex 10.35 -4.875 3.6
      vertex 4 -4.875 11.1
      vertex 10.35 -4.875 12.6
    endloop
  endfacet
  facet normal 0 1 0
    outer loop
      vertex 3.75 -4.875 3.6
      vertex 4 -4.875 11.1
      vertex 10.35 -4.875 3.6
    endloop
  endfacet
  facet normal 0 1 0
    outer loop
      vertex 4 -4.875 11.1
      vertex 3.75 -4.875 3.6
      vertex 3.75 -4.875 11.095
    endloop
  endfacet
  facet normal 0 1 -0
    outer loop
      vertex -4 -4.875 11.1
      vertex -10.35 -4.875 12.6
      vertex -4 -4.875 12.6
    endloop
  endfacet
  facet normal 0 1 -0
    outer loop
      vertex -3.75 -4.875 11.095
      vertex -4 -4.875 11.1
      vertex 3.75 -4.875 11.095
    endloop
  endfacet
  facet normal 0 1 -0
    outer loop
      vertex -3.75 -4.875 3.6
      vertex -4 -4.875 11.1
      vertex -3.75 -4.875 11.095
    endloop
  endfacet
  facet normal 0 1 0
    outer loop
      vertex -10.35 -4.875 3.6
      vertex -4 -4.875 11.1
      vertex -3.75 -4.875 3.6
    endloop
  endfacet
  facet normal 0 1 0
    outer loop
      vertex -4 -4.875 11.1
      vertex -10.35 -4.875 3.6
      vertex -10.35 -4.875 12.6
    endloop
  endfacet
  facet normal 0 -1 0
    outer loop
      vertex -10.35 4.875 12.6
      vertex -4 4.875 11.1
      vertex -4 4.875 12.6
    endloop
  endfacet
  facet normal 0 -1 0
    outer loop
      vertex -4 4.875 11.1
      vertex -3.75 4.875 11.095
      vertex 4 4.875 11.1
    endloop
  endfacet
  facet normal 0 -1 0
    outer loop
      vertex -10.35 4.875 3.6
      vertex -4 4.875 11.1
      vertex -10.35 4.875 12.6
    endloop
  endfacet
  facet normal 0 -1 0
    outer loop
      vertex -3.75 4.875 3.6
      vertex -4 4.875 11.1
      vertex -10.35 4.875 3.6
    endloop
  endfacet
  facet normal 0 -1 0
    outer loop
      vertex -4 4.875 11.1
      vertex -3.75 4.875 3.6
      vertex -3.75 4.875 11.095
    endloop
  endfacet
  facet normal 0 -1 0
    outer loop
      vertex 4 4.875 11.1
      vertex 10.35 4.875 12.6
      vertex 4 4.875 12.6
    endloop
  endfacet
  facet normal 0 -1 0
    outer loop
      vertex 3.75 4.875 11.095
      vertex 4 4.875 11.1
      vertex -3.75 4.875 11.095
    endloop
  endfacet
  facet normal 0 -1 0
    outer loop
      vertex 3.75 4.875 3.6
      vertex 4 4.875 11.1
      vertex 3.75 4.875 11.095
    endloop
  endfacet
  facet normal 0 -1 0
    outer loop
      vertex 10.35 4.875 3.6
      vertex 4 4.875 11.1
      vertex 3.75 4.875 3.6
    endloop
  endfacet
  facet normal 0 -1 0
    outer loop
      vertex 4 4.875 11.1
      vertex 10.35 4.875 3.6
      vertex 10.35 4.875 12.6
    endloop
  endfacet
  facet normal 1 -0 0
    outer loop
      vertex -10.85 -5.375 3.6
      vertex -10.85 5.375 -2
      vertex -10.85 5.375 3.6
    endloop
  endfacet
  facet normal 1 0 0
    outer loop
      vertex -10.85 5.375 -2
      vertex -10.85 -5.375 3.6
      vertex -10.85 -5.375 -2
    endloop
  endfacet
  facet normal 0 0 -1
    outer loop
      vertex -3.75 -5.375 3.6
      vertex -10.35 -4.875 3.6
      vertex -3.75 -4.875 3.6
    endloop
  endfacet
  facet normal -0 0 -1
    outer loop
      vertex -10.35 -4.875 3.6
      vertex -10.85 -5.375 3.6
      vertex -10.35 4.875 3.6
    endloop
  endfacet
  facet normal 0 0 -1
    outer loop
      vertex -10.85 -5.375 3.6
      vertex -10.35 -4.875 3.6
      vertex -3.75 -5.375 3.6
    endloop
  endfacet
  facet normal 0 0 -1
    outer loop
      vertex -10.35 4.875 3.6
      vertex -3.75 5.375 3.6
      vertex -3.75 4.875 3.6
    endloop
  endfacet
  facet normal 0 0 -1
    outer loop
      vertex -10.35 4.875 3.6
      vertex -10.85 5.375 3.6
      vertex -3.75 5.375 3.6
    endloop
  endfacet
  facet normal 0 0 -1
    outer loop
      vertex -10.85 5.375 3.6
      vertex -10.35 4.875 3.6
      vertex -10.85 -5.375 3.6
    endloop
  endfacet
  facet normal 0 0 -1
    outer loop
      vertex 10.85 -5.375 3.6
      vertex 10.35 -4.875 3.6
      vertex 10.85 5.375 3.6
    endloop
  endfacet
  facet normal 0 0 -1
    outer loop
      vertex 3.75 -5.375 3.6
      vertex 10.35 -4.875 3.6
      vertex 10.85 -5.375 3.6
    endloop
  endfacet
  facet normal -0 0 -1
    outer loop
      vertex 10.35 -4.875 3.6
      vertex 3.75 -5.375 3.6
      vertex 3.75 -4.875 3.6
    endloop
  endfacet
  facet normal 0 0 -1
    outer loop
      vertex 10.35 4.875 3.6
      vertex 10.85 5.375 3.6
      vertex 10.35 -4.875 3.6
    endloop
  endfacet
  facet normal 0 0 -1
    outer loop
      vertex 3.75 5.375 3.6
      vertex 10.35 4.875 3.6
      vertex 3.75 4.875 3.6
    endloop
  endfacet
  facet normal 0 0 -1
    outer loop
      vertex 10.35 4.875 3.6
      vertex 3.75 5.375 3.6
      vertex 10.85 5.375 3.6
    endloop
  endfacet
  facet normal -1 0 0
    outer loop
      vertex 10.85 -5.375 -2
      vertex 10.85 5.375 3.6
      vertex 10.85 5.375 -2
    endloop
  endfacet
  facet normal -1 -0 0
    outer loop
      vertex 10.85 5.375 3.6
      vertex 10.85 -5.375 -2
      vertex 10.85 -5.375 3.6
    endloop
  endfacet
  facet normal 0 -1 0
    outer loop
      vertex -10.85 5.375 -2
      vertex -3.75 5.375 3.6
      vertex -10.85 5.375 3.6
    endloop
  endfacet
  facet normal 0 -1 -0
    outer loop
      vertex -3.75 5.375 3.6
      vertex -10.85 5.375 -2
      vertex 3.75 5.375 3.6
    endloop
  endfacet
  facet normal 0 -1 0
    outer loop
      vertex 10.85 5.375 -2
      vertex 3.75 5.375 3.6
      vertex -10.85 5.375 -2
    endloop
  endfacet
  facet normal 0 -1 0
    outer loop
      vertex 3.75 5.375 3.6
      vertex 10.85 5.375 -2
      vertex 10.85 5.375 3.6
    endloop
  endfacet
  facet normal 0 -1 0
    outer loop
      vertex -3.75 5.375 3.6
      vertex 3.75 5.375 11.095
      vertex -3.75 5.375 11.095
    endloop
  endfacet
  facet normal 0 -1 -0
    outer loop
      vertex 3.75 5.375 11.095
      vertex -3.75 5.375 3.6
      vertex 3.75 5.375 3.6
    endloop
  endfacet
  facet normal 0 1 -0
    outer loop
      vertex 10.85 -5.375 -2
      vertex 3.75 -5.375 3.6
      vertex 10.85 -5.375 3.6
    endloop
  endfacet
  facet normal 0 1 0
    outer loop
      vertex 3.75 -5.375 3.6
      vertex 10.85 -5.375 -2
      vertex -3.75 -5.375 3.6
    endloop
  endfacet
  facet normal 0 1 0
    outer loop
      vertex -10.85 -5.375 -2
      vertex -3.75 -5.375 3.6
      vertex 10.85 -5.375 -2
    endloop
  endfacet
  facet normal 0 1 0
    outer loop
      vertex -3.75 -5.375 3.6
      vertex -10.85 -5.375 -2
      vertex -10.85 -5.375 3.6
    endloop
  endfacet
  facet normal 0 1 -0
    outer loop
      vertex 3.75 -5.375 3.6
      vertex -3.75 -5.375 11.095
      vertex 3.75 -5.375 11.095
    endloop
  endfacet
  facet normal 0 1 0
    outer loop
      vertex -3.75 -5.375 11.095
      vertex 3.75 -5.375 3.6
      vertex -3.75 -5.375 3.6
    endloop
  endfacet
  facet normal 1 -0 0
    outer loop
      vertex -3.75 -5.375 11.095
      vertex -3.75 -4.875 3.6
      vertex -3.75 -4.875 11.095
    endloop
  endfacet
  facet normal 1 0 0
    outer loop
      vertex -3.75 -4.875 3.6
      vertex -3.75 -5.375 11.095
      vertex -3.75 -5.375 3.6
    endloop
  endfacet
  facet normal 1 -0 0
    outer loop
      vertex -3.75 4.875 11.095
      vertex -3.75 5.375 3.6
      vertex -3.75 5.375 11.095
    endloop
  endfacet
  facet normal 1 0 0
    outer loop
      vertex -3.75 5.375 3.6
      vertex -3.75 4.875 11.095
      vertex -3.75 4.875 3.6
    endloop
  endfacet
  facet normal 0 0 -1
    outer loop
      vertex -3.75 -5.375 11.095
      vertex 3.75 -4.875 11.095
      vertex 3.75 -5.375 11.095
    endloop
  endfacet
  facet normal -0 0 -1
    outer loop
      vertex 3.75 -4.875 11.095
      vertex -3.75 -5.375 11.095
      vertex -3.75 -4.875 11.095
    endloop
  endfacet
  facet normal 0 0 -1
    outer loop
      vertex -3.75 4.875 11.095
      vertex 3.75 5.375 11.095
      vertex 3.75 4.875 11.095
    endloop
  endfacet
  facet normal -0 0 -1
    outer loop
      vertex 3.75 5.375 11.095
      vertex -3.75 4.875 11.095
      vertex -3.75 5.375 11.095
    endloop
  endfacet
  facet normal -1 0 0
    outer loop
      vertex 3.75 -5.375 3.6
      vertex 3.75 -4.875 11.095
      vertex 3.75 -4.875 3.6
    endloop
  endfacet
  facet normal -1 -0 0
    outer loop
      vertex 3.75 -4.875 11.095
      vertex 3.75 -5.375 3.6
      vertex 3.75 -5.375 11.095
    endloop
  endfacet
  facet normal -1 0 0
    outer loop
      vertex 3.75 4.875 3.6
      vertex 3.75 5.375 11.095
      vertex 3.75 5.375 3.6
    endloop
  endfacet
  facet normal -1 -0 0
    outer loop
      vertex 3.75 5.375 11.095
      vertex 3.75 4.875 3.6
      vertex 3.75 4.875 11.095
    endloop
  endfacet
  facet normal -1 0 0
    outer loop
      vertex -4 -4.875 11.1
      vertex -4 -4.125 12.6
      vertex -4 -4.125 11.1
    endloop
  endfacet
  facet normal -1 -0 0
    outer loop
      vertex -4 -4.125 12.6
      vertex -4 -4.875 11.1
      vertex -4 -4.875 12.6
    endloop
  endfacet
  facet normal -1 0 0
    outer loop
      vertex -4 4.125 11.1
      vertex -4 4.875 12.6
      vertex -4 4.875 11.1
    endloop
  endfacet
  facet normal -1 -0 0
    outer loop
      vertex -4 4.875 12.6
      vertex -4 4.125 11.1
      vertex -4 4.125 12.6
    endloop
  endfacet
  facet normal 1 -0 0
    outer loop
      vertex 4 -4.875 12.6
      vertex 4 -4.125 11.1
      vertex 4 -4.125 12.6
    endloop
  endfacet
  facet normal 1 0 0
    outer loop
      vertex 4 -4.125 11.1
      vertex 4 -4.875 12.6
      vertex 4 -4.875 11.1
    endloop
  endfacet
  facet normal 1 -0 0
    outer loop
      vertex 4 4.125 12.6
      vertex 4 4.875 11.1
      vertex 4 4.875 12.6
    endloop
  endfacet
  facet normal 1 0 0
    outer loop
      vertex 4 4.875 11.1
      vertex 4 4.125 12.6
      vertex 4 4.125 11.1
    endloop
  endfacet
  facet normal 0 0 -1
    outer loop
      vertex -4 4.125 11.1
      vertex 4 4.875 11.1
      vertex 4 4.125 11.1
    endloop
  endfacet
  facet normal -0 0 -1
    outer loop
      vertex 4 4.875 11.1
      vertex -4 4.125 11.1
      vertex -4 4.875 11.1
    endloop
  endfacet
  facet normal 0 0 -1
    outer loop
      vertex -4 -4.875 11.1
      vertex 4 -4.125 11.1
      vertex 4 -4.875 11.1
    endloop
  endfacet
  facet normal -0 0 -1
    outer loop
      vertex 4 -4.125 11.1
      vertex -4 -4.875 11.1
      vertex -4 -4.125 11.1
    endloop
  endfacet
  facet normal 0 -1 0
    outer loop
      vertex -4 4.125 11.1
      vertex 4 4.125 12.6
      vertex -4 4.125 12.6
    endloop
  endfacet
  facet normal 0 -1 -0
    outer loop
      vertex 4 4.125 12.6
      vertex -4 4.125 11.1
      vertex 4 4.125 11.1
    endloop
  endfacet
  facet normal 0 1 -0
    outer loop
      vertex 4 -4.125 11.1
      vertex -4 -4.125 12.6
      vertex 4 -4.125 12.6
    endloop
  endfacet
  facet normal 0 1 0
    outer loop
      vertex -4 -4.125 12.6
      vertex 4 -4.125 11.1
      vertex -4 -4.125 11.1
    endloop
  endfacet
endsolid OpenSCAD_Model
